  0
SECTION
  2
BLOCKS
  0
ENDSEC
  0
SECTION
  2
ENTITIES
  0
LINE
  8
0
 10
51.0994
 20
-59.9827
 11
52.1977
 21
-59.9309
  0
LINE
  8
0
 10
52.1977
 20
-59.9309
 11
53.2938
 21
-59.8447
  0
LINE
  8
0
 10
53.2938
 20
-59.8447
 11
54.3867
 21
-59.724
  0
LINE
  8
0
 10
54.3867
 20
-59.724
 11
55.4752
 21
-59.5691
  0
LINE
  8
0
 10
55.4752
 20
-59.5691
 11
56.5583
 21
-59.3801
  0
LINE
  8
0
 10
56.5583
 20
-59.3801
 11
57.635
 21
-59.1571
  0
LINE
  8
0
 10
57.635
 20
-59.1571
 11
58.7041
 21
-58.9004
  0
LINE
  8
0
 10
58.7041
 20
-58.9004
 11
59.7647
 21
-58.6103
  0
LINE
  8
0
 10
59.7647
 20
-58.6103
 11
60.8156
 21
-58.287
  0
LINE
  8
0
 10
60.8156
 20
-58.287
 11
61.8558
 21
-57.9308
  0
LINE
  8
0
 10
61.8558
 20
-57.9308
 11
62.8844
 21
-57.5422
  0
LINE
  8
0
 10
62.8844
 20
-57.5422
 11
63.9002
 21
-57.1214
  0
LINE
  8
0
 10
63.9002
 20
-57.1214
 11
64.9023
 21
-56.6689
  0
LINE
  8
0
 10
64.9023
 20
-56.6689
 11
65.8897
 21
-56.1852
  0
LINE
  8
0
 10
65.8897
 20
-56.1852
 11
66.8614
 21
-55.6707
  0
LINE
  8
0
 10
66.8614
 20
-55.6707
 11
67.8164
 21
-55.126
  0
LINE
  8
0
 10
67.8164
 20
-55.126
 11
68.7539
 21
-54.5515
  0
LINE
  8
0
 10
68.7539
 20
-54.5515
 11
69.6729
 21
-53.9478
  0
LINE
  8
0
 10
69.6729
 20
-53.9478
 11
70.5725
 21
-53.3156
  0
LINE
  8
0
 10
70.5725
 20
-53.3156
 11
71.4517
 21
-52.6554
  0
LINE
  8
0
 10
71.4517
 20
-52.6554
 11
72.3098
 21
-51.968
  0
LINE
  8
0
 10
72.3098
 20
-51.968
 11
73.1459
 21
-51.2539
  0
LINE
  8
0
 10
73.1459
 20
-51.2539
 11
73.9591
 21
-50.5139
  0
LINE
  8
0
 10
73.9591
 20
-50.5139
 11
74.7487
 21
-49.7487
  0
LINE
  8
0
 10
74.7487
 20
-49.7487
 11
75.5139
 21
-48.9591
  0
LINE
  8
0
 10
75.5139
 20
-48.9591
 11
76.2539
 21
-48.1459
  0
LINE
  8
0
 10
76.2539
 20
-48.1459
 11
76.968
 21
-47.3098
  0
LINE
  8
0
 10
76.968
 20
-47.3098
 11
77.6554
 21
-46.4517
  0
LINE
  8
0
 10
77.6554
 20
-46.4517
 11
78.3156
 21
-45.5725
  0
LINE
  8
0
 10
78.3156
 20
-45.5725
 11
78.9478
 21
-44.6729
  0
LINE
  8
0
 10
78.9478
 20
-44.6729
 11
79.5515
 21
-43.7539
  0
LINE
  8
0
 10
79.5515
 20
-43.7539
 11
80.126
 21
-42.8164
  0
LINE
  8
0
 10
80.126
 20
-42.8164
 11
80.6707
 21
-41.8614
  0
LINE
  8
0
 10
80.6707
 20
-41.8614
 11
81.1852
 21
-40.8897
  0
LINE
  8
0
 10
81.1852
 20
-40.8897
 11
81.6689
 21
-39.9023
  0
LINE
  8
0
 10
81.6689
 20
-39.9023
 11
82.1214
 21
-38.9002
  0
LINE
  8
0
 10
82.1214
 20
-38.9002
 11
82.5422
 21
-37.8844
  0
LINE
  8
0
 10
82.5422
 20
-37.8844
 11
82.9308
 21
-36.8558
  0
LINE
  8
0
 10
82.9308
 20
-36.8558
 11
83.287
 21
-35.8156
  0
LINE
  8
0
 10
83.287
 20
-35.8156
 11
83.6103
 21
-34.7647
  0
LINE
  8
0
 10
83.6103
 20
-34.7647
 11
83.9004
 21
-33.7041
  0
LINE
  8
0
 10
83.9004
 20
-33.7041
 11
84.1571
 21
-32.635
  0
LINE
  8
0
 10
84.1571
 20
-32.635
 11
84.3801
 21
-31.5583
  0
LINE
  8
0
 10
84.3801
 20
-31.5583
 11
84.5691
 21
-30.4752
  0
LINE
  8
0
 10
84.5691
 20
-30.4752
 11
84.724
 21
-29.3867
  0
LINE
  8
0
 10
84.724
 20
-29.3867
 11
84.8447
 21
-28.2938
  0
LINE
  8
0
 10
84.8447
 20
-28.2938
 11
84.9309
 21
-27.1977
  0
LINE
  8
0
 10
84.9309
 20
-27.1977
 11
84.9827
 21
-26.0994
  0
LINE
  8
0
 10
84.9827
 20
-26.0994
 11
85
 21
-25
  0
LINE
  8
0
 10
85
 20
-25
 11
85
 21
25
  0
LINE
  8
0
 10
85
 20
25
 11
84.9827
 21
26.0994
  0
LINE
  8
0
 10
84.9827
 20
26.0994
 11
84.9309
 21
27.1977
  0
LINE
  8
0
 10
84.9309
 20
27.1977
 11
84.8447
 21
28.2938
  0
LINE
  8
0
 10
84.8447
 20
28.2938
 11
84.724
 21
29.3867
  0
LINE
  8
0
 10
84.724
 20
29.3867
 11
84.5691
 21
30.4752
  0
LINE
  8
0
 10
84.5691
 20
30.4752
 11
84.3801
 21
31.5583
  0
LINE
  8
0
 10
84.3801
 20
31.5583
 11
84.1571
 21
32.635
  0
LINE
  8
0
 10
84.1571
 20
32.635
 11
83.9004
 21
33.7041
  0
LINE
  8
0
 10
83.9004
 20
33.7041
 11
83.6103
 21
34.7647
  0
LINE
  8
0
 10
83.6103
 20
34.7647
 11
83.287
 21
35.8156
  0
LINE
  8
0
 10
83.287
 20
35.8156
 11
82.9308
 21
36.8558
  0
LINE
  8
0
 10
82.9308
 20
36.8558
 11
82.5422
 21
37.8844
  0
LINE
  8
0
 10
82.5422
 20
37.8844
 11
82.1214
 21
38.9002
  0
LINE
  8
0
 10
82.1214
 20
38.9002
 11
81.6689
 21
39.9023
  0
LINE
  8
0
 10
81.6689
 20
39.9023
 11
81.1852
 21
40.8897
  0
LINE
  8
0
 10
81.1852
 20
40.8897
 11
80.6707
 21
41.8614
  0
LINE
  8
0
 10
80.6707
 20
41.8614
 11
80.126
 21
42.8164
  0
LINE
  8
0
 10
80.126
 20
42.8164
 11
79.5515
 21
43.7539
  0
LINE
  8
0
 10
79.5515
 20
43.7539
 11
78.9478
 21
44.6729
  0
LINE
  8
0
 10
78.9478
 20
44.6729
 11
78.3156
 21
45.5725
  0
LINE
  8
0
 10
78.3156
 20
45.5725
 11
77.6554
 21
46.4517
  0
LINE
  8
0
 10
77.6554
 20
46.4517
 11
76.968
 21
47.3098
  0
LINE
  8
0
 10
76.968
 20
47.3098
 11
76.2539
 21
48.1459
  0
LINE
  8
0
 10
76.2539
 20
48.1459
 11
75.5139
 21
48.9591
  0
LINE
  8
0
 10
75.5139
 20
48.9591
 11
74.7487
 21
49.7487
  0
LINE
  8
0
 10
74.7487
 20
49.7487
 11
73.9591
 21
50.5139
  0
LINE
  8
0
 10
73.9591
 20
50.5139
 11
73.1459
 21
51.2539
  0
LINE
  8
0
 10
73.1459
 20
51.2539
 11
72.3098
 21
51.968
  0
LINE
  8
0
 10
72.3098
 20
51.968
 11
71.4517
 21
52.6554
  0
LINE
  8
0
 10
71.4517
 20
52.6554
 11
70.5725
 21
53.3156
  0
LINE
  8
0
 10
70.5725
 20
53.3156
 11
69.6729
 21
53.9478
  0
LINE
  8
0
 10
69.6729
 20
53.9478
 11
68.7539
 21
54.5515
  0
LINE
  8
0
 10
68.7539
 20
54.5515
 11
67.8164
 21
55.126
  0
LINE
  8
0
 10
67.8164
 20
55.126
 11
66.8614
 21
55.6707
  0
LINE
  8
0
 10
66.8614
 20
55.6707
 11
65.8897
 21
56.1852
  0
LINE
  8
0
 10
65.8897
 20
56.1852
 11
64.9023
 21
56.6689
  0
LINE
  8
0
 10
64.9023
 20
56.6689
 11
63.9002
 21
57.1214
  0
LINE
  8
0
 10
63.9002
 20
57.1214
 11
62.8844
 21
57.5422
  0
LINE
  8
0
 10
62.8844
 20
57.5422
 11
61.8558
 21
57.9308
  0
LINE
  8
0
 10
61.8558
 20
57.9308
 11
60.8156
 21
58.287
  0
LINE
  8
0
 10
60.8156
 20
58.287
 11
59.7647
 21
58.6103
  0
LINE
  8
0
 10
59.7647
 20
58.6103
 11
58.7041
 21
58.9004
  0
LINE
  8
0
 10
58.7041
 20
58.9004
 11
57.635
 21
59.1571
  0
LINE
  8
0
 10
57.635
 20
59.1571
 11
56.5583
 21
59.3801
  0
LINE
  8
0
 10
56.5583
 20
59.3801
 11
55.4752
 21
59.5691
  0
LINE
  8
0
 10
55.4752
 20
59.5691
 11
54.3867
 21
59.724
  0
LINE
  8
0
 10
54.3867
 20
59.724
 11
53.2938
 21
59.8447
  0
LINE
  8
0
 10
53.2938
 20
59.8447
 11
52.1977
 21
59.9309
  0
LINE
  8
0
 10
52.1977
 20
59.9309
 11
51.0994
 21
59.9827
  0
LINE
  8
0
 10
51.0994
 20
59.9827
 11
50
 21
60
  0
LINE
  8
0
 10
50
 20
60
 11
-50
 21
60
  0
LINE
  8
0
 10
-50
 20
60
 11
-51.0994
 21
59.9827
  0
LINE
  8
0
 10
-51.0994
 20
59.9827
 11
-52.1977
 21
59.9309
  0
LINE
  8
0
 10
-52.1977
 20
59.9309
 11
-53.2938
 21
59.8447
  0
LINE
  8
0
 10
-53.2938
 20
59.8447
 11
-54.3867
 21
59.724
  0
LINE
  8
0
 10
-54.3867
 20
59.724
 11
-55.4752
 21
59.5691
  0
LINE
  8
0
 10
-55.4752
 20
59.5691
 11
-56.5583
 21
59.3801
  0
LINE
  8
0
 10
-56.5583
 20
59.3801
 11
-57.635
 21
59.1571
  0
LINE
  8
0
 10
-57.635
 20
59.1571
 11
-58.7041
 21
58.9004
  0
LINE
  8
0
 10
-58.7041
 20
58.9004
 11
-59.7647
 21
58.6103
  0
LINE
  8
0
 10
-59.7647
 20
58.6103
 11
-60.8156
 21
58.287
  0
LINE
  8
0
 10
-60.8156
 20
58.287
 11
-61.8558
 21
57.9308
  0
LINE
  8
0
 10
-61.8558
 20
57.9308
 11
-62.8844
 21
57.5422
  0
LINE
  8
0
 10
-62.8844
 20
57.5422
 11
-63.9002
 21
57.1214
  0
LINE
  8
0
 10
-63.9002
 20
57.1214
 11
-64.9023
 21
56.6689
  0
LINE
  8
0
 10
-64.9023
 20
56.6689
 11
-65.8897
 21
56.1852
  0
LINE
  8
0
 10
-65.8897
 20
56.1852
 11
-66.8614
 21
55.6707
  0
LINE
  8
0
 10
-66.8614
 20
55.6707
 11
-67.8164
 21
55.126
  0
LINE
  8
0
 10
-67.8164
 20
55.126
 11
-68.7539
 21
54.5515
  0
LINE
  8
0
 10
-68.7539
 20
54.5515
 11
-69.6729
 21
53.9478
  0
LINE
  8
0
 10
-69.6729
 20
53.9478
 11
-70.5725
 21
53.3156
  0
LINE
  8
0
 10
-70.5725
 20
53.3156
 11
-71.4517
 21
52.6554
  0
LINE
  8
0
 10
-71.4517
 20
52.6554
 11
-72.3098
 21
51.968
  0
LINE
  8
0
 10
-72.3098
 20
51.968
 11
-73.1459
 21
51.2539
  0
LINE
  8
0
 10
-73.1459
 20
51.2539
 11
-73.9591
 21
50.5139
  0
LINE
  8
0
 10
-73.9591
 20
50.5139
 11
-74.7487
 21
49.7487
  0
LINE
  8
0
 10
-74.7487
 20
49.7487
 11
-75.5139
 21
48.9591
  0
LINE
  8
0
 10
-75.5139
 20
48.9591
 11
-76.2539
 21
48.1459
  0
LINE
  8
0
 10
-76.2539
 20
48.1459
 11
-76.968
 21
47.3098
  0
LINE
  8
0
 10
-76.968
 20
47.3098
 11
-77.6554
 21
46.4517
  0
LINE
  8
0
 10
-77.6554
 20
46.4517
 11
-78.3156
 21
45.5725
  0
LINE
  8
0
 10
-78.3156
 20
45.5725
 11
-78.9478
 21
44.6729
  0
LINE
  8
0
 10
-78.9478
 20
44.6729
 11
-79.5515
 21
43.7539
  0
LINE
  8
0
 10
-79.5515
 20
43.7539
 11
-80.126
 21
42.8164
  0
LINE
  8
0
 10
-80.126
 20
42.8164
 11
-80.6707
 21
41.8614
  0
LINE
  8
0
 10
-80.6707
 20
41.8614
 11
-81.1852
 21
40.8897
  0
LINE
  8
0
 10
-81.1852
 20
40.8897
 11
-81.6689
 21
39.9023
  0
LINE
  8
0
 10
-81.6689
 20
39.9023
 11
-82.1214
 21
38.9002
  0
LINE
  8
0
 10
-82.1214
 20
38.9002
 11
-82.5422
 21
37.8844
  0
LINE
  8
0
 10
-82.5422
 20
37.8844
 11
-82.9308
 21
36.8558
  0
LINE
  8
0
 10
-82.9308
 20
36.8558
 11
-83.287
 21
35.8156
  0
LINE
  8
0
 10
-83.287
 20
35.8156
 11
-83.6103
 21
34.7647
  0
LINE
  8
0
 10
-83.6103
 20
34.7647
 11
-83.9004
 21
33.7041
  0
LINE
  8
0
 10
-83.9004
 20
33.7041
 11
-84.1571
 21
32.635
  0
LINE
  8
0
 10
-84.1571
 20
32.635
 11
-84.3801
 21
31.5583
  0
LINE
  8
0
 10
-84.3801
 20
31.5583
 11
-84.5691
 21
30.4752
  0
LINE
  8
0
 10
-84.5691
 20
30.4752
 11
-84.724
 21
29.3867
  0
LINE
  8
0
 10
-84.724
 20
29.3867
 11
-84.8447
 21
28.2938
  0
LINE
  8
0
 10
-84.8447
 20
28.2938
 11
-84.9309
 21
27.1977
  0
LINE
  8
0
 10
-84.9309
 20
27.1977
 11
-84.9827
 21
26.0994
  0
LINE
  8
0
 10
-84.9827
 20
26.0994
 11
-85
 21
25
  0
LINE
  8
0
 10
-85
 20
25
 11
-85
 21
-25
  0
LINE
  8
0
 10
-85
 20
-25
 11
-84.9827
 21
-26.0994
  0
LINE
  8
0
 10
-84.9827
 20
-26.0994
 11
-84.9309
 21
-27.1977
  0
LINE
  8
0
 10
-84.9309
 20
-27.1977
 11
-84.8447
 21
-28.2938
  0
LINE
  8
0
 10
-84.8447
 20
-28.2938
 11
-84.724
 21
-29.3867
  0
LINE
  8
0
 10
-84.724
 20
-29.3867
 11
-84.5691
 21
-30.4752
  0
LINE
  8
0
 10
-84.5691
 20
-30.4752
 11
-84.3801
 21
-31.5583
  0
LINE
  8
0
 10
-84.3801
 20
-31.5583
 11
-84.1571
 21
-32.635
  0
LINE
  8
0
 10
-84.1571
 20
-32.635
 11
-83.9004
 21
-33.7041
  0
LINE
  8
0
 10
-83.9004
 20
-33.7041
 11
-83.6103
 21
-34.7647
  0
LINE
  8
0
 10
-83.6103
 20
-34.7647
 11
-83.287
 21
-35.8156
  0
LINE
  8
0
 10
-83.287
 20
-35.8156
 11
-82.9308
 21
-36.8558
  0
LINE
  8
0
 10
-82.9308
 20
-36.8558
 11
-82.5422
 21
-37.8844
  0
LINE
  8
0
 10
-82.5422
 20
-37.8844
 11
-82.1214
 21
-38.9002
  0
LINE
  8
0
 10
-82.1214
 20
-38.9002
 11
-81.6689
 21
-39.9023
  0
LINE
  8
0
 10
-81.6689
 20
-39.9023
 11
-81.1852
 21
-40.8897
  0
LINE
  8
0
 10
-81.1852
 20
-40.8897
 11
-80.6707
 21
-41.8614
  0
LINE
  8
0
 10
-80.6707
 20
-41.8614
 11
-80.126
 21
-42.8164
  0
LINE
  8
0
 10
-80.126
 20
-42.8164
 11
-79.5515
 21
-43.7539
  0
LINE
  8
0
 10
-79.5515
 20
-43.7539
 11
-78.9478
 21
-44.6729
  0
LINE
  8
0
 10
-78.9478
 20
-44.6729
 11
-78.3156
 21
-45.5725
  0
LINE
  8
0
 10
-78.3156
 20
-45.5725
 11
-77.6554
 21
-46.4517
  0
LINE
  8
0
 10
-77.6554
 20
-46.4517
 11
-76.968
 21
-47.3098
  0
LINE
  8
0
 10
-76.968
 20
-47.3098
 11
-76.2539
 21
-48.1459
  0
LINE
  8
0
 10
-76.2539
 20
-48.1459
 11
-75.5139
 21
-48.9591
  0
LINE
  8
0
 10
-75.5139
 20
-48.9591
 11
-74.7487
 21
-49.7487
  0
LINE
  8
0
 10
-74.7487
 20
-49.7487
 11
-73.9591
 21
-50.5139
  0
LINE
  8
0
 10
-73.9591
 20
-50.5139
 11
-73.1459
 21
-51.2539
  0
LINE
  8
0
 10
-73.1459
 20
-51.2539
 11
-72.3098
 21
-51.968
  0
LINE
  8
0
 10
-72.3098
 20
-51.968
 11
-71.4517
 21
-52.6554
  0
LINE
  8
0
 10
-71.4517
 20
-52.6554
 11
-70.5725
 21
-53.3156
  0
LINE
  8
0
 10
-70.5725
 20
-53.3156
 11
-69.6729
 21
-53.9478
  0
LINE
  8
0
 10
-69.6729
 20
-53.9478
 11
-68.7539
 21
-54.5515
  0
LINE
  8
0
 10
-68.7539
 20
-54.5515
 11
-67.8164
 21
-55.126
  0
LINE
  8
0
 10
-67.8164
 20
-55.126
 11
-66.8614
 21
-55.6707
  0
LINE
  8
0
 10
-66.8614
 20
-55.6707
 11
-65.8897
 21
-56.1852
  0
LINE
  8
0
 10
-65.8897
 20
-56.1852
 11
-64.9023
 21
-56.6689
  0
LINE
  8
0
 10
-64.9023
 20
-56.6689
 11
-63.9002
 21
-57.1214
  0
LINE
  8
0
 10
-63.9002
 20
-57.1214
 11
-62.8844
 21
-57.5422
  0
LINE
  8
0
 10
-62.8844
 20
-57.5422
 11
-61.8558
 21
-57.9308
  0
LINE
  8
0
 10
-61.8558
 20
-57.9308
 11
-60.8156
 21
-58.287
  0
LINE
  8
0
 10
-60.8156
 20
-58.287
 11
-59.7647
 21
-58.6103
  0
LINE
  8
0
 10
-59.7647
 20
-58.6103
 11
-58.7041
 21
-58.9004
  0
LINE
  8
0
 10
-58.7041
 20
-58.9004
 11
-57.635
 21
-59.1571
  0
LINE
  8
0
 10
-57.635
 20
-59.1571
 11
-56.5583
 21
-59.3801
  0
LINE
  8
0
 10
-56.5583
 20
-59.3801
 11
-55.4752
 21
-59.5691
  0
LINE
  8
0
 10
-55.4752
 20
-59.5691
 11
-54.3867
 21
-59.724
  0
LINE
  8
0
 10
-54.3867
 20
-59.724
 11
-53.2938
 21
-59.8447
  0
LINE
  8
0
 10
-53.2938
 20
-59.8447
 11
-52.1977
 21
-59.9309
  0
LINE
  8
0
 10
-52.1977
 20
-59.9309
 11
-51.0994
 21
-59.9827
  0
LINE
  8
0
 10
-51.0994
 20
-59.9827
 11
-50
 21
-60
  0
LINE
  8
0
 10
-50
 20
-60
 11
50
 21
-60
  0
LINE
  8
0
 10
50
 20
-60
 11
51.0994
 21
-59.9827
  0
LINE
  8
0
 10
-0.0628204
 20
53.001
 11
-0.12558
 21
53.0039
  0
LINE
  8
0
 10
-0.12558
 20
53.0039
 11
-0.188202
 21
53.0089
  0
LINE
  8
0
 10
-0.188202
 20
53.0089
 11
-0.250656
 21
53.0158
  0
LINE
  8
0
 10
-0.250656
 20
53.0158
 11
-0.312866
 21
53.0246
  0
LINE
  8
0
 10
-0.312866
 20
53.0246
 11
-0.374756
 21
53.0354
  0
LINE
  8
0
 10
-0.374756
 20
53.0354
 11
-0.436279
 21
53.0482
  0
LINE
  8
0
 10
-0.436279
 20
53.0482
 11
-0.497375
 21
53.0628
  0
LINE
  8
0
 10
-0.497375
 20
53.0628
 11
-0.557968
 21
53.0794
  0
LINE
  8
0
 10
-0.557968
 20
53.0794
 11
-0.618027
 21
53.0979
  0
LINE
  8
0
 10
-0.618027
 20
53.0979
 11
-0.677475
 21
53.1182
  0
LINE
  8
0
 10
-0.677475
 20
53.1182
 11
-0.736237
 21
53.1404
  0
LINE
  8
0
 10
-0.736237
 20
53.1404
 11
-0.794281
 21
53.1645
  0
LINE
  8
0
 10
-0.794281
 20
53.1645
 11
-0.851547
 21
53.1903
  0
LINE
  8
0
 10
-0.851547
 20
53.1903
 11
-0.907974
 21
53.218
  0
LINE
  8
0
 10
-0.907974
 20
53.218
 11
-0.963501
 21
53.2474
  0
LINE
  8
0
 10
-0.963501
 20
53.2474
 11
-1.01808
 21
53.2785
  0
LINE
  8
0
 10
-1.01808
 20
53.2785
 11
-1.07164
 21
53.3113
  0
LINE
  8
0
 10
-1.07164
 20
53.3113
 11
-1.12416
 21
53.3458
  0
LINE
  8
0
 10
-1.12416
 20
53.3458
 11
-1.17557
 21
53.382
  0
LINE
  8
0
 10
-1.17557
 20
53.382
 11
-1.2258
 21
53.4197
  0
LINE
  8
0
 10
-1.2258
 20
53.4197
 11
-1.27484
 21
53.459
  0
LINE
  8
0
 10
-1.27484
 20
53.459
 11
-1.32262
 21
53.4998
  0
LINE
  8
0
 10
-1.32262
 20
53.4998
 11
-1.36908
 21
53.5421
  0
LINE
  8
0
 10
-1.36908
 20
53.5421
 11
-1.4142
 21
53.5858
  0
LINE
  8
0
 10
-1.4142
 20
53.5858
 11
-1.45793
 21
53.6309
  0
LINE
  8
0
 10
-1.45793
 20
53.6309
 11
-1.50021
 21
53.6774
  0
LINE
  8
0
 10
-1.50021
 20
53.6774
 11
-1.54102
 21
53.7251
  0
LINE
  8
0
 10
-1.54102
 20
53.7251
 11
-1.58031
 21
53.7742
  0
LINE
  8
0
 10
-1.58031
 20
53.7742
 11
-1.61803
 21
53.8244
  0
LINE
  8
0
 10
-1.61803
 20
53.8244
 11
-1.65416
 21
53.8758
  0
LINE
  8
0
 10
-1.65416
 20
53.8758
 11
-1.68864
 21
53.9283
  0
LINE
  8
0
 10
-1.68864
 20
53.9283
 11
-1.72148
 21
53.9819
  0
LINE
  8
0
 10
-1.72148
 20
53.9819
 11
-1.75261
 21
54.0365
  0
LINE
  8
0
 10
-1.75261
 20
54.0365
 11
-1.78201
 21
54.092
  0
LINE
  8
0
 10
-1.78201
 20
54.092
 11
-1.80965
 21
54.1484
  0
LINE
  8
0
 10
-1.80965
 20
54.1484
 11
-1.83549
 21
54.2057
  0
LINE
  8
0
 10
-1.83549
 20
54.2057
 11
-1.85954
 21
54.2637
  0
LINE
  8
0
 10
-1.85954
 20
54.2637
 11
-1.88176
 21
54.3225
  0
LINE
  8
0
 10
-1.88176
 20
54.3225
 11
-1.9021
 21
54.382
  0
LINE
  8
0
 10
-1.9021
 20
54.382
 11
-1.92058
 21
54.442
  0
LINE
  8
0
 10
-1.92058
 20
54.442
 11
-1.93716
 21
54.5026
  0
LINE
  8
0
 10
-1.93716
 20
54.5026
 11
-1.95183
 21
54.5637
  0
LINE
  8
0
 10
-1.95183
 20
54.5637
 11
-1.96457
 21
54.6252
  0
LINE
  8
0
 10
-1.96457
 20
54.6252
 11
-1.97537
 21
54.6871
  0
LINE
  8
0
 10
-1.97537
 20
54.6871
 11
-1.98422
 21
54.7493
  0
LINE
  8
0
 10
-1.98422
 20
54.7493
 11
-1.99112
 21
54.8118
  0
LINE
  8
0
 10
-1.99112
 20
54.8118
 11
-1.99605
 21
54.8744
  0
LINE
  8
0
 10
-1.99605
 20
54.8744
 11
-1.99901
 21
54.9372
  0
LINE
  8
0
 10
-1.99901
 20
54.9372
 11
-2
 21
55
  0
LINE
  8
0
 10
-2
 20
55
 11
-1.99901
 21
55.0628
  0
LINE
  8
0
 10
-1.99901
 20
55.0628
 11
-1.99605
 21
55.1256
  0
LINE
  8
0
 10
-1.99605
 20
55.1256
 11
-1.99112
 21
55.1882
  0
LINE
  8
0
 10
-1.99112
 20
55.1882
 11
-1.98422
 21
55.2507
  0
LINE
  8
0
 10
-1.98422
 20
55.2507
 11
-1.97537
 21
55.3129
  0
LINE
  8
0
 10
-1.97537
 20
55.3129
 11
-1.96457
 21
55.3748
  0
LINE
  8
0
 10
-1.96457
 20
55.3748
 11
-1.95183
 21
55.4363
  0
LINE
  8
0
 10
-1.95183
 20
55.4363
 11
-1.93716
 21
55.4974
  0
LINE
  8
0
 10
-1.93716
 20
55.4974
 11
-1.92058
 21
55.558
  0
LINE
  8
0
 10
-1.92058
 20
55.558
 11
-1.9021
 21
55.618
  0
LINE
  8
0
 10
-1.9021
 20
55.618
 11
-1.88176
 21
55.6775
  0
LINE
  8
0
 10
-1.88176
 20
55.6775
 11
-1.85954
 21
55.7362
  0
LINE
  8
0
 10
-1.85954
 20
55.7362
 11
-1.83549
 21
55.7943
  0
LINE
  8
0
 10
-1.83549
 20
55.7943
 11
-1.80965
 21
55.8515
  0
LINE
  8
0
 10
-1.80965
 20
55.8515
 11
-1.78201
 21
55.908
  0
LINE
  8
0
 10
-1.78201
 20
55.908
 11
-1.75261
 21
55.9635
  0
LINE
  8
0
 10
-1.75261
 20
55.9635
 11
-1.72148
 21
56.0181
  0
LINE
  8
0
 10
-1.72148
 20
56.0181
 11
-1.68864
 21
56.0716
  0
LINE
  8
0
 10
-1.68864
 20
56.0716
 11
-1.65416
 21
56.1242
  0
LINE
  8
0
 10
-1.65416
 20
56.1242
 11
-1.61803
 21
56.1756
  0
LINE
  8
0
 10
-1.61803
 20
56.1756
 11
-1.58031
 21
56.2258
  0
LINE
  8
0
 10
-1.58031
 20
56.2258
 11
-1.54102
 21
56.2748
  0
LINE
  8
0
 10
-1.54102
 20
56.2748
 11
-1.50021
 21
56.3226
  0
LINE
  8
0
 10
-1.50021
 20
56.3226
 11
-1.45793
 21
56.3691
  0
LINE
  8
0
 10
-1.45793
 20
56.3691
 11
-1.4142
 21
56.4142
  0
LINE
  8
0
 10
-1.4142
 20
56.4142
 11
-1.36908
 21
56.4579
  0
LINE
  8
0
 10
-1.36908
 20
56.4579
 11
-1.32262
 21
56.5002
  0
LINE
  8
0
 10
-1.32262
 20
56.5002
 11
-1.27484
 21
56.541
  0
LINE
  8
0
 10
-1.27484
 20
56.541
 11
-1.2258
 21
56.5803
  0
LINE
  8
0
 10
-1.2258
 20
56.5803
 11
-1.17557
 21
56.618
  0
LINE
  8
0
 10
-1.17557
 20
56.618
 11
-1.12416
 21
56.6542
  0
LINE
  8
0
 10
-1.12416
 20
56.6542
 11
-1.07164
 21
56.6886
  0
LINE
  8
0
 10
-1.07164
 20
56.6886
 11
-1.01808
 21
56.7215
  0
LINE
  8
0
 10
-1.01808
 20
56.7215
 11
-0.963501
 21
56.7526
  0
LINE
  8
0
 10
-0.963501
 20
56.7526
 11
-0.907974
 21
56.782
  0
LINE
  8
0
 10
-0.907974
 20
56.782
 11
-0.851547
 21
56.8096
  0
LINE
  8
0
 10
-0.851547
 20
56.8096
 11
-0.794281
 21
56.8355
  0
LINE
  8
0
 10
-0.794281
 20
56.8355
 11
-0.736237
 21
56.8595
  0
LINE
  8
0
 10
-0.736237
 20
56.8595
 11
-0.677475
 21
56.8818
  0
LINE
  8
0
 10
-0.677475
 20
56.8818
 11
-0.618027
 21
56.9021
  0
LINE
  8
0
 10
-0.618027
 20
56.9021
 11
-0.557968
 21
56.9206
  0
LINE
  8
0
 10
-0.557968
 20
56.9206
 11
-0.497375
 21
56.9372
  0
LINE
  8
0
 10
-0.497375
 20
56.9372
 11
-0.436279
 21
56.9518
  0
LINE
  8
0
 10
-0.436279
 20
56.9518
 11
-0.374756
 21
56.9646
  0
LINE
  8
0
 10
-0.374756
 20
56.9646
 11
-0.312866
 21
56.9754
  0
LINE
  8
0
 10
-0.312866
 20
56.9754
 11
-0.250656
 21
56.9842
  0
LINE
  8
0
 10
-0.250656
 20
56.9842
 11
-0.188202
 21
56.9911
  0
LINE
  8
0
 10
-0.188202
 20
56.9911
 11
-0.12558
 21
56.996
  0
LINE
  8
0
 10
-0.12558
 20
56.996
 11
-0.0628204
 21
56.999
  0
LINE
  8
0
 10
-0.0628204
 20
56.999
 11
0
 21
57
  0
LINE
  8
0
 10
0
 20
57
 11
0.0628204
 21
56.999
  0
LINE
  8
0
 10
0.0628204
 20
56.999
 11
0.12558
 21
56.996
  0
LINE
  8
0
 10
0.12558
 20
56.996
 11
0.188202
 21
56.9911
  0
LINE
  8
0
 10
0.188202
 20
56.9911
 11
0.250656
 21
56.9842
  0
LINE
  8
0
 10
0.250656
 20
56.9842
 11
0.312866
 21
56.9754
  0
LINE
  8
0
 10
0.312866
 20
56.9754
 11
0.374756
 21
56.9646
  0
LINE
  8
0
 10
0.374756
 20
56.9646
 11
0.436279
 21
56.9518
  0
LINE
  8
0
 10
0.436279
 20
56.9518
 11
0.497375
 21
56.9372
  0
LINE
  8
0
 10
0.497375
 20
56.9372
 11
0.557968
 21
56.9206
  0
LINE
  8
0
 10
0.557968
 20
56.9206
 11
0.618027
 21
56.9021
  0
LINE
  8
0
 10
0.618027
 20
56.9021
 11
0.677475
 21
56.8818
  0
LINE
  8
0
 10
0.677475
 20
56.8818
 11
0.736237
 21
56.8595
  0
LINE
  8
0
 10
0.736237
 20
56.8595
 11
0.794281
 21
56.8355
  0
LINE
  8
0
 10
0.794281
 20
56.8355
 11
0.851547
 21
56.8096
  0
LINE
  8
0
 10
0.851547
 20
56.8096
 11
0.907974
 21
56.782
  0
LINE
  8
0
 10
0.907974
 20
56.782
 11
0.963501
 21
56.7526
  0
LINE
  8
0
 10
0.963501
 20
56.7526
 11
1.01808
 21
56.7215
  0
LINE
  8
0
 10
1.01808
 20
56.7215
 11
1.07164
 21
56.6886
  0
LINE
  8
0
 10
1.07164
 20
56.6886
 11
1.12416
 21
56.6542
  0
LINE
  8
0
 10
1.12416
 20
56.6542
 11
1.17557
 21
56.618
  0
LINE
  8
0
 10
1.17557
 20
56.618
 11
1.2258
 21
56.5803
  0
LINE
  8
0
 10
1.2258
 20
56.5803
 11
1.27484
 21
56.541
  0
LINE
  8
0
 10
1.27484
 20
56.541
 11
1.32262
 21
56.5002
  0
LINE
  8
0
 10
1.32262
 20
56.5002
 11
1.36908
 21
56.4579
  0
LINE
  8
0
 10
1.36908
 20
56.4579
 11
1.4142
 21
56.4142
  0
LINE
  8
0
 10
1.4142
 20
56.4142
 11
1.45793
 21
56.3691
  0
LINE
  8
0
 10
1.45793
 20
56.3691
 11
1.50021
 21
56.3226
  0
LINE
  8
0
 10
1.50021
 20
56.3226
 11
1.54102
 21
56.2748
  0
LINE
  8
0
 10
1.54102
 20
56.2748
 11
1.58031
 21
56.2258
  0
LINE
  8
0
 10
1.58031
 20
56.2258
 11
1.61803
 21
56.1756
  0
LINE
  8
0
 10
1.61803
 20
56.1756
 11
1.65416
 21
56.1242
  0
LINE
  8
0
 10
1.65416
 20
56.1242
 11
1.68864
 21
56.0716
  0
LINE
  8
0
 10
1.68864
 20
56.0716
 11
1.72148
 21
56.0181
  0
LINE
  8
0
 10
1.72148
 20
56.0181
 11
1.75261
 21
55.9635
  0
LINE
  8
0
 10
1.75261
 20
55.9635
 11
1.78201
 21
55.908
  0
LINE
  8
0
 10
1.78201
 20
55.908
 11
1.80965
 21
55.8515
  0
LINE
  8
0
 10
1.80965
 20
55.8515
 11
1.83549
 21
55.7943
  0
LINE
  8
0
 10
1.83549
 20
55.7943
 11
1.85954
 21
55.7362
  0
LINE
  8
0
 10
1.85954
 20
55.7362
 11
1.88176
 21
55.6775
  0
LINE
  8
0
 10
1.88176
 20
55.6775
 11
1.9021
 21
55.618
  0
LINE
  8
0
 10
1.9021
 20
55.618
 11
1.92058
 21
55.558
  0
LINE
  8
0
 10
1.92058
 20
55.558
 11
1.93716
 21
55.4974
  0
LINE
  8
0
 10
1.93716
 20
55.4974
 11
1.95183
 21
55.4363
  0
LINE
  8
0
 10
1.95183
 20
55.4363
 11
1.96457
 21
55.3748
  0
LINE
  8
0
 10
1.96457
 20
55.3748
 11
1.97537
 21
55.3129
  0
LINE
  8
0
 10
1.97537
 20
55.3129
 11
1.98422
 21
55.2507
  0
LINE
  8
0
 10
1.98422
 20
55.2507
 11
1.99112
 21
55.1882
  0
LINE
  8
0
 10
1.99112
 20
55.1882
 11
1.99605
 21
55.1256
  0
LINE
  8
0
 10
1.99605
 20
55.1256
 11
1.99901
 21
55.0628
  0
LINE
  8
0
 10
1.99901
 20
55.0628
 11
2
 21
55
  0
LINE
  8
0
 10
2
 20
55
 11
1.99901
 21
54.9372
  0
LINE
  8
0
 10
1.99901
 20
54.9372
 11
1.99605
 21
54.8744
  0
LINE
  8
0
 10
1.99605
 20
54.8744
 11
1.99112
 21
54.8118
  0
LINE
  8
0
 10
1.99112
 20
54.8118
 11
1.98422
 21
54.7493
  0
LINE
  8
0
 10
1.98422
 20
54.7493
 11
1.97537
 21
54.6871
  0
LINE
  8
0
 10
1.97537
 20
54.6871
 11
1.96457
 21
54.6252
  0
LINE
  8
0
 10
1.96457
 20
54.6252
 11
1.95183
 21
54.5637
  0
LINE
  8
0
 10
1.95183
 20
54.5637
 11
1.93716
 21
54.5026
  0
LINE
  8
0
 10
1.93716
 20
54.5026
 11
1.92058
 21
54.442
  0
LINE
  8
0
 10
1.92058
 20
54.442
 11
1.9021
 21
54.382
  0
LINE
  8
0
 10
1.9021
 20
54.382
 11
1.88176
 21
54.3225
  0
LINE
  8
0
 10
1.88176
 20
54.3225
 11
1.85954
 21
54.2637
  0
LINE
  8
0
 10
1.85954
 20
54.2637
 11
1.83549
 21
54.2057
  0
LINE
  8
0
 10
1.83549
 20
54.2057
 11
1.80965
 21
54.1484
  0
LINE
  8
0
 10
1.80965
 20
54.1484
 11
1.78201
 21
54.092
  0
LINE
  8
0
 10
1.78201
 20
54.092
 11
1.75261
 21
54.0365
  0
LINE
  8
0
 10
1.75261
 20
54.0365
 11
1.72148
 21
53.9819
  0
LINE
  8
0
 10
1.72148
 20
53.9819
 11
1.68864
 21
53.9283
  0
LINE
  8
0
 10
1.68864
 20
53.9283
 11
1.65416
 21
53.8758
  0
LINE
  8
0
 10
1.65416
 20
53.8758
 11
1.61803
 21
53.8244
  0
LINE
  8
0
 10
1.61803
 20
53.8244
 11
1.58031
 21
53.7742
  0
LINE
  8
0
 10
1.58031
 20
53.7742
 11
1.54102
 21
53.7251
  0
LINE
  8
0
 10
1.54102
 20
53.7251
 11
1.50021
 21
53.6774
  0
LINE
  8
0
 10
1.50021
 20
53.6774
 11
1.45793
 21
53.6309
  0
LINE
  8
0
 10
1.45793
 20
53.6309
 11
1.4142
 21
53.5858
  0
LINE
  8
0
 10
1.4142
 20
53.5858
 11
1.36908
 21
53.5421
  0
LINE
  8
0
 10
1.36908
 20
53.5421
 11
1.32262
 21
53.4998
  0
LINE
  8
0
 10
1.32262
 20
53.4998
 11
1.27484
 21
53.459
  0
LINE
  8
0
 10
1.27484
 20
53.459
 11
1.2258
 21
53.4197
  0
LINE
  8
0
 10
1.2258
 20
53.4197
 11
1.17557
 21
53.382
  0
LINE
  8
0
 10
1.17557
 20
53.382
 11
1.12416
 21
53.3458
  0
LINE
  8
0
 10
1.12416
 20
53.3458
 11
1.07164
 21
53.3113
  0
LINE
  8
0
 10
1.07164
 20
53.3113
 11
1.01808
 21
53.2785
  0
LINE
  8
0
 10
1.01808
 20
53.2785
 11
0.963501
 21
53.2474
  0
LINE
  8
0
 10
0.963501
 20
53.2474
 11
0.907974
 21
53.218
  0
LINE
  8
0
 10
0.907974
 20
53.218
 11
0.851547
 21
53.1903
  0
LINE
  8
0
 10
0.851547
 20
53.1903
 11
0.794281
 21
53.1645
  0
LINE
  8
0
 10
0.794281
 20
53.1645
 11
0.736237
 21
53.1404
  0
LINE
  8
0
 10
0.736237
 20
53.1404
 11
0.677475
 21
53.1182
  0
LINE
  8
0
 10
0.677475
 20
53.1182
 11
0.618027
 21
53.0979
  0
LINE
  8
0
 10
0.618027
 20
53.0979
 11
0.557968
 21
53.0794
  0
LINE
  8
0
 10
0.557968
 20
53.0794
 11
0.497375
 21
53.0628
  0
LINE
  8
0
 10
0.497375
 20
53.0628
 11
0.436279
 21
53.0482
  0
LINE
  8
0
 10
0.436279
 20
53.0482
 11
0.374756
 21
53.0354
  0
LINE
  8
0
 10
0.374756
 20
53.0354
 11
0.312866
 21
53.0246
  0
LINE
  8
0
 10
0.312866
 20
53.0246
 11
0.250656
 21
53.0158
  0
LINE
  8
0
 10
0.250656
 20
53.0158
 11
0.188202
 21
53.0089
  0
LINE
  8
0
 10
0.188202
 20
53.0089
 11
0.12558
 21
53.0039
  0
LINE
  8
0
 10
0.12558
 20
53.0039
 11
0.0628204
 21
53.001
  0
LINE
  8
0
 10
0.0628204
 20
53.001
 11
0
 21
53
  0
LINE
  8
0
 10
0
 20
53
 11
-0.0628204
 21
53.001
  0
LINE
  8
0
 10
-50.0628
 20
53.001
 11
-50.1256
 21
53.0039
  0
LINE
  8
0
 10
-50.1256
 20
53.0039
 11
-50.1882
 21
53.0089
  0
LINE
  8
0
 10
-50.1882
 20
53.0089
 11
-50.2507
 21
53.0158
  0
LINE
  8
0
 10
-50.2507
 20
53.0158
 11
-50.3129
 21
53.0246
  0
LINE
  8
0
 10
-50.3129
 20
53.0246
 11
-50.3748
 21
53.0354
  0
LINE
  8
0
 10
-50.3748
 20
53.0354
 11
-50.4363
 21
53.0482
  0
LINE
  8
0
 10
-50.4363
 20
53.0482
 11
-50.4974
 21
53.0628
  0
LINE
  8
0
 10
-50.4974
 20
53.0628
 11
-50.558
 21
53.0794
  0
LINE
  8
0
 10
-50.558
 20
53.0794
 11
-50.618
 21
53.0979
  0
LINE
  8
0
 10
-50.618
 20
53.0979
 11
-50.6775
 21
53.1182
  0
LINE
  8
0
 10
-50.6775
 20
53.1182
 11
-50.7362
 21
53.1404
  0
LINE
  8
0
 10
-50.7362
 20
53.1404
 11
-50.7943
 21
53.1645
  0
LINE
  8
0
 10
-50.7943
 20
53.1645
 11
-50.8515
 21
53.1903
  0
LINE
  8
0
 10
-50.8515
 20
53.1903
 11
-50.908
 21
53.218
  0
LINE
  8
0
 10
-50.908
 20
53.218
 11
-50.9635
 21
53.2474
  0
LINE
  8
0
 10
-50.9635
 20
53.2474
 11
-51.0181
 21
53.2785
  0
LINE
  8
0
 10
-51.0181
 20
53.2785
 11
-51.0716
 21
53.3113
  0
LINE
  8
0
 10
-51.0716
 20
53.3113
 11
-51.1242
 21
53.3458
  0
LINE
  8
0
 10
-51.1242
 20
53.3458
 11
-51.1756
 21
53.382
  0
LINE
  8
0
 10
-51.1756
 20
53.382
 11
-51.2258
 21
53.4197
  0
LINE
  8
0
 10
-51.2258
 20
53.4197
 11
-51.2748
 21
53.459
  0
LINE
  8
0
 10
-51.2748
 20
53.459
 11
-51.3226
 21
53.4998
  0
LINE
  8
0
 10
-51.3226
 20
53.4998
 11
-51.3691
 21
53.5421
  0
LINE
  8
0
 10
-51.3691
 20
53.5421
 11
-51.4142
 21
53.5858
  0
LINE
  8
0
 10
-51.4142
 20
53.5858
 11
-51.4579
 21
53.6309
  0
LINE
  8
0
 10
-51.4579
 20
53.6309
 11
-51.5002
 21
53.6774
  0
LINE
  8
0
 10
-51.5002
 20
53.6774
 11
-51.541
 21
53.7251
  0
LINE
  8
0
 10
-51.541
 20
53.7251
 11
-51.5803
 21
53.7742
  0
LINE
  8
0
 10
-51.5803
 20
53.7742
 11
-51.618
 21
53.8244
  0
LINE
  8
0
 10
-51.618
 20
53.8244
 11
-51.6542
 21
53.8758
  0
LINE
  8
0
 10
-51.6542
 20
53.8758
 11
-51.6886
 21
53.9283
  0
LINE
  8
0
 10
-51.6886
 20
53.9283
 11
-51.7215
 21
53.9819
  0
LINE
  8
0
 10
-51.7215
 20
53.9819
 11
-51.7526
 21
54.0365
  0
LINE
  8
0
 10
-51.7526
 20
54.0365
 11
-51.782
 21
54.092
  0
LINE
  8
0
 10
-51.782
 20
54.092
 11
-51.8096
 21
54.1484
  0
LINE
  8
0
 10
-51.8096
 20
54.1484
 11
-51.8355
 21
54.2057
  0
LINE
  8
0
 10
-51.8355
 20
54.2057
 11
-51.8595
 21
54.2637
  0
LINE
  8
0
 10
-51.8595
 20
54.2637
 11
-51.8818
 21
54.3225
  0
LINE
  8
0
 10
-51.8818
 20
54.3225
 11
-51.9021
 21
54.382
  0
LINE
  8
0
 10
-51.9021
 20
54.382
 11
-51.9206
 21
54.442
  0
LINE
  8
0
 10
-51.9206
 20
54.442
 11
-51.9372
 21
54.5026
  0
LINE
  8
0
 10
-51.9372
 20
54.5026
 11
-51.9518
 21
54.5637
  0
LINE
  8
0
 10
-51.9518
 20
54.5637
 11
-51.9646
 21
54.6252
  0
LINE
  8
0
 10
-51.9646
 20
54.6252
 11
-51.9754
 21
54.6871
  0
LINE
  8
0
 10
-51.9754
 20
54.6871
 11
-51.9842
 21
54.7493
  0
LINE
  8
0
 10
-51.9842
 20
54.7493
 11
-51.9911
 21
54.8118
  0
LINE
  8
0
 10
-51.9911
 20
54.8118
 11
-51.996
 21
54.8744
  0
LINE
  8
0
 10
-51.996
 20
54.8744
 11
-51.999
 21
54.9372
  0
LINE
  8
0
 10
-51.999
 20
54.9372
 11
-52
 21
55
  0
LINE
  8
0
 10
-52
 20
55
 11
-51.999
 21
55.0628
  0
LINE
  8
0
 10
-51.999
 20
55.0628
 11
-51.996
 21
55.1256
  0
LINE
  8
0
 10
-51.996
 20
55.1256
 11
-51.9911
 21
55.1882
  0
LINE
  8
0
 10
-51.9911
 20
55.1882
 11
-51.9842
 21
55.2507
  0
LINE
  8
0
 10
-51.9842
 20
55.2507
 11
-51.9754
 21
55.3129
  0
LINE
  8
0
 10
-51.9754
 20
55.3129
 11
-51.9646
 21
55.3748
  0
LINE
  8
0
 10
-51.9646
 20
55.3748
 11
-51.9518
 21
55.4363
  0
LINE
  8
0
 10
-51.9518
 20
55.4363
 11
-51.9372
 21
55.4974
  0
LINE
  8
0
 10
-51.9372
 20
55.4974
 11
-51.9206
 21
55.558
  0
LINE
  8
0
 10
-51.9206
 20
55.558
 11
-51.9021
 21
55.618
  0
LINE
  8
0
 10
-51.9021
 20
55.618
 11
-51.8818
 21
55.6775
  0
LINE
  8
0
 10
-51.8818
 20
55.6775
 11
-51.8595
 21
55.7362
  0
LINE
  8
0
 10
-51.8595
 20
55.7362
 11
-51.8355
 21
55.7943
  0
LINE
  8
0
 10
-51.8355
 20
55.7943
 11
-51.8096
 21
55.8515
  0
LINE
  8
0
 10
-51.8096
 20
55.8515
 11
-51.782
 21
55.908
  0
LINE
  8
0
 10
-51.782
 20
55.908
 11
-51.7526
 21
55.9635
  0
LINE
  8
0
 10
-51.7526
 20
55.9635
 11
-51.7215
 21
56.0181
  0
LINE
  8
0
 10
-51.7215
 20
56.0181
 11
-51.6886
 21
56.0716
  0
LINE
  8
0
 10
-51.6886
 20
56.0716
 11
-51.6542
 21
56.1242
  0
LINE
  8
0
 10
-51.6542
 20
56.1242
 11
-51.618
 21
56.1756
  0
LINE
  8
0
 10
-51.618
 20
56.1756
 11
-51.5803
 21
56.2258
  0
LINE
  8
0
 10
-51.5803
 20
56.2258
 11
-51.541
 21
56.2748
  0
LINE
  8
0
 10
-51.541
 20
56.2748
 11
-51.5002
 21
56.3226
  0
LINE
  8
0
 10
-51.5002
 20
56.3226
 11
-51.4579
 21
56.3691
  0
LINE
  8
0
 10
-51.4579
 20
56.3691
 11
-51.4142
 21
56.4142
  0
LINE
  8
0
 10
-51.4142
 20
56.4142
 11
-51.3691
 21
56.4579
  0
LINE
  8
0
 10
-51.3691
 20
56.4579
 11
-51.3226
 21
56.5002
  0
LINE
  8
0
 10
-51.3226
 20
56.5002
 11
-51.2748
 21
56.541
  0
LINE
  8
0
 10
-51.2748
 20
56.541
 11
-51.2258
 21
56.5803
  0
LINE
  8
0
 10
-51.2258
 20
56.5803
 11
-51.1756
 21
56.618
  0
LINE
  8
0
 10
-51.1756
 20
56.618
 11
-51.1242
 21
56.6542
  0
LINE
  8
0
 10
-51.1242
 20
56.6542
 11
-51.0716
 21
56.6886
  0
LINE
  8
0
 10
-51.0716
 20
56.6886
 11
-51.0181
 21
56.7215
  0
LINE
  8
0
 10
-51.0181
 20
56.7215
 11
-50.9635
 21
56.7526
  0
LINE
  8
0
 10
-50.9635
 20
56.7526
 11
-50.908
 21
56.782
  0
LINE
  8
0
 10
-50.908
 20
56.782
 11
-50.8515
 21
56.8096
  0
LINE
  8
0
 10
-50.8515
 20
56.8096
 11
-50.7943
 21
56.8355
  0
LINE
  8
0
 10
-50.7943
 20
56.8355
 11
-50.7362
 21
56.8595
  0
LINE
  8
0
 10
-50.7362
 20
56.8595
 11
-50.6775
 21
56.8818
  0
LINE
  8
0
 10
-50.6775
 20
56.8818
 11
-50.618
 21
56.9021
  0
LINE
  8
0
 10
-50.618
 20
56.9021
 11
-50.558
 21
56.9206
  0
LINE
  8
0
 10
-50.558
 20
56.9206
 11
-50.4974
 21
56.9372
  0
LINE
  8
0
 10
-50.4974
 20
56.9372
 11
-50.4363
 21
56.9518
  0
LINE
  8
0
 10
-50.4363
 20
56.9518
 11
-50.3748
 21
56.9646
  0
LINE
  8
0
 10
-50.3748
 20
56.9646
 11
-50.3129
 21
56.9754
  0
LINE
  8
0
 10
-50.3129
 20
56.9754
 11
-50.2507
 21
56.9842
  0
LINE
  8
0
 10
-50.2507
 20
56.9842
 11
-50.1882
 21
56.9911
  0
LINE
  8
0
 10
-50.1882
 20
56.9911
 11
-50.1256
 21
56.996
  0
LINE
  8
0
 10
-50.1256
 20
56.996
 11
-50.0628
 21
56.999
  0
LINE
  8
0
 10
-50.0628
 20
56.999
 11
-50
 21
57
  0
LINE
  8
0
 10
-50
 20
57
 11
-49.9372
 21
56.999
  0
LINE
  8
0
 10
-49.9372
 20
56.999
 11
-49.8744
 21
56.996
  0
LINE
  8
0
 10
-49.8744
 20
56.996
 11
-49.8118
 21
56.9911
  0
LINE
  8
0
 10
-49.8118
 20
56.9911
 11
-49.7493
 21
56.9842
  0
LINE
  8
0
 10
-49.7493
 20
56.9842
 11
-49.6871
 21
56.9754
  0
LINE
  8
0
 10
-49.6871
 20
56.9754
 11
-49.6252
 21
56.9646
  0
LINE
  8
0
 10
-49.6252
 20
56.9646
 11
-49.5637
 21
56.9518
  0
LINE
  8
0
 10
-49.5637
 20
56.9518
 11
-49.5026
 21
56.9372
  0
LINE
  8
0
 10
-49.5026
 20
56.9372
 11
-49.442
 21
56.9206
  0
LINE
  8
0
 10
-49.442
 20
56.9206
 11
-49.382
 21
56.9021
  0
LINE
  8
0
 10
-49.382
 20
56.9021
 11
-49.3225
 21
56.8818
  0
LINE
  8
0
 10
-49.3225
 20
56.8818
 11
-49.2637
 21
56.8595
  0
LINE
  8
0
 10
-49.2637
 20
56.8595
 11
-49.2057
 21
56.8355
  0
LINE
  8
0
 10
-49.2057
 20
56.8355
 11
-49.1484
 21
56.8096
  0
LINE
  8
0
 10
-49.1484
 20
56.8096
 11
-49.092
 21
56.782
  0
LINE
  8
0
 10
-49.092
 20
56.782
 11
-49.0365
 21
56.7526
  0
LINE
  8
0
 10
-49.0365
 20
56.7526
 11
-48.9819
 21
56.7215
  0
LINE
  8
0
 10
-48.9819
 20
56.7215
 11
-48.9283
 21
56.6886
  0
LINE
  8
0
 10
-48.9283
 20
56.6886
 11
-48.8758
 21
56.6542
  0
LINE
  8
0
 10
-48.8758
 20
56.6542
 11
-48.8244
 21
56.618
  0
LINE
  8
0
 10
-48.8244
 20
56.618
 11
-48.7742
 21
56.5803
  0
LINE
  8
0
 10
-48.7742
 20
56.5803
 11
-48.7251
 21
56.541
  0
LINE
  8
0
 10
-48.7251
 20
56.541
 11
-48.6774
 21
56.5002
  0
LINE
  8
0
 10
-48.6774
 20
56.5002
 11
-48.6309
 21
56.4579
  0
LINE
  8
0
 10
-48.6309
 20
56.4579
 11
-48.5858
 21
56.4142
  0
LINE
  8
0
 10
-48.5858
 20
56.4142
 11
-48.5421
 21
56.3691
  0
LINE
  8
0
 10
-48.5421
 20
56.3691
 11
-48.4998
 21
56.3226
  0
LINE
  8
0
 10
-48.4998
 20
56.3226
 11
-48.459
 21
56.2748
  0
LINE
  8
0
 10
-48.459
 20
56.2748
 11
-48.4197
 21
56.2258
  0
LINE
  8
0
 10
-48.4197
 20
56.2258
 11
-48.382
 21
56.1756
  0
LINE
  8
0
 10
-48.382
 20
56.1756
 11
-48.3458
 21
56.1242
  0
LINE
  8
0
 10
-48.3458
 20
56.1242
 11
-48.3113
 21
56.0716
  0
LINE
  8
0
 10
-48.3113
 20
56.0716
 11
-48.2785
 21
56.0181
  0
LINE
  8
0
 10
-48.2785
 20
56.0181
 11
-48.2474
 21
55.9635
  0
LINE
  8
0
 10
-48.2474
 20
55.9635
 11
-48.218
 21
55.908
  0
LINE
  8
0
 10
-48.218
 20
55.908
 11
-48.1903
 21
55.8515
  0
LINE
  8
0
 10
-48.1903
 20
55.8515
 11
-48.1645
 21
55.7943
  0
LINE
  8
0
 10
-48.1645
 20
55.7943
 11
-48.1404
 21
55.7362
  0
LINE
  8
0
 10
-48.1404
 20
55.7362
 11
-48.1182
 21
55.6775
  0
LINE
  8
0
 10
-48.1182
 20
55.6775
 11
-48.0979
 21
55.618
  0
LINE
  8
0
 10
-48.0979
 20
55.618
 11
-48.0794
 21
55.558
  0
LINE
  8
0
 10
-48.0794
 20
55.558
 11
-48.0628
 21
55.4974
  0
LINE
  8
0
 10
-48.0628
 20
55.4974
 11
-48.0482
 21
55.4363
  0
LINE
  8
0
 10
-48.0482
 20
55.4363
 11
-48.0354
 21
55.3748
  0
LINE
  8
0
 10
-48.0354
 20
55.3748
 11
-48.0246
 21
55.3129
  0
LINE
  8
0
 10
-48.0246
 20
55.3129
 11
-48.0158
 21
55.2507
  0
LINE
  8
0
 10
-48.0158
 20
55.2507
 11
-48.0089
 21
55.1882
  0
LINE
  8
0
 10
-48.0089
 20
55.1882
 11
-48.0039
 21
55.1256
  0
LINE
  8
0
 10
-48.0039
 20
55.1256
 11
-48.001
 21
55.0628
  0
LINE
  8
0
 10
-48.001
 20
55.0628
 11
-48
 21
55
  0
LINE
  8
0
 10
-48
 20
55
 11
-48.001
 21
54.9372
  0
LINE
  8
0
 10
-48.001
 20
54.9372
 11
-48.0039
 21
54.8744
  0
LINE
  8
0
 10
-48.0039
 20
54.8744
 11
-48.0089
 21
54.8118
  0
LINE
  8
0
 10
-48.0089
 20
54.8118
 11
-48.0158
 21
54.7493
  0
LINE
  8
0
 10
-48.0158
 20
54.7493
 11
-48.0246
 21
54.6871
  0
LINE
  8
0
 10
-48.0246
 20
54.6871
 11
-48.0354
 21
54.6252
  0
LINE
  8
0
 10
-48.0354
 20
54.6252
 11
-48.0482
 21
54.5637
  0
LINE
  8
0
 10
-48.0482
 20
54.5637
 11
-48.0628
 21
54.5026
  0
LINE
  8
0
 10
-48.0628
 20
54.5026
 11
-48.0794
 21
54.442
  0
LINE
  8
0
 10
-48.0794
 20
54.442
 11
-48.0979
 21
54.382
  0
LINE
  8
0
 10
-48.0979
 20
54.382
 11
-48.1182
 21
54.3225
  0
LINE
  8
0
 10
-48.1182
 20
54.3225
 11
-48.1404
 21
54.2637
  0
LINE
  8
0
 10
-48.1404
 20
54.2637
 11
-48.1645
 21
54.2057
  0
LINE
  8
0
 10
-48.1645
 20
54.2057
 11
-48.1903
 21
54.1484
  0
LINE
  8
0
 10
-48.1903
 20
54.1484
 11
-48.218
 21
54.092
  0
LINE
  8
0
 10
-48.218
 20
54.092
 11
-48.2474
 21
54.0365
  0
LINE
  8
0
 10
-48.2474
 20
54.0365
 11
-48.2785
 21
53.9819
  0
LINE
  8
0
 10
-48.2785
 20
53.9819
 11
-48.3113
 21
53.9283
  0
LINE
  8
0
 10
-48.3113
 20
53.9283
 11
-48.3458
 21
53.8758
  0
LINE
  8
0
 10
-48.3458
 20
53.8758
 11
-48.382
 21
53.8244
  0
LINE
  8
0
 10
-48.382
 20
53.8244
 11
-48.4197
 21
53.7742
  0
LINE
  8
0
 10
-48.4197
 20
53.7742
 11
-48.459
 21
53.7251
  0
LINE
  8
0
 10
-48.459
 20
53.7251
 11
-48.4998
 21
53.6774
  0
LINE
  8
0
 10
-48.4998
 20
53.6774
 11
-48.5421
 21
53.6309
  0
LINE
  8
0
 10
-48.5421
 20
53.6309
 11
-48.5858
 21
53.5858
  0
LINE
  8
0
 10
-48.5858
 20
53.5858
 11
-48.6309
 21
53.5421
  0
LINE
  8
0
 10
-48.6309
 20
53.5421
 11
-48.6774
 21
53.4998
  0
LINE
  8
0
 10
-48.6774
 20
53.4998
 11
-48.7251
 21
53.459
  0
LINE
  8
0
 10
-48.7251
 20
53.459
 11
-48.7742
 21
53.4197
  0
LINE
  8
0
 10
-48.7742
 20
53.4197
 11
-48.8244
 21
53.382
  0
LINE
  8
0
 10
-48.8244
 20
53.382
 11
-48.8758
 21
53.3458
  0
LINE
  8
0
 10
-48.8758
 20
53.3458
 11
-48.9283
 21
53.3113
  0
LINE
  8
0
 10
-48.9283
 20
53.3113
 11
-48.9819
 21
53.2785
  0
LINE
  8
0
 10
-48.9819
 20
53.2785
 11
-49.0365
 21
53.2474
  0
LINE
  8
0
 10
-49.0365
 20
53.2474
 11
-49.092
 21
53.218
  0
LINE
  8
0
 10
-49.092
 20
53.218
 11
-49.1484
 21
53.1903
  0
LINE
  8
0
 10
-49.1484
 20
53.1903
 11
-49.2057
 21
53.1645
  0
LINE
  8
0
 10
-49.2057
 20
53.1645
 11
-49.2637
 21
53.1404
  0
LINE
  8
0
 10
-49.2637
 20
53.1404
 11
-49.3225
 21
53.1182
  0
LINE
  8
0
 10
-49.3225
 20
53.1182
 11
-49.382
 21
53.0979
  0
LINE
  8
0
 10
-49.382
 20
53.0979
 11
-49.442
 21
53.0794
  0
LINE
  8
0
 10
-49.442
 20
53.0794
 11
-49.5026
 21
53.0628
  0
LINE
  8
0
 10
-49.5026
 20
53.0628
 11
-49.5637
 21
53.0482
  0
LINE
  8
0
 10
-49.5637
 20
53.0482
 11
-49.6252
 21
53.0354
  0
LINE
  8
0
 10
-49.6252
 20
53.0354
 11
-49.6871
 21
53.0246
  0
LINE
  8
0
 10
-49.6871
 20
53.0246
 11
-49.7493
 21
53.0158
  0
LINE
  8
0
 10
-49.7493
 20
53.0158
 11
-49.8118
 21
53.0089
  0
LINE
  8
0
 10
-49.8118
 20
53.0089
 11
-49.8744
 21
53.0039
  0
LINE
  8
0
 10
-49.8744
 20
53.0039
 11
-49.9372
 21
53.001
  0
LINE
  8
0
 10
-49.9372
 20
53.001
 11
-50
 21
53
  0
LINE
  8
0
 10
-50
 20
53
 11
-50.0628
 21
53.001
  0
LINE
  8
0
 10
49.9372
 20
53.001
 11
49.8744
 21
53.0039
  0
LINE
  8
0
 10
49.8744
 20
53.0039
 11
49.8118
 21
53.0089
  0
LINE
  8
0
 10
49.8118
 20
53.0089
 11
49.7493
 21
53.0158
  0
LINE
  8
0
 10
49.7493
 20
53.0158
 11
49.6871
 21
53.0246
  0
LINE
  8
0
 10
49.6871
 20
53.0246
 11
49.6252
 21
53.0354
  0
LINE
  8
0
 10
49.6252
 20
53.0354
 11
49.5637
 21
53.0482
  0
LINE
  8
0
 10
49.5637
 20
53.0482
 11
49.5026
 21
53.0628
  0
LINE
  8
0
 10
49.5026
 20
53.0628
 11
49.442
 21
53.0794
  0
LINE
  8
0
 10
49.442
 20
53.0794
 11
49.382
 21
53.0979
  0
LINE
  8
0
 10
49.382
 20
53.0979
 11
49.3225
 21
53.1182
  0
LINE
  8
0
 10
49.3225
 20
53.1182
 11
49.2637
 21
53.1404
  0
LINE
  8
0
 10
49.2637
 20
53.1404
 11
49.2057
 21
53.1645
  0
LINE
  8
0
 10
49.2057
 20
53.1645
 11
49.1484
 21
53.1903
  0
LINE
  8
0
 10
49.1484
 20
53.1903
 11
49.092
 21
53.218
  0
LINE
  8
0
 10
49.092
 20
53.218
 11
49.0365
 21
53.2474
  0
LINE
  8
0
 10
49.0365
 20
53.2474
 11
48.9819
 21
53.2785
  0
LINE
  8
0
 10
48.9819
 20
53.2785
 11
48.9283
 21
53.3113
  0
LINE
  8
0
 10
48.9283
 20
53.3113
 11
48.8758
 21
53.3458
  0
LINE
  8
0
 10
48.8758
 20
53.3458
 11
48.8244
 21
53.382
  0
LINE
  8
0
 10
48.8244
 20
53.382
 11
48.7742
 21
53.4197
  0
LINE
  8
0
 10
48.7742
 20
53.4197
 11
48.7251
 21
53.459
  0
LINE
  8
0
 10
48.7251
 20
53.459
 11
48.6774
 21
53.4998
  0
LINE
  8
0
 10
48.6774
 20
53.4998
 11
48.6309
 21
53.5421
  0
LINE
  8
0
 10
48.6309
 20
53.5421
 11
48.5858
 21
53.5858
  0
LINE
  8
0
 10
48.5858
 20
53.5858
 11
48.5421
 21
53.6309
  0
LINE
  8
0
 10
48.5421
 20
53.6309
 11
48.4998
 21
53.6774
  0
LINE
  8
0
 10
48.4998
 20
53.6774
 11
48.459
 21
53.7251
  0
LINE
  8
0
 10
48.459
 20
53.7251
 11
48.4197
 21
53.7742
  0
LINE
  8
0
 10
48.4197
 20
53.7742
 11
48.382
 21
53.8244
  0
LINE
  8
0
 10
48.382
 20
53.8244
 11
48.3458
 21
53.8758
  0
LINE
  8
0
 10
48.3458
 20
53.8758
 11
48.3113
 21
53.9283
  0
LINE
  8
0
 10
48.3113
 20
53.9283
 11
48.2785
 21
53.9819
  0
LINE
  8
0
 10
48.2785
 20
53.9819
 11
48.2474
 21
54.0365
  0
LINE
  8
0
 10
48.2474
 20
54.0365
 11
48.218
 21
54.092
  0
LINE
  8
0
 10
48.218
 20
54.092
 11
48.1903
 21
54.1484
  0
LINE
  8
0
 10
48.1903
 20
54.1484
 11
48.1645
 21
54.2057
  0
LINE
  8
0
 10
48.1645
 20
54.2057
 11
48.1404
 21
54.2637
  0
LINE
  8
0
 10
48.1404
 20
54.2637
 11
48.1182
 21
54.3225
  0
LINE
  8
0
 10
48.1182
 20
54.3225
 11
48.0979
 21
54.382
  0
LINE
  8
0
 10
48.0979
 20
54.382
 11
48.0794
 21
54.442
  0
LINE
  8
0
 10
48.0794
 20
54.442
 11
48.0628
 21
54.5026
  0
LINE
  8
0
 10
48.0628
 20
54.5026
 11
48.0482
 21
54.5637
  0
LINE
  8
0
 10
48.0482
 20
54.5637
 11
48.0354
 21
54.6252
  0
LINE
  8
0
 10
48.0354
 20
54.6252
 11
48.0246
 21
54.6871
  0
LINE
  8
0
 10
48.0246
 20
54.6871
 11
48.0158
 21
54.7493
  0
LINE
  8
0
 10
48.0158
 20
54.7493
 11
48.0089
 21
54.8118
  0
LINE
  8
0
 10
48.0089
 20
54.8118
 11
48.0039
 21
54.8744
  0
LINE
  8
0
 10
48.0039
 20
54.8744
 11
48.001
 21
54.9372
  0
LINE
  8
0
 10
48.001
 20
54.9372
 11
48
 21
55
  0
LINE
  8
0
 10
48
 20
55
 11
48.001
 21
55.0628
  0
LINE
  8
0
 10
48.001
 20
55.0628
 11
48.0039
 21
55.1256
  0
LINE
  8
0
 10
48.0039
 20
55.1256
 11
48.0089
 21
55.1882
  0
LINE
  8
0
 10
48.0089
 20
55.1882
 11
48.0158
 21
55.2507
  0
LINE
  8
0
 10
48.0158
 20
55.2507
 11
48.0246
 21
55.3129
  0
LINE
  8
0
 10
48.0246
 20
55.3129
 11
48.0354
 21
55.3748
  0
LINE
  8
0
 10
48.0354
 20
55.3748
 11
48.0482
 21
55.4363
  0
LINE
  8
0
 10
48.0482
 20
55.4363
 11
48.0628
 21
55.4974
  0
LINE
  8
0
 10
48.0628
 20
55.4974
 11
48.0794
 21
55.558
  0
LINE
  8
0
 10
48.0794
 20
55.558
 11
48.0979
 21
55.618
  0
LINE
  8
0
 10
48.0979
 20
55.618
 11
48.1182
 21
55.6775
  0
LINE
  8
0
 10
48.1182
 20
55.6775
 11
48.1404
 21
55.7362
  0
LINE
  8
0
 10
48.1404
 20
55.7362
 11
48.1645
 21
55.7943
  0
LINE
  8
0
 10
48.1645
 20
55.7943
 11
48.1903
 21
55.8515
  0
LINE
  8
0
 10
48.1903
 20
55.8515
 11
48.218
 21
55.908
  0
LINE
  8
0
 10
48.218
 20
55.908
 11
48.2474
 21
55.9635
  0
LINE
  8
0
 10
48.2474
 20
55.9635
 11
48.2785
 21
56.0181
  0
LINE
  8
0
 10
48.2785
 20
56.0181
 11
48.3113
 21
56.0716
  0
LINE
  8
0
 10
48.3113
 20
56.0716
 11
48.3458
 21
56.1242
  0
LINE
  8
0
 10
48.3458
 20
56.1242
 11
48.382
 21
56.1756
  0
LINE
  8
0
 10
48.382
 20
56.1756
 11
48.4197
 21
56.2258
  0
LINE
  8
0
 10
48.4197
 20
56.2258
 11
48.459
 21
56.2748
  0
LINE
  8
0
 10
48.459
 20
56.2748
 11
48.4998
 21
56.3226
  0
LINE
  8
0
 10
48.4998
 20
56.3226
 11
48.5421
 21
56.3691
  0
LINE
  8
0
 10
48.5421
 20
56.3691
 11
48.5858
 21
56.4142
  0
LINE
  8
0
 10
48.5858
 20
56.4142
 11
48.6309
 21
56.4579
  0
LINE
  8
0
 10
48.6309
 20
56.4579
 11
48.6774
 21
56.5002
  0
LINE
  8
0
 10
48.6774
 20
56.5002
 11
48.7251
 21
56.541
  0
LINE
  8
0
 10
48.7251
 20
56.541
 11
48.7742
 21
56.5803
  0
LINE
  8
0
 10
48.7742
 20
56.5803
 11
48.8244
 21
56.618
  0
LINE
  8
0
 10
48.8244
 20
56.618
 11
48.8758
 21
56.6542
  0
LINE
  8
0
 10
48.8758
 20
56.6542
 11
48.9283
 21
56.6886
  0
LINE
  8
0
 10
48.9283
 20
56.6886
 11
48.9819
 21
56.7215
  0
LINE
  8
0
 10
48.9819
 20
56.7215
 11
49.0365
 21
56.7526
  0
LINE
  8
0
 10
49.0365
 20
56.7526
 11
49.092
 21
56.782
  0
LINE
  8
0
 10
49.092
 20
56.782
 11
49.1484
 21
56.8096
  0
LINE
  8
0
 10
49.1484
 20
56.8096
 11
49.2057
 21
56.8355
  0
LINE
  8
0
 10
49.2057
 20
56.8355
 11
49.2637
 21
56.8595
  0
LINE
  8
0
 10
49.2637
 20
56.8595
 11
49.3225
 21
56.8818
  0
LINE
  8
0
 10
49.3225
 20
56.8818
 11
49.382
 21
56.9021
  0
LINE
  8
0
 10
49.382
 20
56.9021
 11
49.442
 21
56.9206
  0
LINE
  8
0
 10
49.442
 20
56.9206
 11
49.5026
 21
56.9372
  0
LINE
  8
0
 10
49.5026
 20
56.9372
 11
49.5637
 21
56.9518
  0
LINE
  8
0
 10
49.5637
 20
56.9518
 11
49.6252
 21
56.9646
  0
LINE
  8
0
 10
49.6252
 20
56.9646
 11
49.6871
 21
56.9754
  0
LINE
  8
0
 10
49.6871
 20
56.9754
 11
49.7493
 21
56.9842
  0
LINE
  8
0
 10
49.7493
 20
56.9842
 11
49.8118
 21
56.9911
  0
LINE
  8
0
 10
49.8118
 20
56.9911
 11
49.8744
 21
56.996
  0
LINE
  8
0
 10
49.8744
 20
56.996
 11
49.9372
 21
56.999
  0
LINE
  8
0
 10
49.9372
 20
56.999
 11
50
 21
57
  0
LINE
  8
0
 10
50
 20
57
 11
50.0628
 21
56.999
  0
LINE
  8
0
 10
50.0628
 20
56.999
 11
50.1256
 21
56.996
  0
LINE
  8
0
 10
50.1256
 20
56.996
 11
50.1882
 21
56.9911
  0
LINE
  8
0
 10
50.1882
 20
56.9911
 11
50.2507
 21
56.9842
  0
LINE
  8
0
 10
50.2507
 20
56.9842
 11
50.3129
 21
56.9754
  0
LINE
  8
0
 10
50.3129
 20
56.9754
 11
50.3748
 21
56.9646
  0
LINE
  8
0
 10
50.3748
 20
56.9646
 11
50.4363
 21
56.9518
  0
LINE
  8
0
 10
50.4363
 20
56.9518
 11
50.4974
 21
56.9372
  0
LINE
  8
0
 10
50.4974
 20
56.9372
 11
50.558
 21
56.9206
  0
LINE
  8
0
 10
50.558
 20
56.9206
 11
50.618
 21
56.9021
  0
LINE
  8
0
 10
50.618
 20
56.9021
 11
50.6775
 21
56.8818
  0
LINE
  8
0
 10
50.6775
 20
56.8818
 11
50.7362
 21
56.8595
  0
LINE
  8
0
 10
50.7362
 20
56.8595
 11
50.7943
 21
56.8355
  0
LINE
  8
0
 10
50.7943
 20
56.8355
 11
50.8515
 21
56.8096
  0
LINE
  8
0
 10
50.8515
 20
56.8096
 11
50.908
 21
56.782
  0
LINE
  8
0
 10
50.908
 20
56.782
 11
50.9635
 21
56.7526
  0
LINE
  8
0
 10
50.9635
 20
56.7526
 11
51.0181
 21
56.7215
  0
LINE
  8
0
 10
51.0181
 20
56.7215
 11
51.0716
 21
56.6886
  0
LINE
  8
0
 10
51.0716
 20
56.6886
 11
51.1242
 21
56.6542
  0
LINE
  8
0
 10
51.1242
 20
56.6542
 11
51.1756
 21
56.618
  0
LINE
  8
0
 10
51.1756
 20
56.618
 11
51.2258
 21
56.5803
  0
LINE
  8
0
 10
51.2258
 20
56.5803
 11
51.2748
 21
56.541
  0
LINE
  8
0
 10
51.2748
 20
56.541
 11
51.3226
 21
56.5002
  0
LINE
  8
0
 10
51.3226
 20
56.5002
 11
51.3691
 21
56.4579
  0
LINE
  8
0
 10
51.3691
 20
56.4579
 11
51.4142
 21
56.4142
  0
LINE
  8
0
 10
51.4142
 20
56.4142
 11
51.4579
 21
56.3691
  0
LINE
  8
0
 10
51.4579
 20
56.3691
 11
51.5002
 21
56.3226
  0
LINE
  8
0
 10
51.5002
 20
56.3226
 11
51.541
 21
56.2748
  0
LINE
  8
0
 10
51.541
 20
56.2748
 11
51.5803
 21
56.2258
  0
LINE
  8
0
 10
51.5803
 20
56.2258
 11
51.618
 21
56.1756
  0
LINE
  8
0
 10
51.618
 20
56.1756
 11
51.6542
 21
56.1242
  0
LINE
  8
0
 10
51.6542
 20
56.1242
 11
51.6886
 21
56.0716
  0
LINE
  8
0
 10
51.6886
 20
56.0716
 11
51.7215
 21
56.0181
  0
LINE
  8
0
 10
51.7215
 20
56.0181
 11
51.7526
 21
55.9635
  0
LINE
  8
0
 10
51.7526
 20
55.9635
 11
51.782
 21
55.908
  0
LINE
  8
0
 10
51.782
 20
55.908
 11
51.8096
 21
55.8515
  0
LINE
  8
0
 10
51.8096
 20
55.8515
 11
51.8355
 21
55.7943
  0
LINE
  8
0
 10
51.8355
 20
55.7943
 11
51.8595
 21
55.7362
  0
LINE
  8
0
 10
51.8595
 20
55.7362
 11
51.8818
 21
55.6775
  0
LINE
  8
0
 10
51.8818
 20
55.6775
 11
51.9021
 21
55.618
  0
LINE
  8
0
 10
51.9021
 20
55.618
 11
51.9206
 21
55.558
  0
LINE
  8
0
 10
51.9206
 20
55.558
 11
51.9372
 21
55.4974
  0
LINE
  8
0
 10
51.9372
 20
55.4974
 11
51.9518
 21
55.4363
  0
LINE
  8
0
 10
51.9518
 20
55.4363
 11
51.9646
 21
55.3748
  0
LINE
  8
0
 10
51.9646
 20
55.3748
 11
51.9754
 21
55.3129
  0
LINE
  8
0
 10
51.9754
 20
55.3129
 11
51.9842
 21
55.2507
  0
LINE
  8
0
 10
51.9842
 20
55.2507
 11
51.9911
 21
55.1882
  0
LINE
  8
0
 10
51.9911
 20
55.1882
 11
51.996
 21
55.1256
  0
LINE
  8
0
 10
51.996
 20
55.1256
 11
51.999
 21
55.0628
  0
LINE
  8
0
 10
51.999
 20
55.0628
 11
52
 21
55
  0
LINE
  8
0
 10
52
 20
55
 11
51.999
 21
54.9372
  0
LINE
  8
0
 10
51.999
 20
54.9372
 11
51.996
 21
54.8744
  0
LINE
  8
0
 10
51.996
 20
54.8744
 11
51.9911
 21
54.8118
  0
LINE
  8
0
 10
51.9911
 20
54.8118
 11
51.9842
 21
54.7493
  0
LINE
  8
0
 10
51.9842
 20
54.7493
 11
51.9754
 21
54.6871
  0
LINE
  8
0
 10
51.9754
 20
54.6871
 11
51.9646
 21
54.6252
  0
LINE
  8
0
 10
51.9646
 20
54.6252
 11
51.9518
 21
54.5637
  0
LINE
  8
0
 10
51.9518
 20
54.5637
 11
51.9372
 21
54.5026
  0
LINE
  8
0
 10
51.9372
 20
54.5026
 11
51.9206
 21
54.442
  0
LINE
  8
0
 10
51.9206
 20
54.442
 11
51.9021
 21
54.382
  0
LINE
  8
0
 10
51.9021
 20
54.382
 11
51.8818
 21
54.3225
  0
LINE
  8
0
 10
51.8818
 20
54.3225
 11
51.8595
 21
54.2637
  0
LINE
  8
0
 10
51.8595
 20
54.2637
 11
51.8355
 21
54.2057
  0
LINE
  8
0
 10
51.8355
 20
54.2057
 11
51.8096
 21
54.1484
  0
LINE
  8
0
 10
51.8096
 20
54.1484
 11
51.782
 21
54.092
  0
LINE
  8
0
 10
51.782
 20
54.092
 11
51.7526
 21
54.0365
  0
LINE
  8
0
 10
51.7526
 20
54.0365
 11
51.7215
 21
53.9819
  0
LINE
  8
0
 10
51.7215
 20
53.9819
 11
51.6886
 21
53.9283
  0
LINE
  8
0
 10
51.6886
 20
53.9283
 11
51.6542
 21
53.8758
  0
LINE
  8
0
 10
51.6542
 20
53.8758
 11
51.618
 21
53.8244
  0
LINE
  8
0
 10
51.618
 20
53.8244
 11
51.5803
 21
53.7742
  0
LINE
  8
0
 10
51.5803
 20
53.7742
 11
51.541
 21
53.7251
  0
LINE
  8
0
 10
51.541
 20
53.7251
 11
51.5002
 21
53.6774
  0
LINE
  8
0
 10
51.5002
 20
53.6774
 11
51.4579
 21
53.6309
  0
LINE
  8
0
 10
51.4579
 20
53.6309
 11
51.4142
 21
53.5858
  0
LINE
  8
0
 10
51.4142
 20
53.5858
 11
51.3691
 21
53.5421
  0
LINE
  8
0
 10
51.3691
 20
53.5421
 11
51.3226
 21
53.4998
  0
LINE
  8
0
 10
51.3226
 20
53.4998
 11
51.2748
 21
53.459
  0
LINE
  8
0
 10
51.2748
 20
53.459
 11
51.2258
 21
53.4197
  0
LINE
  8
0
 10
51.2258
 20
53.4197
 11
51.1756
 21
53.382
  0
LINE
  8
0
 10
51.1756
 20
53.382
 11
51.1242
 21
53.3458
  0
LINE
  8
0
 10
51.1242
 20
53.3458
 11
51.0716
 21
53.3113
  0
LINE
  8
0
 10
51.0716
 20
53.3113
 11
51.0181
 21
53.2785
  0
LINE
  8
0
 10
51.0181
 20
53.2785
 11
50.9635
 21
53.2474
  0
LINE
  8
0
 10
50.9635
 20
53.2474
 11
50.908
 21
53.218
  0
LINE
  8
0
 10
50.908
 20
53.218
 11
50.8515
 21
53.1903
  0
LINE
  8
0
 10
50.8515
 20
53.1903
 11
50.7943
 21
53.1645
  0
LINE
  8
0
 10
50.7943
 20
53.1645
 11
50.7362
 21
53.1404
  0
LINE
  8
0
 10
50.7362
 20
53.1404
 11
50.6775
 21
53.1182
  0
LINE
  8
0
 10
50.6775
 20
53.1182
 11
50.618
 21
53.0979
  0
LINE
  8
0
 10
50.618
 20
53.0979
 11
50.558
 21
53.0794
  0
LINE
  8
0
 10
50.558
 20
53.0794
 11
50.4974
 21
53.0628
  0
LINE
  8
0
 10
50.4974
 20
53.0628
 11
50.4363
 21
53.0482
  0
LINE
  8
0
 10
50.4363
 20
53.0482
 11
50.3748
 21
53.0354
  0
LINE
  8
0
 10
50.3748
 20
53.0354
 11
50.3129
 21
53.0246
  0
LINE
  8
0
 10
50.3129
 20
53.0246
 11
50.2507
 21
53.0158
  0
LINE
  8
0
 10
50.2507
 20
53.0158
 11
50.1882
 21
53.0089
  0
LINE
  8
0
 10
50.1882
 20
53.0089
 11
50.1256
 21
53.0039
  0
LINE
  8
0
 10
50.1256
 20
53.0039
 11
50.0628
 21
53.001
  0
LINE
  8
0
 10
50.0628
 20
53.001
 11
50
 21
53
  0
LINE
  8
0
 10
50
 20
53
 11
49.9372
 21
53.001
  0
LINE
  8
0
 10
-80.0628
 20
23.001
 11
-80.1256
 21
23.0039
  0
LINE
  8
0
 10
-80.1256
 20
23.0039
 11
-80.1882
 21
23.0089
  0
LINE
  8
0
 10
-80.1882
 20
23.0089
 11
-80.2507
 21
23.0158
  0
LINE
  8
0
 10
-80.2507
 20
23.0158
 11
-80.3129
 21
23.0246
  0
LINE
  8
0
 10
-80.3129
 20
23.0246
 11
-80.3748
 21
23.0354
  0
LINE
  8
0
 10
-80.3748
 20
23.0354
 11
-80.4363
 21
23.0482
  0
LINE
  8
0
 10
-80.4363
 20
23.0482
 11
-80.4974
 21
23.0628
  0
LINE
  8
0
 10
-80.4974
 20
23.0628
 11
-80.558
 21
23.0794
  0
LINE
  8
0
 10
-80.558
 20
23.0794
 11
-80.618
 21
23.0979
  0
LINE
  8
0
 10
-80.618
 20
23.0979
 11
-80.6775
 21
23.1182
  0
LINE
  8
0
 10
-80.6775
 20
23.1182
 11
-80.7362
 21
23.1404
  0
LINE
  8
0
 10
-80.7362
 20
23.1404
 11
-80.7943
 21
23.1645
  0
LINE
  8
0
 10
-80.7943
 20
23.1645
 11
-80.8515
 21
23.1903
  0
LINE
  8
0
 10
-80.8515
 20
23.1903
 11
-80.908
 21
23.218
  0
LINE
  8
0
 10
-80.908
 20
23.218
 11
-80.9635
 21
23.2474
  0
LINE
  8
0
 10
-80.9635
 20
23.2474
 11
-81.0181
 21
23.2785
  0
LINE
  8
0
 10
-81.0181
 20
23.2785
 11
-81.0716
 21
23.3113
  0
LINE
  8
0
 10
-81.0716
 20
23.3113
 11
-81.1242
 21
23.3458
  0
LINE
  8
0
 10
-81.1242
 20
23.3458
 11
-81.1756
 21
23.382
  0
LINE
  8
0
 10
-81.1756
 20
23.382
 11
-81.2258
 21
23.4197
  0
LINE
  8
0
 10
-81.2258
 20
23.4197
 11
-81.2748
 21
23.459
  0
LINE
  8
0
 10
-81.2748
 20
23.459
 11
-81.3226
 21
23.4998
  0
LINE
  8
0
 10
-81.3226
 20
23.4998
 11
-81.3691
 21
23.5421
  0
LINE
  8
0
 10
-81.3691
 20
23.5421
 11
-81.4142
 21
23.5858
  0
LINE
  8
0
 10
-81.4142
 20
23.5858
 11
-81.4579
 21
23.6309
  0
LINE
  8
0
 10
-81.4579
 20
23.6309
 11
-81.5002
 21
23.6774
  0
LINE
  8
0
 10
-81.5002
 20
23.6774
 11
-81.541
 21
23.7251
  0
LINE
  8
0
 10
-81.541
 20
23.7251
 11
-81.5803
 21
23.7742
  0
LINE
  8
0
 10
-81.5803
 20
23.7742
 11
-81.618
 21
23.8244
  0
LINE
  8
0
 10
-81.618
 20
23.8244
 11
-81.6542
 21
23.8758
  0
LINE
  8
0
 10
-81.6542
 20
23.8758
 11
-81.6886
 21
23.9283
  0
LINE
  8
0
 10
-81.6886
 20
23.9283
 11
-81.7215
 21
23.9819
  0
LINE
  8
0
 10
-81.7215
 20
23.9819
 11
-81.7526
 21
24.0365
  0
LINE
  8
0
 10
-81.7526
 20
24.0365
 11
-81.782
 21
24.092
  0
LINE
  8
0
 10
-81.782
 20
24.092
 11
-81.8096
 21
24.1484
  0
LINE
  8
0
 10
-81.8096
 20
24.1484
 11
-81.8355
 21
24.2057
  0
LINE
  8
0
 10
-81.8355
 20
24.2057
 11
-81.8595
 21
24.2637
  0
LINE
  8
0
 10
-81.8595
 20
24.2637
 11
-81.8818
 21
24.3225
  0
LINE
  8
0
 10
-81.8818
 20
24.3225
 11
-81.9021
 21
24.382
  0
LINE
  8
0
 10
-81.9021
 20
24.382
 11
-81.9206
 21
24.442
  0
LINE
  8
0
 10
-81.9206
 20
24.442
 11
-81.9372
 21
24.5026
  0
LINE
  8
0
 10
-81.9372
 20
24.5026
 11
-81.9518
 21
24.5637
  0
LINE
  8
0
 10
-81.9518
 20
24.5637
 11
-81.9646
 21
24.6252
  0
LINE
  8
0
 10
-81.9646
 20
24.6252
 11
-81.9754
 21
24.6871
  0
LINE
  8
0
 10
-81.9754
 20
24.6871
 11
-81.9842
 21
24.7493
  0
LINE
  8
0
 10
-81.9842
 20
24.7493
 11
-81.9911
 21
24.8118
  0
LINE
  8
0
 10
-81.9911
 20
24.8118
 11
-81.996
 21
24.8744
  0
LINE
  8
0
 10
-81.996
 20
24.8744
 11
-81.999
 21
24.9372
  0
LINE
  8
0
 10
-81.999
 20
24.9372
 11
-82
 21
25
  0
LINE
  8
0
 10
-82
 20
25
 11
-81.999
 21
25.0628
  0
LINE
  8
0
 10
-81.999
 20
25.0628
 11
-81.996
 21
25.1256
  0
LINE
  8
0
 10
-81.996
 20
25.1256
 11
-81.9911
 21
25.1882
  0
LINE
  8
0
 10
-81.9911
 20
25.1882
 11
-81.9842
 21
25.2507
  0
LINE
  8
0
 10
-81.9842
 20
25.2507
 11
-81.9754
 21
25.3129
  0
LINE
  8
0
 10
-81.9754
 20
25.3129
 11
-81.9646
 21
25.3748
  0
LINE
  8
0
 10
-81.9646
 20
25.3748
 11
-81.9518
 21
25.4363
  0
LINE
  8
0
 10
-81.9518
 20
25.4363
 11
-81.9372
 21
25.4974
  0
LINE
  8
0
 10
-81.9372
 20
25.4974
 11
-81.9206
 21
25.558
  0
LINE
  8
0
 10
-81.9206
 20
25.558
 11
-81.9021
 21
25.618
  0
LINE
  8
0
 10
-81.9021
 20
25.618
 11
-81.8818
 21
25.6775
  0
LINE
  8
0
 10
-81.8818
 20
25.6775
 11
-81.8595
 21
25.7362
  0
LINE
  8
0
 10
-81.8595
 20
25.7362
 11
-81.8355
 21
25.7943
  0
LINE
  8
0
 10
-81.8355
 20
25.7943
 11
-81.8096
 21
25.8515
  0
LINE
  8
0
 10
-81.8096
 20
25.8515
 11
-81.782
 21
25.908
  0
LINE
  8
0
 10
-81.782
 20
25.908
 11
-81.7526
 21
25.9635
  0
LINE
  8
0
 10
-81.7526
 20
25.9635
 11
-81.7215
 21
26.0181
  0
LINE
  8
0
 10
-81.7215
 20
26.0181
 11
-81.6886
 21
26.0716
  0
LINE
  8
0
 10
-81.6886
 20
26.0716
 11
-81.6542
 21
26.1242
  0
LINE
  8
0
 10
-81.6542
 20
26.1242
 11
-81.618
 21
26.1756
  0
LINE
  8
0
 10
-81.618
 20
26.1756
 11
-81.5803
 21
26.2258
  0
LINE
  8
0
 10
-81.5803
 20
26.2258
 11
-81.541
 21
26.2748
  0
LINE
  8
0
 10
-81.541
 20
26.2748
 11
-81.5002
 21
26.3226
  0
LINE
  8
0
 10
-81.5002
 20
26.3226
 11
-81.4579
 21
26.3691
  0
LINE
  8
0
 10
-81.4579
 20
26.3691
 11
-81.4142
 21
26.4142
  0
LINE
  8
0
 10
-81.4142
 20
26.4142
 11
-81.3691
 21
26.4579
  0
LINE
  8
0
 10
-81.3691
 20
26.4579
 11
-81.3226
 21
26.5002
  0
LINE
  8
0
 10
-81.3226
 20
26.5002
 11
-81.2748
 21
26.541
  0
LINE
  8
0
 10
-81.2748
 20
26.541
 11
-81.2258
 21
26.5803
  0
LINE
  8
0
 10
-81.2258
 20
26.5803
 11
-81.1756
 21
26.618
  0
LINE
  8
0
 10
-81.1756
 20
26.618
 11
-81.1242
 21
26.6542
  0
LINE
  8
0
 10
-81.1242
 20
26.6542
 11
-81.0716
 21
26.6886
  0
LINE
  8
0
 10
-81.0716
 20
26.6886
 11
-81.0181
 21
26.7215
  0
LINE
  8
0
 10
-81.0181
 20
26.7215
 11
-80.9635
 21
26.7526
  0
LINE
  8
0
 10
-80.9635
 20
26.7526
 11
-80.908
 21
26.782
  0
LINE
  8
0
 10
-80.908
 20
26.782
 11
-80.8515
 21
26.8096
  0
LINE
  8
0
 10
-80.8515
 20
26.8096
 11
-80.7943
 21
26.8355
  0
LINE
  8
0
 10
-80.7943
 20
26.8355
 11
-80.7362
 21
26.8595
  0
LINE
  8
0
 10
-80.7362
 20
26.8595
 11
-80.6775
 21
26.8818
  0
LINE
  8
0
 10
-80.6775
 20
26.8818
 11
-80.618
 21
26.9021
  0
LINE
  8
0
 10
-80.618
 20
26.9021
 11
-80.558
 21
26.9206
  0
LINE
  8
0
 10
-80.558
 20
26.9206
 11
-80.4974
 21
26.9372
  0
LINE
  8
0
 10
-80.4974
 20
26.9372
 11
-80.4363
 21
26.9518
  0
LINE
  8
0
 10
-80.4363
 20
26.9518
 11
-80.3748
 21
26.9646
  0
LINE
  8
0
 10
-80.3748
 20
26.9646
 11
-80.3129
 21
26.9754
  0
LINE
  8
0
 10
-80.3129
 20
26.9754
 11
-80.2507
 21
26.9842
  0
LINE
  8
0
 10
-80.2507
 20
26.9842
 11
-80.1882
 21
26.9911
  0
LINE
  8
0
 10
-80.1882
 20
26.9911
 11
-80.1256
 21
26.996
  0
LINE
  8
0
 10
-80.1256
 20
26.996
 11
-80.0628
 21
26.999
  0
LINE
  8
0
 10
-80.0628
 20
26.999
 11
-80
 21
27
  0
LINE
  8
0
 10
-80
 20
27
 11
-79.9372
 21
26.999
  0
LINE
  8
0
 10
-79.9372
 20
26.999
 11
-79.8744
 21
26.996
  0
LINE
  8
0
 10
-79.8744
 20
26.996
 11
-79.8118
 21
26.9911
  0
LINE
  8
0
 10
-79.8118
 20
26.9911
 11
-79.7493
 21
26.9842
  0
LINE
  8
0
 10
-79.7493
 20
26.9842
 11
-79.6871
 21
26.9754
  0
LINE
  8
0
 10
-79.6871
 20
26.9754
 11
-79.6252
 21
26.9646
  0
LINE
  8
0
 10
-79.6252
 20
26.9646
 11
-79.5637
 21
26.9518
  0
LINE
  8
0
 10
-79.5637
 20
26.9518
 11
-79.5026
 21
26.9372
  0
LINE
  8
0
 10
-79.5026
 20
26.9372
 11
-79.442
 21
26.9206
  0
LINE
  8
0
 10
-79.442
 20
26.9206
 11
-79.382
 21
26.9021
  0
LINE
  8
0
 10
-79.382
 20
26.9021
 11
-79.3225
 21
26.8818
  0
LINE
  8
0
 10
-79.3225
 20
26.8818
 11
-79.2637
 21
26.8595
  0
LINE
  8
0
 10
-79.2637
 20
26.8595
 11
-79.2057
 21
26.8355
  0
LINE
  8
0
 10
-79.2057
 20
26.8355
 11
-79.1484
 21
26.8096
  0
LINE
  8
0
 10
-79.1484
 20
26.8096
 11
-79.092
 21
26.782
  0
LINE
  8
0
 10
-79.092
 20
26.782
 11
-79.0365
 21
26.7526
  0
LINE
  8
0
 10
-79.0365
 20
26.7526
 11
-78.9819
 21
26.7215
  0
LINE
  8
0
 10
-78.9819
 20
26.7215
 11
-78.9283
 21
26.6886
  0
LINE
  8
0
 10
-78.9283
 20
26.6886
 11
-78.8758
 21
26.6542
  0
LINE
  8
0
 10
-78.8758
 20
26.6542
 11
-78.8244
 21
26.618
  0
LINE
  8
0
 10
-78.8244
 20
26.618
 11
-78.7742
 21
26.5803
  0
LINE
  8
0
 10
-78.7742
 20
26.5803
 11
-78.7251
 21
26.541
  0
LINE
  8
0
 10
-78.7251
 20
26.541
 11
-78.6774
 21
26.5002
  0
LINE
  8
0
 10
-78.6774
 20
26.5002
 11
-78.6309
 21
26.4579
  0
LINE
  8
0
 10
-78.6309
 20
26.4579
 11
-78.5858
 21
26.4142
  0
LINE
  8
0
 10
-78.5858
 20
26.4142
 11
-78.5421
 21
26.3691
  0
LINE
  8
0
 10
-78.5421
 20
26.3691
 11
-78.4998
 21
26.3226
  0
LINE
  8
0
 10
-78.4998
 20
26.3226
 11
-78.459
 21
26.2748
  0
LINE
  8
0
 10
-78.459
 20
26.2748
 11
-78.4197
 21
26.2258
  0
LINE
  8
0
 10
-78.4197
 20
26.2258
 11
-78.382
 21
26.1756
  0
LINE
  8
0
 10
-78.382
 20
26.1756
 11
-78.3458
 21
26.1242
  0
LINE
  8
0
 10
-78.3458
 20
26.1242
 11
-78.3113
 21
26.0716
  0
LINE
  8
0
 10
-78.3113
 20
26.0716
 11
-78.2785
 21
26.0181
  0
LINE
  8
0
 10
-78.2785
 20
26.0181
 11
-78.2474
 21
25.9635
  0
LINE
  8
0
 10
-78.2474
 20
25.9635
 11
-78.218
 21
25.908
  0
LINE
  8
0
 10
-78.218
 20
25.908
 11
-78.1903
 21
25.8515
  0
LINE
  8
0
 10
-78.1903
 20
25.8515
 11
-78.1645
 21
25.7943
  0
LINE
  8
0
 10
-78.1645
 20
25.7943
 11
-78.1404
 21
25.7362
  0
LINE
  8
0
 10
-78.1404
 20
25.7362
 11
-78.1182
 21
25.6775
  0
LINE
  8
0
 10
-78.1182
 20
25.6775
 11
-78.0979
 21
25.618
  0
LINE
  8
0
 10
-78.0979
 20
25.618
 11
-78.0794
 21
25.558
  0
LINE
  8
0
 10
-78.0794
 20
25.558
 11
-78.0628
 21
25.4974
  0
LINE
  8
0
 10
-78.0628
 20
25.4974
 11
-78.0482
 21
25.4363
  0
LINE
  8
0
 10
-78.0482
 20
25.4363
 11
-78.0354
 21
25.3748
  0
LINE
  8
0
 10
-78.0354
 20
25.3748
 11
-78.0246
 21
25.3129
  0
LINE
  8
0
 10
-78.0246
 20
25.3129
 11
-78.0158
 21
25.2507
  0
LINE
  8
0
 10
-78.0158
 20
25.2507
 11
-78.0089
 21
25.1882
  0
LINE
  8
0
 10
-78.0089
 20
25.1882
 11
-78.0039
 21
25.1256
  0
LINE
  8
0
 10
-78.0039
 20
25.1256
 11
-78.001
 21
25.0628
  0
LINE
  8
0
 10
-78.001
 20
25.0628
 11
-78
 21
25
  0
LINE
  8
0
 10
-78
 20
25
 11
-78.001
 21
24.9372
  0
LINE
  8
0
 10
-78.001
 20
24.9372
 11
-78.0039
 21
24.8744
  0
LINE
  8
0
 10
-78.0039
 20
24.8744
 11
-78.0089
 21
24.8118
  0
LINE
  8
0
 10
-78.0089
 20
24.8118
 11
-78.0158
 21
24.7493
  0
LINE
  8
0
 10
-78.0158
 20
24.7493
 11
-78.0246
 21
24.6871
  0
LINE
  8
0
 10
-78.0246
 20
24.6871
 11
-78.0354
 21
24.6252
  0
LINE
  8
0
 10
-78.0354
 20
24.6252
 11
-78.0482
 21
24.5637
  0
LINE
  8
0
 10
-78.0482
 20
24.5637
 11
-78.0628
 21
24.5026
  0
LINE
  8
0
 10
-78.0628
 20
24.5026
 11
-78.0794
 21
24.442
  0
LINE
  8
0
 10
-78.0794
 20
24.442
 11
-78.0979
 21
24.382
  0
LINE
  8
0
 10
-78.0979
 20
24.382
 11
-78.1182
 21
24.3225
  0
LINE
  8
0
 10
-78.1182
 20
24.3225
 11
-78.1404
 21
24.2637
  0
LINE
  8
0
 10
-78.1404
 20
24.2637
 11
-78.1645
 21
24.2057
  0
LINE
  8
0
 10
-78.1645
 20
24.2057
 11
-78.1903
 21
24.1484
  0
LINE
  8
0
 10
-78.1903
 20
24.1484
 11
-78.218
 21
24.092
  0
LINE
  8
0
 10
-78.218
 20
24.092
 11
-78.2474
 21
24.0365
  0
LINE
  8
0
 10
-78.2474
 20
24.0365
 11
-78.2785
 21
23.9819
  0
LINE
  8
0
 10
-78.2785
 20
23.9819
 11
-78.3113
 21
23.9283
  0
LINE
  8
0
 10
-78.3113
 20
23.9283
 11
-78.3458
 21
23.8758
  0
LINE
  8
0
 10
-78.3458
 20
23.8758
 11
-78.382
 21
23.8244
  0
LINE
  8
0
 10
-78.382
 20
23.8244
 11
-78.4197
 21
23.7742
  0
LINE
  8
0
 10
-78.4197
 20
23.7742
 11
-78.459
 21
23.7251
  0
LINE
  8
0
 10
-78.459
 20
23.7251
 11
-78.4998
 21
23.6774
  0
LINE
  8
0
 10
-78.4998
 20
23.6774
 11
-78.5421
 21
23.6309
  0
LINE
  8
0
 10
-78.5421
 20
23.6309
 11
-78.5858
 21
23.5858
  0
LINE
  8
0
 10
-78.5858
 20
23.5858
 11
-78.6309
 21
23.5421
  0
LINE
  8
0
 10
-78.6309
 20
23.5421
 11
-78.6774
 21
23.4998
  0
LINE
  8
0
 10
-78.6774
 20
23.4998
 11
-78.7251
 21
23.459
  0
LINE
  8
0
 10
-78.7251
 20
23.459
 11
-78.7742
 21
23.4197
  0
LINE
  8
0
 10
-78.7742
 20
23.4197
 11
-78.8244
 21
23.382
  0
LINE
  8
0
 10
-78.8244
 20
23.382
 11
-78.8758
 21
23.3458
  0
LINE
  8
0
 10
-78.8758
 20
23.3458
 11
-78.9283
 21
23.3113
  0
LINE
  8
0
 10
-78.9283
 20
23.3113
 11
-78.9819
 21
23.2785
  0
LINE
  8
0
 10
-78.9819
 20
23.2785
 11
-79.0365
 21
23.2474
  0
LINE
  8
0
 10
-79.0365
 20
23.2474
 11
-79.092
 21
23.218
  0
LINE
  8
0
 10
-79.092
 20
23.218
 11
-79.1484
 21
23.1903
  0
LINE
  8
0
 10
-79.1484
 20
23.1903
 11
-79.2057
 21
23.1645
  0
LINE
  8
0
 10
-79.2057
 20
23.1645
 11
-79.2637
 21
23.1404
  0
LINE
  8
0
 10
-79.2637
 20
23.1404
 11
-79.3225
 21
23.1182
  0
LINE
  8
0
 10
-79.3225
 20
23.1182
 11
-79.382
 21
23.0979
  0
LINE
  8
0
 10
-79.382
 20
23.0979
 11
-79.442
 21
23.0794
  0
LINE
  8
0
 10
-79.442
 20
23.0794
 11
-79.5026
 21
23.0628
  0
LINE
  8
0
 10
-79.5026
 20
23.0628
 11
-79.5637
 21
23.0482
  0
LINE
  8
0
 10
-79.5637
 20
23.0482
 11
-79.6252
 21
23.0354
  0
LINE
  8
0
 10
-79.6252
 20
23.0354
 11
-79.6871
 21
23.0246
  0
LINE
  8
0
 10
-79.6871
 20
23.0246
 11
-79.7493
 21
23.0158
  0
LINE
  8
0
 10
-79.7493
 20
23.0158
 11
-79.8118
 21
23.0089
  0
LINE
  8
0
 10
-79.8118
 20
23.0089
 11
-79.8744
 21
23.0039
  0
LINE
  8
0
 10
-79.8744
 20
23.0039
 11
-79.9372
 21
23.001
  0
LINE
  8
0
 10
-79.9372
 20
23.001
 11
-80
 21
23
  0
LINE
  8
0
 10
-80
 20
23
 11
-80.0628
 21
23.001
  0
LINE
  8
0
 10
79.9372
 20
23.001
 11
79.8744
 21
23.0039
  0
LINE
  8
0
 10
79.8744
 20
23.0039
 11
79.8118
 21
23.0089
  0
LINE
  8
0
 10
79.8118
 20
23.0089
 11
79.7493
 21
23.0158
  0
LINE
  8
0
 10
79.7493
 20
23.0158
 11
79.6871
 21
23.0246
  0
LINE
  8
0
 10
79.6871
 20
23.0246
 11
79.6252
 21
23.0354
  0
LINE
  8
0
 10
79.6252
 20
23.0354
 11
79.5637
 21
23.0482
  0
LINE
  8
0
 10
79.5637
 20
23.0482
 11
79.5026
 21
23.0628
  0
LINE
  8
0
 10
79.5026
 20
23.0628
 11
79.442
 21
23.0794
  0
LINE
  8
0
 10
79.442
 20
23.0794
 11
79.382
 21
23.0979
  0
LINE
  8
0
 10
79.382
 20
23.0979
 11
79.3225
 21
23.1182
  0
LINE
  8
0
 10
79.3225
 20
23.1182
 11
79.2637
 21
23.1404
  0
LINE
  8
0
 10
79.2637
 20
23.1404
 11
79.2057
 21
23.1645
  0
LINE
  8
0
 10
79.2057
 20
23.1645
 11
79.1484
 21
23.1903
  0
LINE
  8
0
 10
79.1484
 20
23.1903
 11
79.092
 21
23.218
  0
LINE
  8
0
 10
79.092
 20
23.218
 11
79.0365
 21
23.2474
  0
LINE
  8
0
 10
79.0365
 20
23.2474
 11
78.9819
 21
23.2785
  0
LINE
  8
0
 10
78.9819
 20
23.2785
 11
78.9283
 21
23.3113
  0
LINE
  8
0
 10
78.9283
 20
23.3113
 11
78.8758
 21
23.3458
  0
LINE
  8
0
 10
78.8758
 20
23.3458
 11
78.8244
 21
23.382
  0
LINE
  8
0
 10
78.8244
 20
23.382
 11
78.7742
 21
23.4197
  0
LINE
  8
0
 10
78.7742
 20
23.4197
 11
78.7251
 21
23.459
  0
LINE
  8
0
 10
78.7251
 20
23.459
 11
78.6774
 21
23.4998
  0
LINE
  8
0
 10
78.6774
 20
23.4998
 11
78.6309
 21
23.5421
  0
LINE
  8
0
 10
78.6309
 20
23.5421
 11
78.5858
 21
23.5858
  0
LINE
  8
0
 10
78.5858
 20
23.5858
 11
78.5421
 21
23.6309
  0
LINE
  8
0
 10
78.5421
 20
23.6309
 11
78.4998
 21
23.6774
  0
LINE
  8
0
 10
78.4998
 20
23.6774
 11
78.459
 21
23.7251
  0
LINE
  8
0
 10
78.459
 20
23.7251
 11
78.4197
 21
23.7742
  0
LINE
  8
0
 10
78.4197
 20
23.7742
 11
78.382
 21
23.8244
  0
LINE
  8
0
 10
78.382
 20
23.8244
 11
78.3458
 21
23.8758
  0
LINE
  8
0
 10
78.3458
 20
23.8758
 11
78.3113
 21
23.9283
  0
LINE
  8
0
 10
78.3113
 20
23.9283
 11
78.2785
 21
23.9819
  0
LINE
  8
0
 10
78.2785
 20
23.9819
 11
78.2474
 21
24.0365
  0
LINE
  8
0
 10
78.2474
 20
24.0365
 11
78.218
 21
24.092
  0
LINE
  8
0
 10
78.218
 20
24.092
 11
78.1903
 21
24.1484
  0
LINE
  8
0
 10
78.1903
 20
24.1484
 11
78.1645
 21
24.2057
  0
LINE
  8
0
 10
78.1645
 20
24.2057
 11
78.1404
 21
24.2637
  0
LINE
  8
0
 10
78.1404
 20
24.2637
 11
78.1182
 21
24.3225
  0
LINE
  8
0
 10
78.1182
 20
24.3225
 11
78.0979
 21
24.382
  0
LINE
  8
0
 10
78.0979
 20
24.382
 11
78.0794
 21
24.442
  0
LINE
  8
0
 10
78.0794
 20
24.442
 11
78.0628
 21
24.5026
  0
LINE
  8
0
 10
78.0628
 20
24.5026
 11
78.0482
 21
24.5637
  0
LINE
  8
0
 10
78.0482
 20
24.5637
 11
78.0354
 21
24.6252
  0
LINE
  8
0
 10
78.0354
 20
24.6252
 11
78.0246
 21
24.6871
  0
LINE
  8
0
 10
78.0246
 20
24.6871
 11
78.0158
 21
24.7493
  0
LINE
  8
0
 10
78.0158
 20
24.7493
 11
78.0089
 21
24.8118
  0
LINE
  8
0
 10
78.0089
 20
24.8118
 11
78.0039
 21
24.8744
  0
LINE
  8
0
 10
78.0039
 20
24.8744
 11
78.001
 21
24.9372
  0
LINE
  8
0
 10
78.001
 20
24.9372
 11
78
 21
25
  0
LINE
  8
0
 10
78
 20
25
 11
78.001
 21
25.0628
  0
LINE
  8
0
 10
78.001
 20
25.0628
 11
78.0039
 21
25.1256
  0
LINE
  8
0
 10
78.0039
 20
25.1256
 11
78.0089
 21
25.1882
  0
LINE
  8
0
 10
78.0089
 20
25.1882
 11
78.0158
 21
25.2507
  0
LINE
  8
0
 10
78.0158
 20
25.2507
 11
78.0246
 21
25.3129
  0
LINE
  8
0
 10
78.0246
 20
25.3129
 11
78.0354
 21
25.3748
  0
LINE
  8
0
 10
78.0354
 20
25.3748
 11
78.0482
 21
25.4363
  0
LINE
  8
0
 10
78.0482
 20
25.4363
 11
78.0628
 21
25.4974
  0
LINE
  8
0
 10
78.0628
 20
25.4974
 11
78.0794
 21
25.558
  0
LINE
  8
0
 10
78.0794
 20
25.558
 11
78.0979
 21
25.618
  0
LINE
  8
0
 10
78.0979
 20
25.618
 11
78.1182
 21
25.6775
  0
LINE
  8
0
 10
78.1182
 20
25.6775
 11
78.1404
 21
25.7362
  0
LINE
  8
0
 10
78.1404
 20
25.7362
 11
78.1645
 21
25.7943
  0
LINE
  8
0
 10
78.1645
 20
25.7943
 11
78.1903
 21
25.8515
  0
LINE
  8
0
 10
78.1903
 20
25.8515
 11
78.218
 21
25.908
  0
LINE
  8
0
 10
78.218
 20
25.908
 11
78.2474
 21
25.9635
  0
LINE
  8
0
 10
78.2474
 20
25.9635
 11
78.2785
 21
26.0181
  0
LINE
  8
0
 10
78.2785
 20
26.0181
 11
78.3113
 21
26.0716
  0
LINE
  8
0
 10
78.3113
 20
26.0716
 11
78.3458
 21
26.1242
  0
LINE
  8
0
 10
78.3458
 20
26.1242
 11
78.382
 21
26.1756
  0
LINE
  8
0
 10
78.382
 20
26.1756
 11
78.4197
 21
26.2258
  0
LINE
  8
0
 10
78.4197
 20
26.2258
 11
78.459
 21
26.2748
  0
LINE
  8
0
 10
78.459
 20
26.2748
 11
78.4998
 21
26.3226
  0
LINE
  8
0
 10
78.4998
 20
26.3226
 11
78.5421
 21
26.3691
  0
LINE
  8
0
 10
78.5421
 20
26.3691
 11
78.5858
 21
26.4142
  0
LINE
  8
0
 10
78.5858
 20
26.4142
 11
78.6309
 21
26.4579
  0
LINE
  8
0
 10
78.6309
 20
26.4579
 11
78.6774
 21
26.5002
  0
LINE
  8
0
 10
78.6774
 20
26.5002
 11
78.7251
 21
26.541
  0
LINE
  8
0
 10
78.7251
 20
26.541
 11
78.7742
 21
26.5803
  0
LINE
  8
0
 10
78.7742
 20
26.5803
 11
78.8244
 21
26.618
  0
LINE
  8
0
 10
78.8244
 20
26.618
 11
78.8758
 21
26.6542
  0
LINE
  8
0
 10
78.8758
 20
26.6542
 11
78.9283
 21
26.6886
  0
LINE
  8
0
 10
78.9283
 20
26.6886
 11
78.9819
 21
26.7215
  0
LINE
  8
0
 10
78.9819
 20
26.7215
 11
79.0365
 21
26.7526
  0
LINE
  8
0
 10
79.0365
 20
26.7526
 11
79.092
 21
26.782
  0
LINE
  8
0
 10
79.092
 20
26.782
 11
79.1484
 21
26.8096
  0
LINE
  8
0
 10
79.1484
 20
26.8096
 11
79.2057
 21
26.8355
  0
LINE
  8
0
 10
79.2057
 20
26.8355
 11
79.2637
 21
26.8595
  0
LINE
  8
0
 10
79.2637
 20
26.8595
 11
79.3225
 21
26.8818
  0
LINE
  8
0
 10
79.3225
 20
26.8818
 11
79.382
 21
26.9021
  0
LINE
  8
0
 10
79.382
 20
26.9021
 11
79.442
 21
26.9206
  0
LINE
  8
0
 10
79.442
 20
26.9206
 11
79.5026
 21
26.9372
  0
LINE
  8
0
 10
79.5026
 20
26.9372
 11
79.5637
 21
26.9518
  0
LINE
  8
0
 10
79.5637
 20
26.9518
 11
79.6252
 21
26.9646
  0
LINE
  8
0
 10
79.6252
 20
26.9646
 11
79.6871
 21
26.9754
  0
LINE
  8
0
 10
79.6871
 20
26.9754
 11
79.7493
 21
26.9842
  0
LINE
  8
0
 10
79.7493
 20
26.9842
 11
79.8118
 21
26.9911
  0
LINE
  8
0
 10
79.8118
 20
26.9911
 11
79.8744
 21
26.996
  0
LINE
  8
0
 10
79.8744
 20
26.996
 11
79.9372
 21
26.999
  0
LINE
  8
0
 10
79.9372
 20
26.999
 11
80
 21
27
  0
LINE
  8
0
 10
80
 20
27
 11
80.0628
 21
26.999
  0
LINE
  8
0
 10
80.0628
 20
26.999
 11
80.1256
 21
26.996
  0
LINE
  8
0
 10
80.1256
 20
26.996
 11
80.1882
 21
26.9911
  0
LINE
  8
0
 10
80.1882
 20
26.9911
 11
80.2507
 21
26.9842
  0
LINE
  8
0
 10
80.2507
 20
26.9842
 11
80.3129
 21
26.9754
  0
LINE
  8
0
 10
80.3129
 20
26.9754
 11
80.3748
 21
26.9646
  0
LINE
  8
0
 10
80.3748
 20
26.9646
 11
80.4363
 21
26.9518
  0
LINE
  8
0
 10
80.4363
 20
26.9518
 11
80.4974
 21
26.9372
  0
LINE
  8
0
 10
80.4974
 20
26.9372
 11
80.558
 21
26.9206
  0
LINE
  8
0
 10
80.558
 20
26.9206
 11
80.618
 21
26.9021
  0
LINE
  8
0
 10
80.618
 20
26.9021
 11
80.6775
 21
26.8818
  0
LINE
  8
0
 10
80.6775
 20
26.8818
 11
80.7362
 21
26.8595
  0
LINE
  8
0
 10
80.7362
 20
26.8595
 11
80.7943
 21
26.8355
  0
LINE
  8
0
 10
80.7943
 20
26.8355
 11
80.8515
 21
26.8096
  0
LINE
  8
0
 10
80.8515
 20
26.8096
 11
80.908
 21
26.782
  0
LINE
  8
0
 10
80.908
 20
26.782
 11
80.9635
 21
26.7526
  0
LINE
  8
0
 10
80.9635
 20
26.7526
 11
81.0181
 21
26.7215
  0
LINE
  8
0
 10
81.0181
 20
26.7215
 11
81.0716
 21
26.6886
  0
LINE
  8
0
 10
81.0716
 20
26.6886
 11
81.1242
 21
26.6542
  0
LINE
  8
0
 10
81.1242
 20
26.6542
 11
81.1756
 21
26.618
  0
LINE
  8
0
 10
81.1756
 20
26.618
 11
81.2258
 21
26.5803
  0
LINE
  8
0
 10
81.2258
 20
26.5803
 11
81.2748
 21
26.541
  0
LINE
  8
0
 10
81.2748
 20
26.541
 11
81.3226
 21
26.5002
  0
LINE
  8
0
 10
81.3226
 20
26.5002
 11
81.3691
 21
26.4579
  0
LINE
  8
0
 10
81.3691
 20
26.4579
 11
81.4142
 21
26.4142
  0
LINE
  8
0
 10
81.4142
 20
26.4142
 11
81.4579
 21
26.3691
  0
LINE
  8
0
 10
81.4579
 20
26.3691
 11
81.5002
 21
26.3226
  0
LINE
  8
0
 10
81.5002
 20
26.3226
 11
81.541
 21
26.2748
  0
LINE
  8
0
 10
81.541
 20
26.2748
 11
81.5803
 21
26.2258
  0
LINE
  8
0
 10
81.5803
 20
26.2258
 11
81.618
 21
26.1756
  0
LINE
  8
0
 10
81.618
 20
26.1756
 11
81.6542
 21
26.1242
  0
LINE
  8
0
 10
81.6542
 20
26.1242
 11
81.6886
 21
26.0716
  0
LINE
  8
0
 10
81.6886
 20
26.0716
 11
81.7215
 21
26.0181
  0
LINE
  8
0
 10
81.7215
 20
26.0181
 11
81.7526
 21
25.9635
  0
LINE
  8
0
 10
81.7526
 20
25.9635
 11
81.782
 21
25.908
  0
LINE
  8
0
 10
81.782
 20
25.908
 11
81.8096
 21
25.8515
  0
LINE
  8
0
 10
81.8096
 20
25.8515
 11
81.8355
 21
25.7943
  0
LINE
  8
0
 10
81.8355
 20
25.7943
 11
81.8595
 21
25.7362
  0
LINE
  8
0
 10
81.8595
 20
25.7362
 11
81.8818
 21
25.6775
  0
LINE
  8
0
 10
81.8818
 20
25.6775
 11
81.9021
 21
25.618
  0
LINE
  8
0
 10
81.9021
 20
25.618
 11
81.9206
 21
25.558
  0
LINE
  8
0
 10
81.9206
 20
25.558
 11
81.9372
 21
25.4974
  0
LINE
  8
0
 10
81.9372
 20
25.4974
 11
81.9518
 21
25.4363
  0
LINE
  8
0
 10
81.9518
 20
25.4363
 11
81.9646
 21
25.3748
  0
LINE
  8
0
 10
81.9646
 20
25.3748
 11
81.9754
 21
25.3129
  0
LINE
  8
0
 10
81.9754
 20
25.3129
 11
81.9842
 21
25.2507
  0
LINE
  8
0
 10
81.9842
 20
25.2507
 11
81.9911
 21
25.1882
  0
LINE
  8
0
 10
81.9911
 20
25.1882
 11
81.996
 21
25.1256
  0
LINE
  8
0
 10
81.996
 20
25.1256
 11
81.999
 21
25.0628
  0
LINE
  8
0
 10
81.999
 20
25.0628
 11
82
 21
25
  0
LINE
  8
0
 10
82
 20
25
 11
81.999
 21
24.9372
  0
LINE
  8
0
 10
81.999
 20
24.9372
 11
81.996
 21
24.8744
  0
LINE
  8
0
 10
81.996
 20
24.8744
 11
81.9911
 21
24.8118
  0
LINE
  8
0
 10
81.9911
 20
24.8118
 11
81.9842
 21
24.7493
  0
LINE
  8
0
 10
81.9842
 20
24.7493
 11
81.9754
 21
24.6871
  0
LINE
  8
0
 10
81.9754
 20
24.6871
 11
81.9646
 21
24.6252
  0
LINE
  8
0
 10
81.9646
 20
24.6252
 11
81.9518
 21
24.5637
  0
LINE
  8
0
 10
81.9518
 20
24.5637
 11
81.9372
 21
24.5026
  0
LINE
  8
0
 10
81.9372
 20
24.5026
 11
81.9206
 21
24.442
  0
LINE
  8
0
 10
81.9206
 20
24.442
 11
81.9021
 21
24.382
  0
LINE
  8
0
 10
81.9021
 20
24.382
 11
81.8818
 21
24.3225
  0
LINE
  8
0
 10
81.8818
 20
24.3225
 11
81.8595
 21
24.2637
  0
LINE
  8
0
 10
81.8595
 20
24.2637
 11
81.8355
 21
24.2057
  0
LINE
  8
0
 10
81.8355
 20
24.2057
 11
81.8096
 21
24.1484
  0
LINE
  8
0
 10
81.8096
 20
24.1484
 11
81.782
 21
24.092
  0
LINE
  8
0
 10
81.782
 20
24.092
 11
81.7526
 21
24.0365
  0
LINE
  8
0
 10
81.7526
 20
24.0365
 11
81.7215
 21
23.9819
  0
LINE
  8
0
 10
81.7215
 20
23.9819
 11
81.6886
 21
23.9283
  0
LINE
  8
0
 10
81.6886
 20
23.9283
 11
81.6542
 21
23.8758
  0
LINE
  8
0
 10
81.6542
 20
23.8758
 11
81.618
 21
23.8244
  0
LINE
  8
0
 10
81.618
 20
23.8244
 11
81.5803
 21
23.7742
  0
LINE
  8
0
 10
81.5803
 20
23.7742
 11
81.541
 21
23.7251
  0
LINE
  8
0
 10
81.541
 20
23.7251
 11
81.5002
 21
23.6774
  0
LINE
  8
0
 10
81.5002
 20
23.6774
 11
81.4579
 21
23.6309
  0
LINE
  8
0
 10
81.4579
 20
23.6309
 11
81.4142
 21
23.5858
  0
LINE
  8
0
 10
81.4142
 20
23.5858
 11
81.3691
 21
23.5421
  0
LINE
  8
0
 10
81.3691
 20
23.5421
 11
81.3226
 21
23.4998
  0
LINE
  8
0
 10
81.3226
 20
23.4998
 11
81.2748
 21
23.459
  0
LINE
  8
0
 10
81.2748
 20
23.459
 11
81.2258
 21
23.4197
  0
LINE
  8
0
 10
81.2258
 20
23.4197
 11
81.1756
 21
23.382
  0
LINE
  8
0
 10
81.1756
 20
23.382
 11
81.1242
 21
23.3458
  0
LINE
  8
0
 10
81.1242
 20
23.3458
 11
81.0716
 21
23.3113
  0
LINE
  8
0
 10
81.0716
 20
23.3113
 11
81.0181
 21
23.2785
  0
LINE
  8
0
 10
81.0181
 20
23.2785
 11
80.9635
 21
23.2474
  0
LINE
  8
0
 10
80.9635
 20
23.2474
 11
80.908
 21
23.218
  0
LINE
  8
0
 10
80.908
 20
23.218
 11
80.8515
 21
23.1903
  0
LINE
  8
0
 10
80.8515
 20
23.1903
 11
80.7943
 21
23.1645
  0
LINE
  8
0
 10
80.7943
 20
23.1645
 11
80.7362
 21
23.1404
  0
LINE
  8
0
 10
80.7362
 20
23.1404
 11
80.6775
 21
23.1182
  0
LINE
  8
0
 10
80.6775
 20
23.1182
 11
80.618
 21
23.0979
  0
LINE
  8
0
 10
80.618
 20
23.0979
 11
80.558
 21
23.0794
  0
LINE
  8
0
 10
80.558
 20
23.0794
 11
80.4974
 21
23.0628
  0
LINE
  8
0
 10
80.4974
 20
23.0628
 11
80.4363
 21
23.0482
  0
LINE
  8
0
 10
80.4363
 20
23.0482
 11
80.3748
 21
23.0354
  0
LINE
  8
0
 10
80.3748
 20
23.0354
 11
80.3129
 21
23.0246
  0
LINE
  8
0
 10
80.3129
 20
23.0246
 11
80.2507
 21
23.0158
  0
LINE
  8
0
 10
80.2507
 20
23.0158
 11
80.1882
 21
23.0089
  0
LINE
  8
0
 10
80.1882
 20
23.0089
 11
80.1256
 21
23.0039
  0
LINE
  8
0
 10
80.1256
 20
23.0039
 11
80.0628
 21
23.001
  0
LINE
  8
0
 10
80.0628
 20
23.001
 11
80
 21
23
  0
LINE
  8
0
 10
80
 20
23
 11
79.9372
 21
23.001
  0
LINE
  8
0
 10
-80.0628
 20
-26.999
 11
-80.1256
 21
-26.996
  0
LINE
  8
0
 10
-80.1256
 20
-26.996
 11
-80.1882
 21
-26.9911
  0
LINE
  8
0
 10
-80.1882
 20
-26.9911
 11
-80.2507
 21
-26.9842
  0
LINE
  8
0
 10
-80.2507
 20
-26.9842
 11
-80.3129
 21
-26.9754
  0
LINE
  8
0
 10
-80.3129
 20
-26.9754
 11
-80.3748
 21
-26.9646
  0
LINE
  8
0
 10
-80.3748
 20
-26.9646
 11
-80.4363
 21
-26.9518
  0
LINE
  8
0
 10
-80.4363
 20
-26.9518
 11
-80.4974
 21
-26.9372
  0
LINE
  8
0
 10
-80.4974
 20
-26.9372
 11
-80.558
 21
-26.9206
  0
LINE
  8
0
 10
-80.558
 20
-26.9206
 11
-80.618
 21
-26.9021
  0
LINE
  8
0
 10
-80.618
 20
-26.9021
 11
-80.6775
 21
-26.8818
  0
LINE
  8
0
 10
-80.6775
 20
-26.8818
 11
-80.7362
 21
-26.8595
  0
LINE
  8
0
 10
-80.7362
 20
-26.8595
 11
-80.7943
 21
-26.8355
  0
LINE
  8
0
 10
-80.7943
 20
-26.8355
 11
-80.8515
 21
-26.8096
  0
LINE
  8
0
 10
-80.8515
 20
-26.8096
 11
-80.908
 21
-26.782
  0
LINE
  8
0
 10
-80.908
 20
-26.782
 11
-80.9635
 21
-26.7526
  0
LINE
  8
0
 10
-80.9635
 20
-26.7526
 11
-81.0181
 21
-26.7215
  0
LINE
  8
0
 10
-81.0181
 20
-26.7215
 11
-81.0716
 21
-26.6886
  0
LINE
  8
0
 10
-81.0716
 20
-26.6886
 11
-81.1242
 21
-26.6542
  0
LINE
  8
0
 10
-81.1242
 20
-26.6542
 11
-81.1756
 21
-26.618
  0
LINE
  8
0
 10
-81.1756
 20
-26.618
 11
-81.2258
 21
-26.5803
  0
LINE
  8
0
 10
-81.2258
 20
-26.5803
 11
-81.2748
 21
-26.541
  0
LINE
  8
0
 10
-81.2748
 20
-26.541
 11
-81.3226
 21
-26.5002
  0
LINE
  8
0
 10
-81.3226
 20
-26.5002
 11
-81.3691
 21
-26.4579
  0
LINE
  8
0
 10
-81.3691
 20
-26.4579
 11
-81.4142
 21
-26.4142
  0
LINE
  8
0
 10
-81.4142
 20
-26.4142
 11
-81.4579
 21
-26.3691
  0
LINE
  8
0
 10
-81.4579
 20
-26.3691
 11
-81.5002
 21
-26.3226
  0
LINE
  8
0
 10
-81.5002
 20
-26.3226
 11
-81.541
 21
-26.2748
  0
LINE
  8
0
 10
-81.541
 20
-26.2748
 11
-81.5803
 21
-26.2258
  0
LINE
  8
0
 10
-81.5803
 20
-26.2258
 11
-81.618
 21
-26.1756
  0
LINE
  8
0
 10
-81.618
 20
-26.1756
 11
-81.6542
 21
-26.1242
  0
LINE
  8
0
 10
-81.6542
 20
-26.1242
 11
-81.6886
 21
-26.0716
  0
LINE
  8
0
 10
-81.6886
 20
-26.0716
 11
-81.7215
 21
-26.0181
  0
LINE
  8
0
 10
-81.7215
 20
-26.0181
 11
-81.7526
 21
-25.9635
  0
LINE
  8
0
 10
-81.7526
 20
-25.9635
 11
-81.782
 21
-25.908
  0
LINE
  8
0
 10
-81.782
 20
-25.908
 11
-81.8096
 21
-25.8515
  0
LINE
  8
0
 10
-81.8096
 20
-25.8515
 11
-81.8355
 21
-25.7943
  0
LINE
  8
0
 10
-81.8355
 20
-25.7943
 11
-81.8595
 21
-25.7362
  0
LINE
  8
0
 10
-81.8595
 20
-25.7362
 11
-81.8818
 21
-25.6775
  0
LINE
  8
0
 10
-81.8818
 20
-25.6775
 11
-81.9021
 21
-25.618
  0
LINE
  8
0
 10
-81.9021
 20
-25.618
 11
-81.9206
 21
-25.558
  0
LINE
  8
0
 10
-81.9206
 20
-25.558
 11
-81.9372
 21
-25.4974
  0
LINE
  8
0
 10
-81.9372
 20
-25.4974
 11
-81.9518
 21
-25.4363
  0
LINE
  8
0
 10
-81.9518
 20
-25.4363
 11
-81.9646
 21
-25.3748
  0
LINE
  8
0
 10
-81.9646
 20
-25.3748
 11
-81.9754
 21
-25.3129
  0
LINE
  8
0
 10
-81.9754
 20
-25.3129
 11
-81.9842
 21
-25.2507
  0
LINE
  8
0
 10
-81.9842
 20
-25.2507
 11
-81.9911
 21
-25.1882
  0
LINE
  8
0
 10
-81.9911
 20
-25.1882
 11
-81.996
 21
-25.1256
  0
LINE
  8
0
 10
-81.996
 20
-25.1256
 11
-81.999
 21
-25.0628
  0
LINE
  8
0
 10
-81.999
 20
-25.0628
 11
-82
 21
-25
  0
LINE
  8
0
 10
-82
 20
-25
 11
-81.999
 21
-24.9372
  0
LINE
  8
0
 10
-81.999
 20
-24.9372
 11
-81.996
 21
-24.8744
  0
LINE
  8
0
 10
-81.996
 20
-24.8744
 11
-81.9911
 21
-24.8118
  0
LINE
  8
0
 10
-81.9911
 20
-24.8118
 11
-81.9842
 21
-24.7493
  0
LINE
  8
0
 10
-81.9842
 20
-24.7493
 11
-81.9754
 21
-24.6871
  0
LINE
  8
0
 10
-81.9754
 20
-24.6871
 11
-81.9646
 21
-24.6252
  0
LINE
  8
0
 10
-81.9646
 20
-24.6252
 11
-81.9518
 21
-24.5637
  0
LINE
  8
0
 10
-81.9518
 20
-24.5637
 11
-81.9372
 21
-24.5026
  0
LINE
  8
0
 10
-81.9372
 20
-24.5026
 11
-81.9206
 21
-24.442
  0
LINE
  8
0
 10
-81.9206
 20
-24.442
 11
-81.9021
 21
-24.382
  0
LINE
  8
0
 10
-81.9021
 20
-24.382
 11
-81.8818
 21
-24.3225
  0
LINE
  8
0
 10
-81.8818
 20
-24.3225
 11
-81.8595
 21
-24.2637
  0
LINE
  8
0
 10
-81.8595
 20
-24.2637
 11
-81.8355
 21
-24.2057
  0
LINE
  8
0
 10
-81.8355
 20
-24.2057
 11
-81.8096
 21
-24.1484
  0
LINE
  8
0
 10
-81.8096
 20
-24.1484
 11
-81.782
 21
-24.092
  0
LINE
  8
0
 10
-81.782
 20
-24.092
 11
-81.7526
 21
-24.0365
  0
LINE
  8
0
 10
-81.7526
 20
-24.0365
 11
-81.7215
 21
-23.9819
  0
LINE
  8
0
 10
-81.7215
 20
-23.9819
 11
-81.6886
 21
-23.9283
  0
LINE
  8
0
 10
-81.6886
 20
-23.9283
 11
-81.6542
 21
-23.8758
  0
LINE
  8
0
 10
-81.6542
 20
-23.8758
 11
-81.618
 21
-23.8244
  0
LINE
  8
0
 10
-81.618
 20
-23.8244
 11
-81.5803
 21
-23.7742
  0
LINE
  8
0
 10
-81.5803
 20
-23.7742
 11
-81.541
 21
-23.7251
  0
LINE
  8
0
 10
-81.541
 20
-23.7251
 11
-81.5002
 21
-23.6774
  0
LINE
  8
0
 10
-81.5002
 20
-23.6774
 11
-81.4579
 21
-23.6309
  0
LINE
  8
0
 10
-81.4579
 20
-23.6309
 11
-81.4142
 21
-23.5858
  0
LINE
  8
0
 10
-81.4142
 20
-23.5858
 11
-81.3691
 21
-23.5421
  0
LINE
  8
0
 10
-81.3691
 20
-23.5421
 11
-81.3226
 21
-23.4998
  0
LINE
  8
0
 10
-81.3226
 20
-23.4998
 11
-81.2748
 21
-23.459
  0
LINE
  8
0
 10
-81.2748
 20
-23.459
 11
-81.2258
 21
-23.4197
  0
LINE
  8
0
 10
-81.2258
 20
-23.4197
 11
-81.1756
 21
-23.382
  0
LINE
  8
0
 10
-81.1756
 20
-23.382
 11
-81.1242
 21
-23.3458
  0
LINE
  8
0
 10
-81.1242
 20
-23.3458
 11
-81.0716
 21
-23.3113
  0
LINE
  8
0
 10
-81.0716
 20
-23.3113
 11
-81.0181
 21
-23.2785
  0
LINE
  8
0
 10
-81.0181
 20
-23.2785
 11
-80.9635
 21
-23.2474
  0
LINE
  8
0
 10
-80.9635
 20
-23.2474
 11
-80.908
 21
-23.218
  0
LINE
  8
0
 10
-80.908
 20
-23.218
 11
-80.8515
 21
-23.1903
  0
LINE
  8
0
 10
-80.8515
 20
-23.1903
 11
-80.7943
 21
-23.1645
  0
LINE
  8
0
 10
-80.7943
 20
-23.1645
 11
-80.7362
 21
-23.1404
  0
LINE
  8
0
 10
-80.7362
 20
-23.1404
 11
-80.6775
 21
-23.1182
  0
LINE
  8
0
 10
-80.6775
 20
-23.1182
 11
-80.618
 21
-23.0979
  0
LINE
  8
0
 10
-80.618
 20
-23.0979
 11
-80.558
 21
-23.0794
  0
LINE
  8
0
 10
-80.558
 20
-23.0794
 11
-80.4974
 21
-23.0628
  0
LINE
  8
0
 10
-80.4974
 20
-23.0628
 11
-80.4363
 21
-23.0482
  0
LINE
  8
0
 10
-80.4363
 20
-23.0482
 11
-80.3748
 21
-23.0354
  0
LINE
  8
0
 10
-80.3748
 20
-23.0354
 11
-80.3129
 21
-23.0246
  0
LINE
  8
0
 10
-80.3129
 20
-23.0246
 11
-80.2507
 21
-23.0158
  0
LINE
  8
0
 10
-80.2507
 20
-23.0158
 11
-80.1882
 21
-23.0089
  0
LINE
  8
0
 10
-80.1882
 20
-23.0089
 11
-80.1256
 21
-23.0039
  0
LINE
  8
0
 10
-80.1256
 20
-23.0039
 11
-80.0628
 21
-23.001
  0
LINE
  8
0
 10
-80.0628
 20
-23.001
 11
-80
 21
-23
  0
LINE
  8
0
 10
-80
 20
-23
 11
-79.9372
 21
-23.001
  0
LINE
  8
0
 10
-79.9372
 20
-23.001
 11
-79.8744
 21
-23.0039
  0
LINE
  8
0
 10
-79.8744
 20
-23.0039
 11
-79.8118
 21
-23.0089
  0
LINE
  8
0
 10
-79.8118
 20
-23.0089
 11
-79.7493
 21
-23.0158
  0
LINE
  8
0
 10
-79.7493
 20
-23.0158
 11
-79.6871
 21
-23.0246
  0
LINE
  8
0
 10
-79.6871
 20
-23.0246
 11
-79.6252
 21
-23.0354
  0
LINE
  8
0
 10
-79.6252
 20
-23.0354
 11
-79.5637
 21
-23.0482
  0
LINE
  8
0
 10
-79.5637
 20
-23.0482
 11
-79.5026
 21
-23.0628
  0
LINE
  8
0
 10
-79.5026
 20
-23.0628
 11
-79.442
 21
-23.0794
  0
LINE
  8
0
 10
-79.442
 20
-23.0794
 11
-79.382
 21
-23.0979
  0
LINE
  8
0
 10
-79.382
 20
-23.0979
 11
-79.3225
 21
-23.1182
  0
LINE
  8
0
 10
-79.3225
 20
-23.1182
 11
-79.2637
 21
-23.1404
  0
LINE
  8
0
 10
-79.2637
 20
-23.1404
 11
-79.2057
 21
-23.1645
  0
LINE
  8
0
 10
-79.2057
 20
-23.1645
 11
-79.1484
 21
-23.1903
  0
LINE
  8
0
 10
-79.1484
 20
-23.1903
 11
-79.092
 21
-23.218
  0
LINE
  8
0
 10
-79.092
 20
-23.218
 11
-79.0365
 21
-23.2474
  0
LINE
  8
0
 10
-79.0365
 20
-23.2474
 11
-78.9819
 21
-23.2785
  0
LINE
  8
0
 10
-78.9819
 20
-23.2785
 11
-78.9283
 21
-23.3113
  0
LINE
  8
0
 10
-78.9283
 20
-23.3113
 11
-78.8758
 21
-23.3458
  0
LINE
  8
0
 10
-78.8758
 20
-23.3458
 11
-78.8244
 21
-23.382
  0
LINE
  8
0
 10
-78.8244
 20
-23.382
 11
-78.7742
 21
-23.4197
  0
LINE
  8
0
 10
-78.7742
 20
-23.4197
 11
-78.7251
 21
-23.459
  0
LINE
  8
0
 10
-78.7251
 20
-23.459
 11
-78.6774
 21
-23.4998
  0
LINE
  8
0
 10
-78.6774
 20
-23.4998
 11
-78.6309
 21
-23.5421
  0
LINE
  8
0
 10
-78.6309
 20
-23.5421
 11
-78.5858
 21
-23.5858
  0
LINE
  8
0
 10
-78.5858
 20
-23.5858
 11
-78.5421
 21
-23.6309
  0
LINE
  8
0
 10
-78.5421
 20
-23.6309
 11
-78.4998
 21
-23.6774
  0
LINE
  8
0
 10
-78.4998
 20
-23.6774
 11
-78.459
 21
-23.7251
  0
LINE
  8
0
 10
-78.459
 20
-23.7251
 11
-78.4197
 21
-23.7742
  0
LINE
  8
0
 10
-78.4197
 20
-23.7742
 11
-78.382
 21
-23.8244
  0
LINE
  8
0
 10
-78.382
 20
-23.8244
 11
-78.3458
 21
-23.8758
  0
LINE
  8
0
 10
-78.3458
 20
-23.8758
 11
-78.3113
 21
-23.9283
  0
LINE
  8
0
 10
-78.3113
 20
-23.9283
 11
-78.2785
 21
-23.9819
  0
LINE
  8
0
 10
-78.2785
 20
-23.9819
 11
-78.2474
 21
-24.0365
  0
LINE
  8
0
 10
-78.2474
 20
-24.0365
 11
-78.218
 21
-24.092
  0
LINE
  8
0
 10
-78.218
 20
-24.092
 11
-78.1903
 21
-24.1484
  0
LINE
  8
0
 10
-78.1903
 20
-24.1484
 11
-78.1645
 21
-24.2057
  0
LINE
  8
0
 10
-78.1645
 20
-24.2057
 11
-78.1404
 21
-24.2637
  0
LINE
  8
0
 10
-78.1404
 20
-24.2637
 11
-78.1182
 21
-24.3225
  0
LINE
  8
0
 10
-78.1182
 20
-24.3225
 11
-78.0979
 21
-24.382
  0
LINE
  8
0
 10
-78.0979
 20
-24.382
 11
-78.0794
 21
-24.442
  0
LINE
  8
0
 10
-78.0794
 20
-24.442
 11
-78.0628
 21
-24.5026
  0
LINE
  8
0
 10
-78.0628
 20
-24.5026
 11
-78.0482
 21
-24.5637
  0
LINE
  8
0
 10
-78.0482
 20
-24.5637
 11
-78.0354
 21
-24.6252
  0
LINE
  8
0
 10
-78.0354
 20
-24.6252
 11
-78.0246
 21
-24.6871
  0
LINE
  8
0
 10
-78.0246
 20
-24.6871
 11
-78.0158
 21
-24.7493
  0
LINE
  8
0
 10
-78.0158
 20
-24.7493
 11
-78.0089
 21
-24.8118
  0
LINE
  8
0
 10
-78.0089
 20
-24.8118
 11
-78.0039
 21
-24.8744
  0
LINE
  8
0
 10
-78.0039
 20
-24.8744
 11
-78.001
 21
-24.9372
  0
LINE
  8
0
 10
-78.001
 20
-24.9372
 11
-78
 21
-25
  0
LINE
  8
0
 10
-78
 20
-25
 11
-78.001
 21
-25.0628
  0
LINE
  8
0
 10
-78.001
 20
-25.0628
 11
-78.0039
 21
-25.1256
  0
LINE
  8
0
 10
-78.0039
 20
-25.1256
 11
-78.0089
 21
-25.1882
  0
LINE
  8
0
 10
-78.0089
 20
-25.1882
 11
-78.0158
 21
-25.2507
  0
LINE
  8
0
 10
-78.0158
 20
-25.2507
 11
-78.0246
 21
-25.3129
  0
LINE
  8
0
 10
-78.0246
 20
-25.3129
 11
-78.0354
 21
-25.3748
  0
LINE
  8
0
 10
-78.0354
 20
-25.3748
 11
-78.0482
 21
-25.4363
  0
LINE
  8
0
 10
-78.0482
 20
-25.4363
 11
-78.0628
 21
-25.4974
  0
LINE
  8
0
 10
-78.0628
 20
-25.4974
 11
-78.0794
 21
-25.558
  0
LINE
  8
0
 10
-78.0794
 20
-25.558
 11
-78.0979
 21
-25.618
  0
LINE
  8
0
 10
-78.0979
 20
-25.618
 11
-78.1182
 21
-25.6775
  0
LINE
  8
0
 10
-78.1182
 20
-25.6775
 11
-78.1404
 21
-25.7362
  0
LINE
  8
0
 10
-78.1404
 20
-25.7362
 11
-78.1645
 21
-25.7943
  0
LINE
  8
0
 10
-78.1645
 20
-25.7943
 11
-78.1903
 21
-25.8515
  0
LINE
  8
0
 10
-78.1903
 20
-25.8515
 11
-78.218
 21
-25.908
  0
LINE
  8
0
 10
-78.218
 20
-25.908
 11
-78.2474
 21
-25.9635
  0
LINE
  8
0
 10
-78.2474
 20
-25.9635
 11
-78.2785
 21
-26.0181
  0
LINE
  8
0
 10
-78.2785
 20
-26.0181
 11
-78.3113
 21
-26.0716
  0
LINE
  8
0
 10
-78.3113
 20
-26.0716
 11
-78.3458
 21
-26.1242
  0
LINE
  8
0
 10
-78.3458
 20
-26.1242
 11
-78.382
 21
-26.1756
  0
LINE
  8
0
 10
-78.382
 20
-26.1756
 11
-78.4197
 21
-26.2258
  0
LINE
  8
0
 10
-78.4197
 20
-26.2258
 11
-78.459
 21
-26.2748
  0
LINE
  8
0
 10
-78.459
 20
-26.2748
 11
-78.4998
 21
-26.3226
  0
LINE
  8
0
 10
-78.4998
 20
-26.3226
 11
-78.5421
 21
-26.3691
  0
LINE
  8
0
 10
-78.5421
 20
-26.3691
 11
-78.5858
 21
-26.4142
  0
LINE
  8
0
 10
-78.5858
 20
-26.4142
 11
-78.6309
 21
-26.4579
  0
LINE
  8
0
 10
-78.6309
 20
-26.4579
 11
-78.6774
 21
-26.5002
  0
LINE
  8
0
 10
-78.6774
 20
-26.5002
 11
-78.7251
 21
-26.541
  0
LINE
  8
0
 10
-78.7251
 20
-26.541
 11
-78.7742
 21
-26.5803
  0
LINE
  8
0
 10
-78.7742
 20
-26.5803
 11
-78.8244
 21
-26.618
  0
LINE
  8
0
 10
-78.8244
 20
-26.618
 11
-78.8758
 21
-26.6542
  0
LINE
  8
0
 10
-78.8758
 20
-26.6542
 11
-78.9283
 21
-26.6886
  0
LINE
  8
0
 10
-78.9283
 20
-26.6886
 11
-78.9819
 21
-26.7215
  0
LINE
  8
0
 10
-78.9819
 20
-26.7215
 11
-79.0365
 21
-26.7526
  0
LINE
  8
0
 10
-79.0365
 20
-26.7526
 11
-79.092
 21
-26.782
  0
LINE
  8
0
 10
-79.092
 20
-26.782
 11
-79.1484
 21
-26.8096
  0
LINE
  8
0
 10
-79.1484
 20
-26.8096
 11
-79.2057
 21
-26.8355
  0
LINE
  8
0
 10
-79.2057
 20
-26.8355
 11
-79.2637
 21
-26.8595
  0
LINE
  8
0
 10
-79.2637
 20
-26.8595
 11
-79.3225
 21
-26.8818
  0
LINE
  8
0
 10
-79.3225
 20
-26.8818
 11
-79.382
 21
-26.9021
  0
LINE
  8
0
 10
-79.382
 20
-26.9021
 11
-79.442
 21
-26.9206
  0
LINE
  8
0
 10
-79.442
 20
-26.9206
 11
-79.5026
 21
-26.9372
  0
LINE
  8
0
 10
-79.5026
 20
-26.9372
 11
-79.5637
 21
-26.9518
  0
LINE
  8
0
 10
-79.5637
 20
-26.9518
 11
-79.6252
 21
-26.9646
  0
LINE
  8
0
 10
-79.6252
 20
-26.9646
 11
-79.6871
 21
-26.9754
  0
LINE
  8
0
 10
-79.6871
 20
-26.9754
 11
-79.7493
 21
-26.9842
  0
LINE
  8
0
 10
-79.7493
 20
-26.9842
 11
-79.8118
 21
-26.9911
  0
LINE
  8
0
 10
-79.8118
 20
-26.9911
 11
-79.8744
 21
-26.996
  0
LINE
  8
0
 10
-79.8744
 20
-26.996
 11
-79.9372
 21
-26.999
  0
LINE
  8
0
 10
-79.9372
 20
-26.999
 11
-80
 21
-27
  0
LINE
  8
0
 10
-80
 20
-27
 11
-80.0628
 21
-26.999
  0
LINE
  8
0
 10
79.9372
 20
-26.999
 11
79.8744
 21
-26.996
  0
LINE
  8
0
 10
79.8744
 20
-26.996
 11
79.8118
 21
-26.9911
  0
LINE
  8
0
 10
79.8118
 20
-26.9911
 11
79.7493
 21
-26.9842
  0
LINE
  8
0
 10
79.7493
 20
-26.9842
 11
79.6871
 21
-26.9754
  0
LINE
  8
0
 10
79.6871
 20
-26.9754
 11
79.6252
 21
-26.9646
  0
LINE
  8
0
 10
79.6252
 20
-26.9646
 11
79.5637
 21
-26.9518
  0
LINE
  8
0
 10
79.5637
 20
-26.9518
 11
79.5026
 21
-26.9372
  0
LINE
  8
0
 10
79.5026
 20
-26.9372
 11
79.442
 21
-26.9206
  0
LINE
  8
0
 10
79.442
 20
-26.9206
 11
79.382
 21
-26.9021
  0
LINE
  8
0
 10
79.382
 20
-26.9021
 11
79.3225
 21
-26.8818
  0
LINE
  8
0
 10
79.3225
 20
-26.8818
 11
79.2637
 21
-26.8595
  0
LINE
  8
0
 10
79.2637
 20
-26.8595
 11
79.2057
 21
-26.8355
  0
LINE
  8
0
 10
79.2057
 20
-26.8355
 11
79.1484
 21
-26.8096
  0
LINE
  8
0
 10
79.1484
 20
-26.8096
 11
79.092
 21
-26.782
  0
LINE
  8
0
 10
79.092
 20
-26.782
 11
79.0365
 21
-26.7526
  0
LINE
  8
0
 10
79.0365
 20
-26.7526
 11
78.9819
 21
-26.7215
  0
LINE
  8
0
 10
78.9819
 20
-26.7215
 11
78.9283
 21
-26.6886
  0
LINE
  8
0
 10
78.9283
 20
-26.6886
 11
78.8758
 21
-26.6542
  0
LINE
  8
0
 10
78.8758
 20
-26.6542
 11
78.8244
 21
-26.618
  0
LINE
  8
0
 10
78.8244
 20
-26.618
 11
78.7742
 21
-26.5803
  0
LINE
  8
0
 10
78.7742
 20
-26.5803
 11
78.7251
 21
-26.541
  0
LINE
  8
0
 10
78.7251
 20
-26.541
 11
78.6774
 21
-26.5002
  0
LINE
  8
0
 10
78.6774
 20
-26.5002
 11
78.6309
 21
-26.4579
  0
LINE
  8
0
 10
78.6309
 20
-26.4579
 11
78.5858
 21
-26.4142
  0
LINE
  8
0
 10
78.5858
 20
-26.4142
 11
78.5421
 21
-26.3691
  0
LINE
  8
0
 10
78.5421
 20
-26.3691
 11
78.4998
 21
-26.3226
  0
LINE
  8
0
 10
78.4998
 20
-26.3226
 11
78.459
 21
-26.2748
  0
LINE
  8
0
 10
78.459
 20
-26.2748
 11
78.4197
 21
-26.2258
  0
LINE
  8
0
 10
78.4197
 20
-26.2258
 11
78.382
 21
-26.1756
  0
LINE
  8
0
 10
78.382
 20
-26.1756
 11
78.3458
 21
-26.1242
  0
LINE
  8
0
 10
78.3458
 20
-26.1242
 11
78.3113
 21
-26.0716
  0
LINE
  8
0
 10
78.3113
 20
-26.0716
 11
78.2785
 21
-26.0181
  0
LINE
  8
0
 10
78.2785
 20
-26.0181
 11
78.2474
 21
-25.9635
  0
LINE
  8
0
 10
78.2474
 20
-25.9635
 11
78.218
 21
-25.908
  0
LINE
  8
0
 10
78.218
 20
-25.908
 11
78.1903
 21
-25.8515
  0
LINE
  8
0
 10
78.1903
 20
-25.8515
 11
78.1645
 21
-25.7943
  0
LINE
  8
0
 10
78.1645
 20
-25.7943
 11
78.1404
 21
-25.7362
  0
LINE
  8
0
 10
78.1404
 20
-25.7362
 11
78.1182
 21
-25.6775
  0
LINE
  8
0
 10
78.1182
 20
-25.6775
 11
78.0979
 21
-25.618
  0
LINE
  8
0
 10
78.0979
 20
-25.618
 11
78.0794
 21
-25.558
  0
LINE
  8
0
 10
78.0794
 20
-25.558
 11
78.0628
 21
-25.4974
  0
LINE
  8
0
 10
78.0628
 20
-25.4974
 11
78.0482
 21
-25.4363
  0
LINE
  8
0
 10
78.0482
 20
-25.4363
 11
78.0354
 21
-25.3748
  0
LINE
  8
0
 10
78.0354
 20
-25.3748
 11
78.0246
 21
-25.3129
  0
LINE
  8
0
 10
78.0246
 20
-25.3129
 11
78.0158
 21
-25.2507
  0
LINE
  8
0
 10
78.0158
 20
-25.2507
 11
78.0089
 21
-25.1882
  0
LINE
  8
0
 10
78.0089
 20
-25.1882
 11
78.0039
 21
-25.1256
  0
LINE
  8
0
 10
78.0039
 20
-25.1256
 11
78.001
 21
-25.0628
  0
LINE
  8
0
 10
78.001
 20
-25.0628
 11
78
 21
-25
  0
LINE
  8
0
 10
78
 20
-25
 11
78.001
 21
-24.9372
  0
LINE
  8
0
 10
78.001
 20
-24.9372
 11
78.0039
 21
-24.8744
  0
LINE
  8
0
 10
78.0039
 20
-24.8744
 11
78.0089
 21
-24.8118
  0
LINE
  8
0
 10
78.0089
 20
-24.8118
 11
78.0158
 21
-24.7493
  0
LINE
  8
0
 10
78.0158
 20
-24.7493
 11
78.0246
 21
-24.6871
  0
LINE
  8
0
 10
78.0246
 20
-24.6871
 11
78.0354
 21
-24.6252
  0
LINE
  8
0
 10
78.0354
 20
-24.6252
 11
78.0482
 21
-24.5637
  0
LINE
  8
0
 10
78.0482
 20
-24.5637
 11
78.0628
 21
-24.5026
  0
LINE
  8
0
 10
78.0628
 20
-24.5026
 11
78.0794
 21
-24.442
  0
LINE
  8
0
 10
78.0794
 20
-24.442
 11
78.0979
 21
-24.382
  0
LINE
  8
0
 10
78.0979
 20
-24.382
 11
78.1182
 21
-24.3225
  0
LINE
  8
0
 10
78.1182
 20
-24.3225
 11
78.1404
 21
-24.2637
  0
LINE
  8
0
 10
78.1404
 20
-24.2637
 11
78.1645
 21
-24.2057
  0
LINE
  8
0
 10
78.1645
 20
-24.2057
 11
78.1903
 21
-24.1484
  0
LINE
  8
0
 10
78.1903
 20
-24.1484
 11
78.218
 21
-24.092
  0
LINE
  8
0
 10
78.218
 20
-24.092
 11
78.2474
 21
-24.0365
  0
LINE
  8
0
 10
78.2474
 20
-24.0365
 11
78.2785
 21
-23.9819
  0
LINE
  8
0
 10
78.2785
 20
-23.9819
 11
78.3113
 21
-23.9283
  0
LINE
  8
0
 10
78.3113
 20
-23.9283
 11
78.3458
 21
-23.8758
  0
LINE
  8
0
 10
78.3458
 20
-23.8758
 11
78.382
 21
-23.8244
  0
LINE
  8
0
 10
78.382
 20
-23.8244
 11
78.4197
 21
-23.7742
  0
LINE
  8
0
 10
78.4197
 20
-23.7742
 11
78.459
 21
-23.7251
  0
LINE
  8
0
 10
78.459
 20
-23.7251
 11
78.4998
 21
-23.6774
  0
LINE
  8
0
 10
78.4998
 20
-23.6774
 11
78.5421
 21
-23.6309
  0
LINE
  8
0
 10
78.5421
 20
-23.6309
 11
78.5858
 21
-23.5858
  0
LINE
  8
0
 10
78.5858
 20
-23.5858
 11
78.6309
 21
-23.5421
  0
LINE
  8
0
 10
78.6309
 20
-23.5421
 11
78.6774
 21
-23.4998
  0
LINE
  8
0
 10
78.6774
 20
-23.4998
 11
78.7251
 21
-23.459
  0
LINE
  8
0
 10
78.7251
 20
-23.459
 11
78.7742
 21
-23.4197
  0
LINE
  8
0
 10
78.7742
 20
-23.4197
 11
78.8244
 21
-23.382
  0
LINE
  8
0
 10
78.8244
 20
-23.382
 11
78.8758
 21
-23.3458
  0
LINE
  8
0
 10
78.8758
 20
-23.3458
 11
78.9283
 21
-23.3113
  0
LINE
  8
0
 10
78.9283
 20
-23.3113
 11
78.9819
 21
-23.2785
  0
LINE
  8
0
 10
78.9819
 20
-23.2785
 11
79.0365
 21
-23.2474
  0
LINE
  8
0
 10
79.0365
 20
-23.2474
 11
79.092
 21
-23.218
  0
LINE
  8
0
 10
79.092
 20
-23.218
 11
79.1484
 21
-23.1903
  0
LINE
  8
0
 10
79.1484
 20
-23.1903
 11
79.2057
 21
-23.1645
  0
LINE
  8
0
 10
79.2057
 20
-23.1645
 11
79.2637
 21
-23.1404
  0
LINE
  8
0
 10
79.2637
 20
-23.1404
 11
79.3225
 21
-23.1182
  0
LINE
  8
0
 10
79.3225
 20
-23.1182
 11
79.382
 21
-23.0979
  0
LINE
  8
0
 10
79.382
 20
-23.0979
 11
79.442
 21
-23.0794
  0
LINE
  8
0
 10
79.442
 20
-23.0794
 11
79.5026
 21
-23.0628
  0
LINE
  8
0
 10
79.5026
 20
-23.0628
 11
79.5637
 21
-23.0482
  0
LINE
  8
0
 10
79.5637
 20
-23.0482
 11
79.6252
 21
-23.0354
  0
LINE
  8
0
 10
79.6252
 20
-23.0354
 11
79.6871
 21
-23.0246
  0
LINE
  8
0
 10
79.6871
 20
-23.0246
 11
79.7493
 21
-23.0158
  0
LINE
  8
0
 10
79.7493
 20
-23.0158
 11
79.8118
 21
-23.0089
  0
LINE
  8
0
 10
79.8118
 20
-23.0089
 11
79.8744
 21
-23.0039
  0
LINE
  8
0
 10
79.8744
 20
-23.0039
 11
79.9372
 21
-23.001
  0
LINE
  8
0
 10
79.9372
 20
-23.001
 11
80
 21
-23
  0
LINE
  8
0
 10
80
 20
-23
 11
80.0628
 21
-23.001
  0
LINE
  8
0
 10
80.0628
 20
-23.001
 11
80.1256
 21
-23.0039
  0
LINE
  8
0
 10
80.1256
 20
-23.0039
 11
80.1882
 21
-23.0089
  0
LINE
  8
0
 10
80.1882
 20
-23.0089
 11
80.2507
 21
-23.0158
  0
LINE
  8
0
 10
80.2507
 20
-23.0158
 11
80.3129
 21
-23.0246
  0
LINE
  8
0
 10
80.3129
 20
-23.0246
 11
80.3748
 21
-23.0354
  0
LINE
  8
0
 10
80.3748
 20
-23.0354
 11
80.4363
 21
-23.0482
  0
LINE
  8
0
 10
80.4363
 20
-23.0482
 11
80.4974
 21
-23.0628
  0
LINE
  8
0
 10
80.4974
 20
-23.0628
 11
80.558
 21
-23.0794
  0
LINE
  8
0
 10
80.558
 20
-23.0794
 11
80.618
 21
-23.0979
  0
LINE
  8
0
 10
80.618
 20
-23.0979
 11
80.6775
 21
-23.1182
  0
LINE
  8
0
 10
80.6775
 20
-23.1182
 11
80.7362
 21
-23.1404
  0
LINE
  8
0
 10
80.7362
 20
-23.1404
 11
80.7943
 21
-23.1645
  0
LINE
  8
0
 10
80.7943
 20
-23.1645
 11
80.8515
 21
-23.1903
  0
LINE
  8
0
 10
80.8515
 20
-23.1903
 11
80.908
 21
-23.218
  0
LINE
  8
0
 10
80.908
 20
-23.218
 11
80.9635
 21
-23.2474
  0
LINE
  8
0
 10
80.9635
 20
-23.2474
 11
81.0181
 21
-23.2785
  0
LINE
  8
0
 10
81.0181
 20
-23.2785
 11
81.0716
 21
-23.3113
  0
LINE
  8
0
 10
81.0716
 20
-23.3113
 11
81.1242
 21
-23.3458
  0
LINE
  8
0
 10
81.1242
 20
-23.3458
 11
81.1756
 21
-23.382
  0
LINE
  8
0
 10
81.1756
 20
-23.382
 11
81.2258
 21
-23.4197
  0
LINE
  8
0
 10
81.2258
 20
-23.4197
 11
81.2748
 21
-23.459
  0
LINE
  8
0
 10
81.2748
 20
-23.459
 11
81.3226
 21
-23.4998
  0
LINE
  8
0
 10
81.3226
 20
-23.4998
 11
81.3691
 21
-23.5421
  0
LINE
  8
0
 10
81.3691
 20
-23.5421
 11
81.4142
 21
-23.5858
  0
LINE
  8
0
 10
81.4142
 20
-23.5858
 11
81.4579
 21
-23.6309
  0
LINE
  8
0
 10
81.4579
 20
-23.6309
 11
81.5002
 21
-23.6774
  0
LINE
  8
0
 10
81.5002
 20
-23.6774
 11
81.541
 21
-23.7251
  0
LINE
  8
0
 10
81.541
 20
-23.7251
 11
81.5803
 21
-23.7742
  0
LINE
  8
0
 10
81.5803
 20
-23.7742
 11
81.618
 21
-23.8244
  0
LINE
  8
0
 10
81.618
 20
-23.8244
 11
81.6542
 21
-23.8758
  0
LINE
  8
0
 10
81.6542
 20
-23.8758
 11
81.6886
 21
-23.9283
  0
LINE
  8
0
 10
81.6886
 20
-23.9283
 11
81.7215
 21
-23.9819
  0
LINE
  8
0
 10
81.7215
 20
-23.9819
 11
81.7526
 21
-24.0365
  0
LINE
  8
0
 10
81.7526
 20
-24.0365
 11
81.782
 21
-24.092
  0
LINE
  8
0
 10
81.782
 20
-24.092
 11
81.8096
 21
-24.1484
  0
LINE
  8
0
 10
81.8096
 20
-24.1484
 11
81.8355
 21
-24.2057
  0
LINE
  8
0
 10
81.8355
 20
-24.2057
 11
81.8595
 21
-24.2637
  0
LINE
  8
0
 10
81.8595
 20
-24.2637
 11
81.8818
 21
-24.3225
  0
LINE
  8
0
 10
81.8818
 20
-24.3225
 11
81.9021
 21
-24.382
  0
LINE
  8
0
 10
81.9021
 20
-24.382
 11
81.9206
 21
-24.442
  0
LINE
  8
0
 10
81.9206
 20
-24.442
 11
81.9372
 21
-24.5026
  0
LINE
  8
0
 10
81.9372
 20
-24.5026
 11
81.9518
 21
-24.5637
  0
LINE
  8
0
 10
81.9518
 20
-24.5637
 11
81.9646
 21
-24.6252
  0
LINE
  8
0
 10
81.9646
 20
-24.6252
 11
81.9754
 21
-24.6871
  0
LINE
  8
0
 10
81.9754
 20
-24.6871
 11
81.9842
 21
-24.7493
  0
LINE
  8
0
 10
81.9842
 20
-24.7493
 11
81.9911
 21
-24.8118
  0
LINE
  8
0
 10
81.9911
 20
-24.8118
 11
81.996
 21
-24.8744
  0
LINE
  8
0
 10
81.996
 20
-24.8744
 11
81.999
 21
-24.9372
  0
LINE
  8
0
 10
81.999
 20
-24.9372
 11
82
 21
-25
  0
LINE
  8
0
 10
82
 20
-25
 11
81.999
 21
-25.0628
  0
LINE
  8
0
 10
81.999
 20
-25.0628
 11
81.996
 21
-25.1256
  0
LINE
  8
0
 10
81.996
 20
-25.1256
 11
81.9911
 21
-25.1882
  0
LINE
  8
0
 10
81.9911
 20
-25.1882
 11
81.9842
 21
-25.2507
  0
LINE
  8
0
 10
81.9842
 20
-25.2507
 11
81.9754
 21
-25.3129
  0
LINE
  8
0
 10
81.9754
 20
-25.3129
 11
81.9646
 21
-25.3748
  0
LINE
  8
0
 10
81.9646
 20
-25.3748
 11
81.9518
 21
-25.4363
  0
LINE
  8
0
 10
81.9518
 20
-25.4363
 11
81.9372
 21
-25.4974
  0
LINE
  8
0
 10
81.9372
 20
-25.4974
 11
81.9206
 21
-25.558
  0
LINE
  8
0
 10
81.9206
 20
-25.558
 11
81.9021
 21
-25.618
  0
LINE
  8
0
 10
81.9021
 20
-25.618
 11
81.8818
 21
-25.6775
  0
LINE
  8
0
 10
81.8818
 20
-25.6775
 11
81.8595
 21
-25.7362
  0
LINE
  8
0
 10
81.8595
 20
-25.7362
 11
81.8355
 21
-25.7943
  0
LINE
  8
0
 10
81.8355
 20
-25.7943
 11
81.8096
 21
-25.8515
  0
LINE
  8
0
 10
81.8096
 20
-25.8515
 11
81.782
 21
-25.908
  0
LINE
  8
0
 10
81.782
 20
-25.908
 11
81.7526
 21
-25.9635
  0
LINE
  8
0
 10
81.7526
 20
-25.9635
 11
81.7215
 21
-26.0181
  0
LINE
  8
0
 10
81.7215
 20
-26.0181
 11
81.6886
 21
-26.0716
  0
LINE
  8
0
 10
81.6886
 20
-26.0716
 11
81.6542
 21
-26.1242
  0
LINE
  8
0
 10
81.6542
 20
-26.1242
 11
81.618
 21
-26.1756
  0
LINE
  8
0
 10
81.618
 20
-26.1756
 11
81.5803
 21
-26.2258
  0
LINE
  8
0
 10
81.5803
 20
-26.2258
 11
81.541
 21
-26.2748
  0
LINE
  8
0
 10
81.541
 20
-26.2748
 11
81.5002
 21
-26.3226
  0
LINE
  8
0
 10
81.5002
 20
-26.3226
 11
81.4579
 21
-26.3691
  0
LINE
  8
0
 10
81.4579
 20
-26.3691
 11
81.4142
 21
-26.4142
  0
LINE
  8
0
 10
81.4142
 20
-26.4142
 11
81.3691
 21
-26.4579
  0
LINE
  8
0
 10
81.3691
 20
-26.4579
 11
81.3226
 21
-26.5002
  0
LINE
  8
0
 10
81.3226
 20
-26.5002
 11
81.2748
 21
-26.541
  0
LINE
  8
0
 10
81.2748
 20
-26.541
 11
81.2258
 21
-26.5803
  0
LINE
  8
0
 10
81.2258
 20
-26.5803
 11
81.1756
 21
-26.618
  0
LINE
  8
0
 10
81.1756
 20
-26.618
 11
81.1242
 21
-26.6542
  0
LINE
  8
0
 10
81.1242
 20
-26.6542
 11
81.0716
 21
-26.6886
  0
LINE
  8
0
 10
81.0716
 20
-26.6886
 11
81.0181
 21
-26.7215
  0
LINE
  8
0
 10
81.0181
 20
-26.7215
 11
80.9635
 21
-26.7526
  0
LINE
  8
0
 10
80.9635
 20
-26.7526
 11
80.908
 21
-26.782
  0
LINE
  8
0
 10
80.908
 20
-26.782
 11
80.8515
 21
-26.8096
  0
LINE
  8
0
 10
80.8515
 20
-26.8096
 11
80.7943
 21
-26.8355
  0
LINE
  8
0
 10
80.7943
 20
-26.8355
 11
80.7362
 21
-26.8595
  0
LINE
  8
0
 10
80.7362
 20
-26.8595
 11
80.6775
 21
-26.8818
  0
LINE
  8
0
 10
80.6775
 20
-26.8818
 11
80.618
 21
-26.9021
  0
LINE
  8
0
 10
80.618
 20
-26.9021
 11
80.558
 21
-26.9206
  0
LINE
  8
0
 10
80.558
 20
-26.9206
 11
80.4974
 21
-26.9372
  0
LINE
  8
0
 10
80.4974
 20
-26.9372
 11
80.4363
 21
-26.9518
  0
LINE
  8
0
 10
80.4363
 20
-26.9518
 11
80.3748
 21
-26.9646
  0
LINE
  8
0
 10
80.3748
 20
-26.9646
 11
80.3129
 21
-26.9754
  0
LINE
  8
0
 10
80.3129
 20
-26.9754
 11
80.2507
 21
-26.9842
  0
LINE
  8
0
 10
80.2507
 20
-26.9842
 11
80.1882
 21
-26.9911
  0
LINE
  8
0
 10
80.1882
 20
-26.9911
 11
80.1256
 21
-26.996
  0
LINE
  8
0
 10
80.1256
 20
-26.996
 11
80.0628
 21
-26.999
  0
LINE
  8
0
 10
80.0628
 20
-26.999
 11
80
 21
-27
  0
LINE
  8
0
 10
80
 20
-27
 11
79.9372
 21
-26.999
  0
LINE
  8
0
 10
-0.0628204
 20
-56.999
 11
-0.12558
 21
-56.996
  0
LINE
  8
0
 10
-0.12558
 20
-56.996
 11
-0.188202
 21
-56.9911
  0
LINE
  8
0
 10
-0.188202
 20
-56.9911
 11
-0.250656
 21
-56.9842
  0
LINE
  8
0
 10
-0.250656
 20
-56.9842
 11
-0.312866
 21
-56.9754
  0
LINE
  8
0
 10
-0.312866
 20
-56.9754
 11
-0.374756
 21
-56.9646
  0
LINE
  8
0
 10
-0.374756
 20
-56.9646
 11
-0.436279
 21
-56.9518
  0
LINE
  8
0
 10
-0.436279
 20
-56.9518
 11
-0.497375
 21
-56.9372
  0
LINE
  8
0
 10
-0.497375
 20
-56.9372
 11
-0.557968
 21
-56.9206
  0
LINE
  8
0
 10
-0.557968
 20
-56.9206
 11
-0.618027
 21
-56.9021
  0
LINE
  8
0
 10
-0.618027
 20
-56.9021
 11
-0.677475
 21
-56.8818
  0
LINE
  8
0
 10
-0.677475
 20
-56.8818
 11
-0.736237
 21
-56.8595
  0
LINE
  8
0
 10
-0.736237
 20
-56.8595
 11
-0.794281
 21
-56.8355
  0
LINE
  8
0
 10
-0.794281
 20
-56.8355
 11
-0.851547
 21
-56.8096
  0
LINE
  8
0
 10
-0.851547
 20
-56.8096
 11
-0.907974
 21
-56.782
  0
LINE
  8
0
 10
-0.907974
 20
-56.782
 11
-0.963501
 21
-56.7526
  0
LINE
  8
0
 10
-0.963501
 20
-56.7526
 11
-1.01808
 21
-56.7215
  0
LINE
  8
0
 10
-1.01808
 20
-56.7215
 11
-1.07164
 21
-56.6886
  0
LINE
  8
0
 10
-1.07164
 20
-56.6886
 11
-1.12416
 21
-56.6542
  0
LINE
  8
0
 10
-1.12416
 20
-56.6542
 11
-1.17557
 21
-56.618
  0
LINE
  8
0
 10
-1.17557
 20
-56.618
 11
-1.2258
 21
-56.5803
  0
LINE
  8
0
 10
-1.2258
 20
-56.5803
 11
-1.27484
 21
-56.541
  0
LINE
  8
0
 10
-1.27484
 20
-56.541
 11
-1.32262
 21
-56.5002
  0
LINE
  8
0
 10
-1.32262
 20
-56.5002
 11
-1.36908
 21
-56.4579
  0
LINE
  8
0
 10
-1.36908
 20
-56.4579
 11
-1.4142
 21
-56.4142
  0
LINE
  8
0
 10
-1.4142
 20
-56.4142
 11
-1.45793
 21
-56.3691
  0
LINE
  8
0
 10
-1.45793
 20
-56.3691
 11
-1.50021
 21
-56.3226
  0
LINE
  8
0
 10
-1.50021
 20
-56.3226
 11
-1.54102
 21
-56.2748
  0
LINE
  8
0
 10
-1.54102
 20
-56.2748
 11
-1.58031
 21
-56.2258
  0
LINE
  8
0
 10
-1.58031
 20
-56.2258
 11
-1.61803
 21
-56.1756
  0
LINE
  8
0
 10
-1.61803
 20
-56.1756
 11
-1.65416
 21
-56.1242
  0
LINE
  8
0
 10
-1.65416
 20
-56.1242
 11
-1.68864
 21
-56.0716
  0
LINE
  8
0
 10
-1.68864
 20
-56.0716
 11
-1.72148
 21
-56.0181
  0
LINE
  8
0
 10
-1.72148
 20
-56.0181
 11
-1.75261
 21
-55.9635
  0
LINE
  8
0
 10
-1.75261
 20
-55.9635
 11
-1.78201
 21
-55.908
  0
LINE
  8
0
 10
-1.78201
 20
-55.908
 11
-1.80965
 21
-55.8515
  0
LINE
  8
0
 10
-1.80965
 20
-55.8515
 11
-1.83549
 21
-55.7943
  0
LINE
  8
0
 10
-1.83549
 20
-55.7943
 11
-1.85954
 21
-55.7362
  0
LINE
  8
0
 10
-1.85954
 20
-55.7362
 11
-1.88176
 21
-55.6775
  0
LINE
  8
0
 10
-1.88176
 20
-55.6775
 11
-1.9021
 21
-55.618
  0
LINE
  8
0
 10
-1.9021
 20
-55.618
 11
-1.92058
 21
-55.558
  0
LINE
  8
0
 10
-1.92058
 20
-55.558
 11
-1.93716
 21
-55.4974
  0
LINE
  8
0
 10
-1.93716
 20
-55.4974
 11
-1.95183
 21
-55.4363
  0
LINE
  8
0
 10
-1.95183
 20
-55.4363
 11
-1.96457
 21
-55.3748
  0
LINE
  8
0
 10
-1.96457
 20
-55.3748
 11
-1.97537
 21
-55.3129
  0
LINE
  8
0
 10
-1.97537
 20
-55.3129
 11
-1.98422
 21
-55.2507
  0
LINE
  8
0
 10
-1.98422
 20
-55.2507
 11
-1.99112
 21
-55.1882
  0
LINE
  8
0
 10
-1.99112
 20
-55.1882
 11
-1.99605
 21
-55.1256
  0
LINE
  8
0
 10
-1.99605
 20
-55.1256
 11
-1.99901
 21
-55.0628
  0
LINE
  8
0
 10
-1.99901
 20
-55.0628
 11
-2
 21
-55
  0
LINE
  8
0
 10
-2
 20
-55
 11
-1.99901
 21
-54.9372
  0
LINE
  8
0
 10
-1.99901
 20
-54.9372
 11
-1.99605
 21
-54.8744
  0
LINE
  8
0
 10
-1.99605
 20
-54.8744
 11
-1.99112
 21
-54.8118
  0
LINE
  8
0
 10
-1.99112
 20
-54.8118
 11
-1.98422
 21
-54.7493
  0
LINE
  8
0
 10
-1.98422
 20
-54.7493
 11
-1.97537
 21
-54.6871
  0
LINE
  8
0
 10
-1.97537
 20
-54.6871
 11
-1.96457
 21
-54.6252
  0
LINE
  8
0
 10
-1.96457
 20
-54.6252
 11
-1.95183
 21
-54.5637
  0
LINE
  8
0
 10
-1.95183
 20
-54.5637
 11
-1.93716
 21
-54.5026
  0
LINE
  8
0
 10
-1.93716
 20
-54.5026
 11
-1.92058
 21
-54.442
  0
LINE
  8
0
 10
-1.92058
 20
-54.442
 11
-1.9021
 21
-54.382
  0
LINE
  8
0
 10
-1.9021
 20
-54.382
 11
-1.88176
 21
-54.3225
  0
LINE
  8
0
 10
-1.88176
 20
-54.3225
 11
-1.85954
 21
-54.2637
  0
LINE
  8
0
 10
-1.85954
 20
-54.2637
 11
-1.83549
 21
-54.2057
  0
LINE
  8
0
 10
-1.83549
 20
-54.2057
 11
-1.80965
 21
-54.1484
  0
LINE
  8
0
 10
-1.80965
 20
-54.1484
 11
-1.78201
 21
-54.092
  0
LINE
  8
0
 10
-1.78201
 20
-54.092
 11
-1.75261
 21
-54.0365
  0
LINE
  8
0
 10
-1.75261
 20
-54.0365
 11
-1.72148
 21
-53.9819
  0
LINE
  8
0
 10
-1.72148
 20
-53.9819
 11
-1.68864
 21
-53.9283
  0
LINE
  8
0
 10
-1.68864
 20
-53.9283
 11
-1.65416
 21
-53.8758
  0
LINE
  8
0
 10
-1.65416
 20
-53.8758
 11
-1.61803
 21
-53.8244
  0
LINE
  8
0
 10
-1.61803
 20
-53.8244
 11
-1.58031
 21
-53.7742
  0
LINE
  8
0
 10
-1.58031
 20
-53.7742
 11
-1.54102
 21
-53.7251
  0
LINE
  8
0
 10
-1.54102
 20
-53.7251
 11
-1.50021
 21
-53.6774
  0
LINE
  8
0
 10
-1.50021
 20
-53.6774
 11
-1.45793
 21
-53.6309
  0
LINE
  8
0
 10
-1.45793
 20
-53.6309
 11
-1.4142
 21
-53.5858
  0
LINE
  8
0
 10
-1.4142
 20
-53.5858
 11
-1.36908
 21
-53.5421
  0
LINE
  8
0
 10
-1.36908
 20
-53.5421
 11
-1.32262
 21
-53.4998
  0
LINE
  8
0
 10
-1.32262
 20
-53.4998
 11
-1.27484
 21
-53.459
  0
LINE
  8
0
 10
-1.27484
 20
-53.459
 11
-1.2258
 21
-53.4197
  0
LINE
  8
0
 10
-1.2258
 20
-53.4197
 11
-1.17557
 21
-53.382
  0
LINE
  8
0
 10
-1.17557
 20
-53.382
 11
-1.12416
 21
-53.3458
  0
LINE
  8
0
 10
-1.12416
 20
-53.3458
 11
-1.07164
 21
-53.3113
  0
LINE
  8
0
 10
-1.07164
 20
-53.3113
 11
-1.01808
 21
-53.2785
  0
LINE
  8
0
 10
-1.01808
 20
-53.2785
 11
-0.963501
 21
-53.2474
  0
LINE
  8
0
 10
-0.963501
 20
-53.2474
 11
-0.907974
 21
-53.218
  0
LINE
  8
0
 10
-0.907974
 20
-53.218
 11
-0.851547
 21
-53.1903
  0
LINE
  8
0
 10
-0.851547
 20
-53.1903
 11
-0.794281
 21
-53.1645
  0
LINE
  8
0
 10
-0.794281
 20
-53.1645
 11
-0.736237
 21
-53.1404
  0
LINE
  8
0
 10
-0.736237
 20
-53.1404
 11
-0.677475
 21
-53.1182
  0
LINE
  8
0
 10
-0.677475
 20
-53.1182
 11
-0.618027
 21
-53.0979
  0
LINE
  8
0
 10
-0.618027
 20
-53.0979
 11
-0.557968
 21
-53.0794
  0
LINE
  8
0
 10
-0.557968
 20
-53.0794
 11
-0.497375
 21
-53.0628
  0
LINE
  8
0
 10
-0.497375
 20
-53.0628
 11
-0.436279
 21
-53.0482
  0
LINE
  8
0
 10
-0.436279
 20
-53.0482
 11
-0.374756
 21
-53.0354
  0
LINE
  8
0
 10
-0.374756
 20
-53.0354
 11
-0.312866
 21
-53.0246
  0
LINE
  8
0
 10
-0.312866
 20
-53.0246
 11
-0.250656
 21
-53.0158
  0
LINE
  8
0
 10
-0.250656
 20
-53.0158
 11
-0.188202
 21
-53.0089
  0
LINE
  8
0
 10
-0.188202
 20
-53.0089
 11
-0.12558
 21
-53.0039
  0
LINE
  8
0
 10
-0.12558
 20
-53.0039
 11
-0.0628204
 21
-53.001
  0
LINE
  8
0
 10
-0.0628204
 20
-53.001
 11
0
 21
-53
  0
LINE
  8
0
 10
0
 20
-53
 11
0.0628204
 21
-53.001
  0
LINE
  8
0
 10
0.0628204
 20
-53.001
 11
0.12558
 21
-53.0039
  0
LINE
  8
0
 10
0.12558
 20
-53.0039
 11
0.188202
 21
-53.0089
  0
LINE
  8
0
 10
0.188202
 20
-53.0089
 11
0.250656
 21
-53.0158
  0
LINE
  8
0
 10
0.250656
 20
-53.0158
 11
0.312866
 21
-53.0246
  0
LINE
  8
0
 10
0.312866
 20
-53.0246
 11
0.374756
 21
-53.0354
  0
LINE
  8
0
 10
0.374756
 20
-53.0354
 11
0.436279
 21
-53.0482
  0
LINE
  8
0
 10
0.436279
 20
-53.0482
 11
0.497375
 21
-53.0628
  0
LINE
  8
0
 10
0.497375
 20
-53.0628
 11
0.557968
 21
-53.0794
  0
LINE
  8
0
 10
0.557968
 20
-53.0794
 11
0.618027
 21
-53.0979
  0
LINE
  8
0
 10
0.618027
 20
-53.0979
 11
0.677475
 21
-53.1182
  0
LINE
  8
0
 10
0.677475
 20
-53.1182
 11
0.736237
 21
-53.1404
  0
LINE
  8
0
 10
0.736237
 20
-53.1404
 11
0.794281
 21
-53.1645
  0
LINE
  8
0
 10
0.794281
 20
-53.1645
 11
0.851547
 21
-53.1903
  0
LINE
  8
0
 10
0.851547
 20
-53.1903
 11
0.907974
 21
-53.218
  0
LINE
  8
0
 10
0.907974
 20
-53.218
 11
0.963501
 21
-53.2474
  0
LINE
  8
0
 10
0.963501
 20
-53.2474
 11
1.01808
 21
-53.2785
  0
LINE
  8
0
 10
1.01808
 20
-53.2785
 11
1.07164
 21
-53.3113
  0
LINE
  8
0
 10
1.07164
 20
-53.3113
 11
1.12416
 21
-53.3458
  0
LINE
  8
0
 10
1.12416
 20
-53.3458
 11
1.17557
 21
-53.382
  0
LINE
  8
0
 10
1.17557
 20
-53.382
 11
1.2258
 21
-53.4197
  0
LINE
  8
0
 10
1.2258
 20
-53.4197
 11
1.27484
 21
-53.459
  0
LINE
  8
0
 10
1.27484
 20
-53.459
 11
1.32262
 21
-53.4998
  0
LINE
  8
0
 10
1.32262
 20
-53.4998
 11
1.36908
 21
-53.5421
  0
LINE
  8
0
 10
1.36908
 20
-53.5421
 11
1.4142
 21
-53.5858
  0
LINE
  8
0
 10
1.4142
 20
-53.5858
 11
1.45793
 21
-53.6309
  0
LINE
  8
0
 10
1.45793
 20
-53.6309
 11
1.50021
 21
-53.6774
  0
LINE
  8
0
 10
1.50021
 20
-53.6774
 11
1.54102
 21
-53.7251
  0
LINE
  8
0
 10
1.54102
 20
-53.7251
 11
1.58031
 21
-53.7742
  0
LINE
  8
0
 10
1.58031
 20
-53.7742
 11
1.61803
 21
-53.8244
  0
LINE
  8
0
 10
1.61803
 20
-53.8244
 11
1.65416
 21
-53.8758
  0
LINE
  8
0
 10
1.65416
 20
-53.8758
 11
1.68864
 21
-53.9283
  0
LINE
  8
0
 10
1.68864
 20
-53.9283
 11
1.72148
 21
-53.9819
  0
LINE
  8
0
 10
1.72148
 20
-53.9819
 11
1.75261
 21
-54.0365
  0
LINE
  8
0
 10
1.75261
 20
-54.0365
 11
1.78201
 21
-54.092
  0
LINE
  8
0
 10
1.78201
 20
-54.092
 11
1.80965
 21
-54.1484
  0
LINE
  8
0
 10
1.80965
 20
-54.1484
 11
1.83549
 21
-54.2057
  0
LINE
  8
0
 10
1.83549
 20
-54.2057
 11
1.85954
 21
-54.2637
  0
LINE
  8
0
 10
1.85954
 20
-54.2637
 11
1.88176
 21
-54.3225
  0
LINE
  8
0
 10
1.88176
 20
-54.3225
 11
1.9021
 21
-54.382
  0
LINE
  8
0
 10
1.9021
 20
-54.382
 11
1.92058
 21
-54.442
  0
LINE
  8
0
 10
1.92058
 20
-54.442
 11
1.93716
 21
-54.5026
  0
LINE
  8
0
 10
1.93716
 20
-54.5026
 11
1.95183
 21
-54.5637
  0
LINE
  8
0
 10
1.95183
 20
-54.5637
 11
1.96457
 21
-54.6252
  0
LINE
  8
0
 10
1.96457
 20
-54.6252
 11
1.97537
 21
-54.6871
  0
LINE
  8
0
 10
1.97537
 20
-54.6871
 11
1.98422
 21
-54.7493
  0
LINE
  8
0
 10
1.98422
 20
-54.7493
 11
1.99112
 21
-54.8118
  0
LINE
  8
0
 10
1.99112
 20
-54.8118
 11
1.99605
 21
-54.8744
  0
LINE
  8
0
 10
1.99605
 20
-54.8744
 11
1.99901
 21
-54.9372
  0
LINE
  8
0
 10
1.99901
 20
-54.9372
 11
2
 21
-55
  0
LINE
  8
0
 10
2
 20
-55
 11
1.99901
 21
-55.0628
  0
LINE
  8
0
 10
1.99901
 20
-55.0628
 11
1.99605
 21
-55.1256
  0
LINE
  8
0
 10
1.99605
 20
-55.1256
 11
1.99112
 21
-55.1882
  0
LINE
  8
0
 10
1.99112
 20
-55.1882
 11
1.98422
 21
-55.2507
  0
LINE
  8
0
 10
1.98422
 20
-55.2507
 11
1.97537
 21
-55.3129
  0
LINE
  8
0
 10
1.97537
 20
-55.3129
 11
1.96457
 21
-55.3748
  0
LINE
  8
0
 10
1.96457
 20
-55.3748
 11
1.95183
 21
-55.4363
  0
LINE
  8
0
 10
1.95183
 20
-55.4363
 11
1.93716
 21
-55.4974
  0
LINE
  8
0
 10
1.93716
 20
-55.4974
 11
1.92058
 21
-55.558
  0
LINE
  8
0
 10
1.92058
 20
-55.558
 11
1.9021
 21
-55.618
  0
LINE
  8
0
 10
1.9021
 20
-55.618
 11
1.88176
 21
-55.6775
  0
LINE
  8
0
 10
1.88176
 20
-55.6775
 11
1.85954
 21
-55.7362
  0
LINE
  8
0
 10
1.85954
 20
-55.7362
 11
1.83549
 21
-55.7943
  0
LINE
  8
0
 10
1.83549
 20
-55.7943
 11
1.80965
 21
-55.8515
  0
LINE
  8
0
 10
1.80965
 20
-55.8515
 11
1.78201
 21
-55.908
  0
LINE
  8
0
 10
1.78201
 20
-55.908
 11
1.75261
 21
-55.9635
  0
LINE
  8
0
 10
1.75261
 20
-55.9635
 11
1.72148
 21
-56.0181
  0
LINE
  8
0
 10
1.72148
 20
-56.0181
 11
1.68864
 21
-56.0716
  0
LINE
  8
0
 10
1.68864
 20
-56.0716
 11
1.65416
 21
-56.1242
  0
LINE
  8
0
 10
1.65416
 20
-56.1242
 11
1.61803
 21
-56.1756
  0
LINE
  8
0
 10
1.61803
 20
-56.1756
 11
1.58031
 21
-56.2258
  0
LINE
  8
0
 10
1.58031
 20
-56.2258
 11
1.54102
 21
-56.2748
  0
LINE
  8
0
 10
1.54102
 20
-56.2748
 11
1.50021
 21
-56.3226
  0
LINE
  8
0
 10
1.50021
 20
-56.3226
 11
1.45793
 21
-56.3691
  0
LINE
  8
0
 10
1.45793
 20
-56.3691
 11
1.4142
 21
-56.4142
  0
LINE
  8
0
 10
1.4142
 20
-56.4142
 11
1.36908
 21
-56.4579
  0
LINE
  8
0
 10
1.36908
 20
-56.4579
 11
1.32262
 21
-56.5002
  0
LINE
  8
0
 10
1.32262
 20
-56.5002
 11
1.27484
 21
-56.541
  0
LINE
  8
0
 10
1.27484
 20
-56.541
 11
1.2258
 21
-56.5803
  0
LINE
  8
0
 10
1.2258
 20
-56.5803
 11
1.17557
 21
-56.618
  0
LINE
  8
0
 10
1.17557
 20
-56.618
 11
1.12416
 21
-56.6542
  0
LINE
  8
0
 10
1.12416
 20
-56.6542
 11
1.07164
 21
-56.6886
  0
LINE
  8
0
 10
1.07164
 20
-56.6886
 11
1.01808
 21
-56.7215
  0
LINE
  8
0
 10
1.01808
 20
-56.7215
 11
0.963501
 21
-56.7526
  0
LINE
  8
0
 10
0.963501
 20
-56.7526
 11
0.907974
 21
-56.782
  0
LINE
  8
0
 10
0.907974
 20
-56.782
 11
0.851547
 21
-56.8096
  0
LINE
  8
0
 10
0.851547
 20
-56.8096
 11
0.794281
 21
-56.8355
  0
LINE
  8
0
 10
0.794281
 20
-56.8355
 11
0.736237
 21
-56.8595
  0
LINE
  8
0
 10
0.736237
 20
-56.8595
 11
0.677475
 21
-56.8818
  0
LINE
  8
0
 10
0.677475
 20
-56.8818
 11
0.618027
 21
-56.9021
  0
LINE
  8
0
 10
0.618027
 20
-56.9021
 11
0.557968
 21
-56.9206
  0
LINE
  8
0
 10
0.557968
 20
-56.9206
 11
0.497375
 21
-56.9372
  0
LINE
  8
0
 10
0.497375
 20
-56.9372
 11
0.436279
 21
-56.9518
  0
LINE
  8
0
 10
0.436279
 20
-56.9518
 11
0.374756
 21
-56.9646
  0
LINE
  8
0
 10
0.374756
 20
-56.9646
 11
0.312866
 21
-56.9754
  0
LINE
  8
0
 10
0.312866
 20
-56.9754
 11
0.250656
 21
-56.9842
  0
LINE
  8
0
 10
0.250656
 20
-56.9842
 11
0.188202
 21
-56.9911
  0
LINE
  8
0
 10
0.188202
 20
-56.9911
 11
0.12558
 21
-56.996
  0
LINE
  8
0
 10
0.12558
 20
-56.996
 11
0.0628204
 21
-56.999
  0
LINE
  8
0
 10
0.0628204
 20
-56.999
 11
0
 21
-57
  0
LINE
  8
0
 10
0
 20
-57
 11
-0.0628204
 21
-56.999
  0
LINE
  8
0
 10
-50.0628
 20
-56.999
 11
-50.1256
 21
-56.996
  0
LINE
  8
0
 10
-50.1256
 20
-56.996
 11
-50.1882
 21
-56.9911
  0
LINE
  8
0
 10
-50.1882
 20
-56.9911
 11
-50.2507
 21
-56.9842
  0
LINE
  8
0
 10
-50.2507
 20
-56.9842
 11
-50.3129
 21
-56.9754
  0
LINE
  8
0
 10
-50.3129
 20
-56.9754
 11
-50.3748
 21
-56.9646
  0
LINE
  8
0
 10
-50.3748
 20
-56.9646
 11
-50.4363
 21
-56.9518
  0
LINE
  8
0
 10
-50.4363
 20
-56.9518
 11
-50.4974
 21
-56.9372
  0
LINE
  8
0
 10
-50.4974
 20
-56.9372
 11
-50.558
 21
-56.9206
  0
LINE
  8
0
 10
-50.558
 20
-56.9206
 11
-50.618
 21
-56.9021
  0
LINE
  8
0
 10
-50.618
 20
-56.9021
 11
-50.6775
 21
-56.8818
  0
LINE
  8
0
 10
-50.6775
 20
-56.8818
 11
-50.7362
 21
-56.8595
  0
LINE
  8
0
 10
-50.7362
 20
-56.8595
 11
-50.7943
 21
-56.8355
  0
LINE
  8
0
 10
-50.7943
 20
-56.8355
 11
-50.8515
 21
-56.8096
  0
LINE
  8
0
 10
-50.8515
 20
-56.8096
 11
-50.908
 21
-56.782
  0
LINE
  8
0
 10
-50.908
 20
-56.782
 11
-50.9635
 21
-56.7526
  0
LINE
  8
0
 10
-50.9635
 20
-56.7526
 11
-51.0181
 21
-56.7215
  0
LINE
  8
0
 10
-51.0181
 20
-56.7215
 11
-51.0716
 21
-56.6886
  0
LINE
  8
0
 10
-51.0716
 20
-56.6886
 11
-51.1242
 21
-56.6542
  0
LINE
  8
0
 10
-51.1242
 20
-56.6542
 11
-51.1756
 21
-56.618
  0
LINE
  8
0
 10
-51.1756
 20
-56.618
 11
-51.2258
 21
-56.5803
  0
LINE
  8
0
 10
-51.2258
 20
-56.5803
 11
-51.2748
 21
-56.541
  0
LINE
  8
0
 10
-51.2748
 20
-56.541
 11
-51.3226
 21
-56.5002
  0
LINE
  8
0
 10
-51.3226
 20
-56.5002
 11
-51.3691
 21
-56.4579
  0
LINE
  8
0
 10
-51.3691
 20
-56.4579
 11
-51.4142
 21
-56.4142
  0
LINE
  8
0
 10
-51.4142
 20
-56.4142
 11
-51.4579
 21
-56.3691
  0
LINE
  8
0
 10
-51.4579
 20
-56.3691
 11
-51.5002
 21
-56.3226
  0
LINE
  8
0
 10
-51.5002
 20
-56.3226
 11
-51.541
 21
-56.2748
  0
LINE
  8
0
 10
-51.541
 20
-56.2748
 11
-51.5803
 21
-56.2258
  0
LINE
  8
0
 10
-51.5803
 20
-56.2258
 11
-51.618
 21
-56.1756
  0
LINE
  8
0
 10
-51.618
 20
-56.1756
 11
-51.6542
 21
-56.1242
  0
LINE
  8
0
 10
-51.6542
 20
-56.1242
 11
-51.6886
 21
-56.0716
  0
LINE
  8
0
 10
-51.6886
 20
-56.0716
 11
-51.7215
 21
-56.0181
  0
LINE
  8
0
 10
-51.7215
 20
-56.0181
 11
-51.7526
 21
-55.9635
  0
LINE
  8
0
 10
-51.7526
 20
-55.9635
 11
-51.782
 21
-55.908
  0
LINE
  8
0
 10
-51.782
 20
-55.908
 11
-51.8096
 21
-55.8515
  0
LINE
  8
0
 10
-51.8096
 20
-55.8515
 11
-51.8355
 21
-55.7943
  0
LINE
  8
0
 10
-51.8355
 20
-55.7943
 11
-51.8595
 21
-55.7362
  0
LINE
  8
0
 10
-51.8595
 20
-55.7362
 11
-51.8818
 21
-55.6775
  0
LINE
  8
0
 10
-51.8818
 20
-55.6775
 11
-51.9021
 21
-55.618
  0
LINE
  8
0
 10
-51.9021
 20
-55.618
 11
-51.9206
 21
-55.558
  0
LINE
  8
0
 10
-51.9206
 20
-55.558
 11
-51.9372
 21
-55.4974
  0
LINE
  8
0
 10
-51.9372
 20
-55.4974
 11
-51.9518
 21
-55.4363
  0
LINE
  8
0
 10
-51.9518
 20
-55.4363
 11
-51.9646
 21
-55.3748
  0
LINE
  8
0
 10
-51.9646
 20
-55.3748
 11
-51.9754
 21
-55.3129
  0
LINE
  8
0
 10
-51.9754
 20
-55.3129
 11
-51.9842
 21
-55.2507
  0
LINE
  8
0
 10
-51.9842
 20
-55.2507
 11
-51.9911
 21
-55.1882
  0
LINE
  8
0
 10
-51.9911
 20
-55.1882
 11
-51.996
 21
-55.1256
  0
LINE
  8
0
 10
-51.996
 20
-55.1256
 11
-51.999
 21
-55.0628
  0
LINE
  8
0
 10
-51.999
 20
-55.0628
 11
-52
 21
-55
  0
LINE
  8
0
 10
-52
 20
-55
 11
-51.999
 21
-54.9372
  0
LINE
  8
0
 10
-51.999
 20
-54.9372
 11
-51.996
 21
-54.8744
  0
LINE
  8
0
 10
-51.996
 20
-54.8744
 11
-51.9911
 21
-54.8118
  0
LINE
  8
0
 10
-51.9911
 20
-54.8118
 11
-51.9842
 21
-54.7493
  0
LINE
  8
0
 10
-51.9842
 20
-54.7493
 11
-51.9754
 21
-54.6871
  0
LINE
  8
0
 10
-51.9754
 20
-54.6871
 11
-51.9646
 21
-54.6252
  0
LINE
  8
0
 10
-51.9646
 20
-54.6252
 11
-51.9518
 21
-54.5637
  0
LINE
  8
0
 10
-51.9518
 20
-54.5637
 11
-51.9372
 21
-54.5026
  0
LINE
  8
0
 10
-51.9372
 20
-54.5026
 11
-51.9206
 21
-54.442
  0
LINE
  8
0
 10
-51.9206
 20
-54.442
 11
-51.9021
 21
-54.382
  0
LINE
  8
0
 10
-51.9021
 20
-54.382
 11
-51.8818
 21
-54.3225
  0
LINE
  8
0
 10
-51.8818
 20
-54.3225
 11
-51.8595
 21
-54.2637
  0
LINE
  8
0
 10
-51.8595
 20
-54.2637
 11
-51.8355
 21
-54.2057
  0
LINE
  8
0
 10
-51.8355
 20
-54.2057
 11
-51.8096
 21
-54.1484
  0
LINE
  8
0
 10
-51.8096
 20
-54.1484
 11
-51.782
 21
-54.092
  0
LINE
  8
0
 10
-51.782
 20
-54.092
 11
-51.7526
 21
-54.0365
  0
LINE
  8
0
 10
-51.7526
 20
-54.0365
 11
-51.7215
 21
-53.9819
  0
LINE
  8
0
 10
-51.7215
 20
-53.9819
 11
-51.6886
 21
-53.9283
  0
LINE
  8
0
 10
-51.6886
 20
-53.9283
 11
-51.6542
 21
-53.8758
  0
LINE
  8
0
 10
-51.6542
 20
-53.8758
 11
-51.618
 21
-53.8244
  0
LINE
  8
0
 10
-51.618
 20
-53.8244
 11
-51.5803
 21
-53.7742
  0
LINE
  8
0
 10
-51.5803
 20
-53.7742
 11
-51.541
 21
-53.7251
  0
LINE
  8
0
 10
-51.541
 20
-53.7251
 11
-51.5002
 21
-53.6774
  0
LINE
  8
0
 10
-51.5002
 20
-53.6774
 11
-51.4579
 21
-53.6309
  0
LINE
  8
0
 10
-51.4579
 20
-53.6309
 11
-51.4142
 21
-53.5858
  0
LINE
  8
0
 10
-51.4142
 20
-53.5858
 11
-51.3691
 21
-53.5421
  0
LINE
  8
0
 10
-51.3691
 20
-53.5421
 11
-51.3226
 21
-53.4998
  0
LINE
  8
0
 10
-51.3226
 20
-53.4998
 11
-51.2748
 21
-53.459
  0
LINE
  8
0
 10
-51.2748
 20
-53.459
 11
-51.2258
 21
-53.4197
  0
LINE
  8
0
 10
-51.2258
 20
-53.4197
 11
-51.1756
 21
-53.382
  0
LINE
  8
0
 10
-51.1756
 20
-53.382
 11
-51.1242
 21
-53.3458
  0
LINE
  8
0
 10
-51.1242
 20
-53.3458
 11
-51.0716
 21
-53.3113
  0
LINE
  8
0
 10
-51.0716
 20
-53.3113
 11
-51.0181
 21
-53.2785
  0
LINE
  8
0
 10
-51.0181
 20
-53.2785
 11
-50.9635
 21
-53.2474
  0
LINE
  8
0
 10
-50.9635
 20
-53.2474
 11
-50.908
 21
-53.218
  0
LINE
  8
0
 10
-50.908
 20
-53.218
 11
-50.8515
 21
-53.1903
  0
LINE
  8
0
 10
-50.8515
 20
-53.1903
 11
-50.7943
 21
-53.1645
  0
LINE
  8
0
 10
-50.7943
 20
-53.1645
 11
-50.7362
 21
-53.1404
  0
LINE
  8
0
 10
-50.7362
 20
-53.1404
 11
-50.6775
 21
-53.1182
  0
LINE
  8
0
 10
-50.6775
 20
-53.1182
 11
-50.618
 21
-53.0979
  0
LINE
  8
0
 10
-50.618
 20
-53.0979
 11
-50.558
 21
-53.0794
  0
LINE
  8
0
 10
-50.558
 20
-53.0794
 11
-50.4974
 21
-53.0628
  0
LINE
  8
0
 10
-50.4974
 20
-53.0628
 11
-50.4363
 21
-53.0482
  0
LINE
  8
0
 10
-50.4363
 20
-53.0482
 11
-50.3748
 21
-53.0354
  0
LINE
  8
0
 10
-50.3748
 20
-53.0354
 11
-50.3129
 21
-53.0246
  0
LINE
  8
0
 10
-50.3129
 20
-53.0246
 11
-50.2507
 21
-53.0158
  0
LINE
  8
0
 10
-50.2507
 20
-53.0158
 11
-50.1882
 21
-53.0089
  0
LINE
  8
0
 10
-50.1882
 20
-53.0089
 11
-50.1256
 21
-53.0039
  0
LINE
  8
0
 10
-50.1256
 20
-53.0039
 11
-50.0628
 21
-53.001
  0
LINE
  8
0
 10
-50.0628
 20
-53.001
 11
-50
 21
-53
  0
LINE
  8
0
 10
-50
 20
-53
 11
-49.9372
 21
-53.001
  0
LINE
  8
0
 10
-49.9372
 20
-53.001
 11
-49.8744
 21
-53.0039
  0
LINE
  8
0
 10
-49.8744
 20
-53.0039
 11
-49.8118
 21
-53.0089
  0
LINE
  8
0
 10
-49.8118
 20
-53.0089
 11
-49.7493
 21
-53.0158
  0
LINE
  8
0
 10
-49.7493
 20
-53.0158
 11
-49.6871
 21
-53.0246
  0
LINE
  8
0
 10
-49.6871
 20
-53.0246
 11
-49.6252
 21
-53.0354
  0
LINE
  8
0
 10
-49.6252
 20
-53.0354
 11
-49.5637
 21
-53.0482
  0
LINE
  8
0
 10
-49.5637
 20
-53.0482
 11
-49.5026
 21
-53.0628
  0
LINE
  8
0
 10
-49.5026
 20
-53.0628
 11
-49.442
 21
-53.0794
  0
LINE
  8
0
 10
-49.442
 20
-53.0794
 11
-49.382
 21
-53.0979
  0
LINE
  8
0
 10
-49.382
 20
-53.0979
 11
-49.3225
 21
-53.1182
  0
LINE
  8
0
 10
-49.3225
 20
-53.1182
 11
-49.2637
 21
-53.1404
  0
LINE
  8
0
 10
-49.2637
 20
-53.1404
 11
-49.2057
 21
-53.1645
  0
LINE
  8
0
 10
-49.2057
 20
-53.1645
 11
-49.1484
 21
-53.1903
  0
LINE
  8
0
 10
-49.1484
 20
-53.1903
 11
-49.092
 21
-53.218
  0
LINE
  8
0
 10
-49.092
 20
-53.218
 11
-49.0365
 21
-53.2474
  0
LINE
  8
0
 10
-49.0365
 20
-53.2474
 11
-48.9819
 21
-53.2785
  0
LINE
  8
0
 10
-48.9819
 20
-53.2785
 11
-48.9283
 21
-53.3113
  0
LINE
  8
0
 10
-48.9283
 20
-53.3113
 11
-48.8758
 21
-53.3458
  0
LINE
  8
0
 10
-48.8758
 20
-53.3458
 11
-48.8244
 21
-53.382
  0
LINE
  8
0
 10
-48.8244
 20
-53.382
 11
-48.7742
 21
-53.4197
  0
LINE
  8
0
 10
-48.7742
 20
-53.4197
 11
-48.7251
 21
-53.459
  0
LINE
  8
0
 10
-48.7251
 20
-53.459
 11
-48.6774
 21
-53.4998
  0
LINE
  8
0
 10
-48.6774
 20
-53.4998
 11
-48.6309
 21
-53.5421
  0
LINE
  8
0
 10
-48.6309
 20
-53.5421
 11
-48.5858
 21
-53.5858
  0
LINE
  8
0
 10
-48.5858
 20
-53.5858
 11
-48.5421
 21
-53.6309
  0
LINE
  8
0
 10
-48.5421
 20
-53.6309
 11
-48.4998
 21
-53.6774
  0
LINE
  8
0
 10
-48.4998
 20
-53.6774
 11
-48.459
 21
-53.7251
  0
LINE
  8
0
 10
-48.459
 20
-53.7251
 11
-48.4197
 21
-53.7742
  0
LINE
  8
0
 10
-48.4197
 20
-53.7742
 11
-48.382
 21
-53.8244
  0
LINE
  8
0
 10
-48.382
 20
-53.8244
 11
-48.3458
 21
-53.8758
  0
LINE
  8
0
 10
-48.3458
 20
-53.8758
 11
-48.3113
 21
-53.9283
  0
LINE
  8
0
 10
-48.3113
 20
-53.9283
 11
-48.2785
 21
-53.9819
  0
LINE
  8
0
 10
-48.2785
 20
-53.9819
 11
-48.2474
 21
-54.0365
  0
LINE
  8
0
 10
-48.2474
 20
-54.0365
 11
-48.218
 21
-54.092
  0
LINE
  8
0
 10
-48.218
 20
-54.092
 11
-48.1903
 21
-54.1484
  0
LINE
  8
0
 10
-48.1903
 20
-54.1484
 11
-48.1645
 21
-54.2057
  0
LINE
  8
0
 10
-48.1645
 20
-54.2057
 11
-48.1404
 21
-54.2637
  0
LINE
  8
0
 10
-48.1404
 20
-54.2637
 11
-48.1182
 21
-54.3225
  0
LINE
  8
0
 10
-48.1182
 20
-54.3225
 11
-48.0979
 21
-54.382
  0
LINE
  8
0
 10
-48.0979
 20
-54.382
 11
-48.0794
 21
-54.442
  0
LINE
  8
0
 10
-48.0794
 20
-54.442
 11
-48.0628
 21
-54.5026
  0
LINE
  8
0
 10
-48.0628
 20
-54.5026
 11
-48.0482
 21
-54.5637
  0
LINE
  8
0
 10
-48.0482
 20
-54.5637
 11
-48.0354
 21
-54.6252
  0
LINE
  8
0
 10
-48.0354
 20
-54.6252
 11
-48.0246
 21
-54.6871
  0
LINE
  8
0
 10
-48.0246
 20
-54.6871
 11
-48.0158
 21
-54.7493
  0
LINE
  8
0
 10
-48.0158
 20
-54.7493
 11
-48.0089
 21
-54.8118
  0
LINE
  8
0
 10
-48.0089
 20
-54.8118
 11
-48.0039
 21
-54.8744
  0
LINE
  8
0
 10
-48.0039
 20
-54.8744
 11
-48.001
 21
-54.9372
  0
LINE
  8
0
 10
-48.001
 20
-54.9372
 11
-48
 21
-55
  0
LINE
  8
0
 10
-48
 20
-55
 11
-48.001
 21
-55.0628
  0
LINE
  8
0
 10
-48.001
 20
-55.0628
 11
-48.0039
 21
-55.1256
  0
LINE
  8
0
 10
-48.0039
 20
-55.1256
 11
-48.0089
 21
-55.1882
  0
LINE
  8
0
 10
-48.0089
 20
-55.1882
 11
-48.0158
 21
-55.2507
  0
LINE
  8
0
 10
-48.0158
 20
-55.2507
 11
-48.0246
 21
-55.3129
  0
LINE
  8
0
 10
-48.0246
 20
-55.3129
 11
-48.0354
 21
-55.3748
  0
LINE
  8
0
 10
-48.0354
 20
-55.3748
 11
-48.0482
 21
-55.4363
  0
LINE
  8
0
 10
-48.0482
 20
-55.4363
 11
-48.0628
 21
-55.4974
  0
LINE
  8
0
 10
-48.0628
 20
-55.4974
 11
-48.0794
 21
-55.558
  0
LINE
  8
0
 10
-48.0794
 20
-55.558
 11
-48.0979
 21
-55.618
  0
LINE
  8
0
 10
-48.0979
 20
-55.618
 11
-48.1182
 21
-55.6775
  0
LINE
  8
0
 10
-48.1182
 20
-55.6775
 11
-48.1404
 21
-55.7362
  0
LINE
  8
0
 10
-48.1404
 20
-55.7362
 11
-48.1645
 21
-55.7943
  0
LINE
  8
0
 10
-48.1645
 20
-55.7943
 11
-48.1903
 21
-55.8515
  0
LINE
  8
0
 10
-48.1903
 20
-55.8515
 11
-48.218
 21
-55.908
  0
LINE
  8
0
 10
-48.218
 20
-55.908
 11
-48.2474
 21
-55.9635
  0
LINE
  8
0
 10
-48.2474
 20
-55.9635
 11
-48.2785
 21
-56.0181
  0
LINE
  8
0
 10
-48.2785
 20
-56.0181
 11
-48.3113
 21
-56.0716
  0
LINE
  8
0
 10
-48.3113
 20
-56.0716
 11
-48.3458
 21
-56.1242
  0
LINE
  8
0
 10
-48.3458
 20
-56.1242
 11
-48.382
 21
-56.1756
  0
LINE
  8
0
 10
-48.382
 20
-56.1756
 11
-48.4197
 21
-56.2258
  0
LINE
  8
0
 10
-48.4197
 20
-56.2258
 11
-48.459
 21
-56.2748
  0
LINE
  8
0
 10
-48.459
 20
-56.2748
 11
-48.4998
 21
-56.3226
  0
LINE
  8
0
 10
-48.4998
 20
-56.3226
 11
-48.5421
 21
-56.3691
  0
LINE
  8
0
 10
-48.5421
 20
-56.3691
 11
-48.5858
 21
-56.4142
  0
LINE
  8
0
 10
-48.5858
 20
-56.4142
 11
-48.6309
 21
-56.4579
  0
LINE
  8
0
 10
-48.6309
 20
-56.4579
 11
-48.6774
 21
-56.5002
  0
LINE
  8
0
 10
-48.6774
 20
-56.5002
 11
-48.7251
 21
-56.541
  0
LINE
  8
0
 10
-48.7251
 20
-56.541
 11
-48.7742
 21
-56.5803
  0
LINE
  8
0
 10
-48.7742
 20
-56.5803
 11
-48.8244
 21
-56.618
  0
LINE
  8
0
 10
-48.8244
 20
-56.618
 11
-48.8758
 21
-56.6542
  0
LINE
  8
0
 10
-48.8758
 20
-56.6542
 11
-48.9283
 21
-56.6886
  0
LINE
  8
0
 10
-48.9283
 20
-56.6886
 11
-48.9819
 21
-56.7215
  0
LINE
  8
0
 10
-48.9819
 20
-56.7215
 11
-49.0365
 21
-56.7526
  0
LINE
  8
0
 10
-49.0365
 20
-56.7526
 11
-49.092
 21
-56.782
  0
LINE
  8
0
 10
-49.092
 20
-56.782
 11
-49.1484
 21
-56.8096
  0
LINE
  8
0
 10
-49.1484
 20
-56.8096
 11
-49.2057
 21
-56.8355
  0
LINE
  8
0
 10
-49.2057
 20
-56.8355
 11
-49.2637
 21
-56.8595
  0
LINE
  8
0
 10
-49.2637
 20
-56.8595
 11
-49.3225
 21
-56.8818
  0
LINE
  8
0
 10
-49.3225
 20
-56.8818
 11
-49.382
 21
-56.9021
  0
LINE
  8
0
 10
-49.382
 20
-56.9021
 11
-49.442
 21
-56.9206
  0
LINE
  8
0
 10
-49.442
 20
-56.9206
 11
-49.5026
 21
-56.9372
  0
LINE
  8
0
 10
-49.5026
 20
-56.9372
 11
-49.5637
 21
-56.9518
  0
LINE
  8
0
 10
-49.5637
 20
-56.9518
 11
-49.6252
 21
-56.9646
  0
LINE
  8
0
 10
-49.6252
 20
-56.9646
 11
-49.6871
 21
-56.9754
  0
LINE
  8
0
 10
-49.6871
 20
-56.9754
 11
-49.7493
 21
-56.9842
  0
LINE
  8
0
 10
-49.7493
 20
-56.9842
 11
-49.8118
 21
-56.9911
  0
LINE
  8
0
 10
-49.8118
 20
-56.9911
 11
-49.8744
 21
-56.996
  0
LINE
  8
0
 10
-49.8744
 20
-56.996
 11
-49.9372
 21
-56.999
  0
LINE
  8
0
 10
-49.9372
 20
-56.999
 11
-50
 21
-57
  0
LINE
  8
0
 10
-50
 20
-57
 11
-50.0628
 21
-56.999
  0
LINE
  8
0
 10
49.9372
 20
-56.999
 11
49.8744
 21
-56.996
  0
LINE
  8
0
 10
49.8744
 20
-56.996
 11
49.8118
 21
-56.9911
  0
LINE
  8
0
 10
49.8118
 20
-56.9911
 11
49.7493
 21
-56.9842
  0
LINE
  8
0
 10
49.7493
 20
-56.9842
 11
49.6871
 21
-56.9754
  0
LINE
  8
0
 10
49.6871
 20
-56.9754
 11
49.6252
 21
-56.9646
  0
LINE
  8
0
 10
49.6252
 20
-56.9646
 11
49.5637
 21
-56.9518
  0
LINE
  8
0
 10
49.5637
 20
-56.9518
 11
49.5026
 21
-56.9372
  0
LINE
  8
0
 10
49.5026
 20
-56.9372
 11
49.442
 21
-56.9206
  0
LINE
  8
0
 10
49.442
 20
-56.9206
 11
49.382
 21
-56.9021
  0
LINE
  8
0
 10
49.382
 20
-56.9021
 11
49.3225
 21
-56.8818
  0
LINE
  8
0
 10
49.3225
 20
-56.8818
 11
49.2637
 21
-56.8595
  0
LINE
  8
0
 10
49.2637
 20
-56.8595
 11
49.2057
 21
-56.8355
  0
LINE
  8
0
 10
49.2057
 20
-56.8355
 11
49.1484
 21
-56.8096
  0
LINE
  8
0
 10
49.1484
 20
-56.8096
 11
49.092
 21
-56.782
  0
LINE
  8
0
 10
49.092
 20
-56.782
 11
49.0365
 21
-56.7526
  0
LINE
  8
0
 10
49.0365
 20
-56.7526
 11
48.9819
 21
-56.7215
  0
LINE
  8
0
 10
48.9819
 20
-56.7215
 11
48.9283
 21
-56.6886
  0
LINE
  8
0
 10
48.9283
 20
-56.6886
 11
48.8758
 21
-56.6542
  0
LINE
  8
0
 10
48.8758
 20
-56.6542
 11
48.8244
 21
-56.618
  0
LINE
  8
0
 10
48.8244
 20
-56.618
 11
48.7742
 21
-56.5803
  0
LINE
  8
0
 10
48.7742
 20
-56.5803
 11
48.7251
 21
-56.541
  0
LINE
  8
0
 10
48.7251
 20
-56.541
 11
48.6774
 21
-56.5002
  0
LINE
  8
0
 10
48.6774
 20
-56.5002
 11
48.6309
 21
-56.4579
  0
LINE
  8
0
 10
48.6309
 20
-56.4579
 11
48.5858
 21
-56.4142
  0
LINE
  8
0
 10
48.5858
 20
-56.4142
 11
48.5421
 21
-56.3691
  0
LINE
  8
0
 10
48.5421
 20
-56.3691
 11
48.4998
 21
-56.3226
  0
LINE
  8
0
 10
48.4998
 20
-56.3226
 11
48.459
 21
-56.2748
  0
LINE
  8
0
 10
48.459
 20
-56.2748
 11
48.4197
 21
-56.2258
  0
LINE
  8
0
 10
48.4197
 20
-56.2258
 11
48.382
 21
-56.1756
  0
LINE
  8
0
 10
48.382
 20
-56.1756
 11
48.3458
 21
-56.1242
  0
LINE
  8
0
 10
48.3458
 20
-56.1242
 11
48.3113
 21
-56.0716
  0
LINE
  8
0
 10
48.3113
 20
-56.0716
 11
48.2785
 21
-56.0181
  0
LINE
  8
0
 10
48.2785
 20
-56.0181
 11
48.2474
 21
-55.9635
  0
LINE
  8
0
 10
48.2474
 20
-55.9635
 11
48.218
 21
-55.908
  0
LINE
  8
0
 10
48.218
 20
-55.908
 11
48.1903
 21
-55.8515
  0
LINE
  8
0
 10
48.1903
 20
-55.8515
 11
48.1645
 21
-55.7943
  0
LINE
  8
0
 10
48.1645
 20
-55.7943
 11
48.1404
 21
-55.7362
  0
LINE
  8
0
 10
48.1404
 20
-55.7362
 11
48.1182
 21
-55.6775
  0
LINE
  8
0
 10
48.1182
 20
-55.6775
 11
48.0979
 21
-55.618
  0
LINE
  8
0
 10
48.0979
 20
-55.618
 11
48.0794
 21
-55.558
  0
LINE
  8
0
 10
48.0794
 20
-55.558
 11
48.0628
 21
-55.4974
  0
LINE
  8
0
 10
48.0628
 20
-55.4974
 11
48.0482
 21
-55.4363
  0
LINE
  8
0
 10
48.0482
 20
-55.4363
 11
48.0354
 21
-55.3748
  0
LINE
  8
0
 10
48.0354
 20
-55.3748
 11
48.0246
 21
-55.3129
  0
LINE
  8
0
 10
48.0246
 20
-55.3129
 11
48.0158
 21
-55.2507
  0
LINE
  8
0
 10
48.0158
 20
-55.2507
 11
48.0089
 21
-55.1882
  0
LINE
  8
0
 10
48.0089
 20
-55.1882
 11
48.0039
 21
-55.1256
  0
LINE
  8
0
 10
48.0039
 20
-55.1256
 11
48.001
 21
-55.0628
  0
LINE
  8
0
 10
48.001
 20
-55.0628
 11
48
 21
-55
  0
LINE
  8
0
 10
48
 20
-55
 11
48.001
 21
-54.9372
  0
LINE
  8
0
 10
48.001
 20
-54.9372
 11
48.0039
 21
-54.8744
  0
LINE
  8
0
 10
48.0039
 20
-54.8744
 11
48.0089
 21
-54.8118
  0
LINE
  8
0
 10
48.0089
 20
-54.8118
 11
48.0158
 21
-54.7493
  0
LINE
  8
0
 10
48.0158
 20
-54.7493
 11
48.0246
 21
-54.6871
  0
LINE
  8
0
 10
48.0246
 20
-54.6871
 11
48.0354
 21
-54.6252
  0
LINE
  8
0
 10
48.0354
 20
-54.6252
 11
48.0482
 21
-54.5637
  0
LINE
  8
0
 10
48.0482
 20
-54.5637
 11
48.0628
 21
-54.5026
  0
LINE
  8
0
 10
48.0628
 20
-54.5026
 11
48.0794
 21
-54.442
  0
LINE
  8
0
 10
48.0794
 20
-54.442
 11
48.0979
 21
-54.382
  0
LINE
  8
0
 10
48.0979
 20
-54.382
 11
48.1182
 21
-54.3225
  0
LINE
  8
0
 10
48.1182
 20
-54.3225
 11
48.1404
 21
-54.2637
  0
LINE
  8
0
 10
48.1404
 20
-54.2637
 11
48.1645
 21
-54.2057
  0
LINE
  8
0
 10
48.1645
 20
-54.2057
 11
48.1903
 21
-54.1484
  0
LINE
  8
0
 10
48.1903
 20
-54.1484
 11
48.218
 21
-54.092
  0
LINE
  8
0
 10
48.218
 20
-54.092
 11
48.2474
 21
-54.0365
  0
LINE
  8
0
 10
48.2474
 20
-54.0365
 11
48.2785
 21
-53.9819
  0
LINE
  8
0
 10
48.2785
 20
-53.9819
 11
48.3113
 21
-53.9283
  0
LINE
  8
0
 10
48.3113
 20
-53.9283
 11
48.3458
 21
-53.8758
  0
LINE
  8
0
 10
48.3458
 20
-53.8758
 11
48.382
 21
-53.8244
  0
LINE
  8
0
 10
48.382
 20
-53.8244
 11
48.4197
 21
-53.7742
  0
LINE
  8
0
 10
48.4197
 20
-53.7742
 11
48.459
 21
-53.7251
  0
LINE
  8
0
 10
48.459
 20
-53.7251
 11
48.4998
 21
-53.6774
  0
LINE
  8
0
 10
48.4998
 20
-53.6774
 11
48.5421
 21
-53.6309
  0
LINE
  8
0
 10
48.5421
 20
-53.6309
 11
48.5858
 21
-53.5858
  0
LINE
  8
0
 10
48.5858
 20
-53.5858
 11
48.6309
 21
-53.5421
  0
LINE
  8
0
 10
48.6309
 20
-53.5421
 11
48.6774
 21
-53.4998
  0
LINE
  8
0
 10
48.6774
 20
-53.4998
 11
48.7251
 21
-53.459
  0
LINE
  8
0
 10
48.7251
 20
-53.459
 11
48.7742
 21
-53.4197
  0
LINE
  8
0
 10
48.7742
 20
-53.4197
 11
48.8244
 21
-53.382
  0
LINE
  8
0
 10
48.8244
 20
-53.382
 11
48.8758
 21
-53.3458
  0
LINE
  8
0
 10
48.8758
 20
-53.3458
 11
48.9283
 21
-53.3113
  0
LINE
  8
0
 10
48.9283
 20
-53.3113
 11
48.9819
 21
-53.2785
  0
LINE
  8
0
 10
48.9819
 20
-53.2785
 11
49.0365
 21
-53.2474
  0
LINE
  8
0
 10
49.0365
 20
-53.2474
 11
49.092
 21
-53.218
  0
LINE
  8
0
 10
49.092
 20
-53.218
 11
49.1484
 21
-53.1903
  0
LINE
  8
0
 10
49.1484
 20
-53.1903
 11
49.2057
 21
-53.1645
  0
LINE
  8
0
 10
49.2057
 20
-53.1645
 11
49.2637
 21
-53.1404
  0
LINE
  8
0
 10
49.2637
 20
-53.1404
 11
49.3225
 21
-53.1182
  0
LINE
  8
0
 10
49.3225
 20
-53.1182
 11
49.382
 21
-53.0979
  0
LINE
  8
0
 10
49.382
 20
-53.0979
 11
49.442
 21
-53.0794
  0
LINE
  8
0
 10
49.442
 20
-53.0794
 11
49.5026
 21
-53.0628
  0
LINE
  8
0
 10
49.5026
 20
-53.0628
 11
49.5637
 21
-53.0482
  0
LINE
  8
0
 10
49.5637
 20
-53.0482
 11
49.6252
 21
-53.0354
  0
LINE
  8
0
 10
49.6252
 20
-53.0354
 11
49.6871
 21
-53.0246
  0
LINE
  8
0
 10
49.6871
 20
-53.0246
 11
49.7493
 21
-53.0158
  0
LINE
  8
0
 10
49.7493
 20
-53.0158
 11
49.8118
 21
-53.0089
  0
LINE
  8
0
 10
49.8118
 20
-53.0089
 11
49.8744
 21
-53.0039
  0
LINE
  8
0
 10
49.8744
 20
-53.0039
 11
49.9372
 21
-53.001
  0
LINE
  8
0
 10
49.9372
 20
-53.001
 11
50
 21
-53
  0
LINE
  8
0
 10
50
 20
-53
 11
50.0628
 21
-53.001
  0
LINE
  8
0
 10
50.0628
 20
-53.001
 11
50.1256
 21
-53.0039
  0
LINE
  8
0
 10
50.1256
 20
-53.0039
 11
50.1882
 21
-53.0089
  0
LINE
  8
0
 10
50.1882
 20
-53.0089
 11
50.2507
 21
-53.0158
  0
LINE
  8
0
 10
50.2507
 20
-53.0158
 11
50.3129
 21
-53.0246
  0
LINE
  8
0
 10
50.3129
 20
-53.0246
 11
50.3748
 21
-53.0354
  0
LINE
  8
0
 10
50.3748
 20
-53.0354
 11
50.4363
 21
-53.0482
  0
LINE
  8
0
 10
50.4363
 20
-53.0482
 11
50.4974
 21
-53.0628
  0
LINE
  8
0
 10
50.4974
 20
-53.0628
 11
50.558
 21
-53.0794
  0
LINE
  8
0
 10
50.558
 20
-53.0794
 11
50.618
 21
-53.0979
  0
LINE
  8
0
 10
50.618
 20
-53.0979
 11
50.6775
 21
-53.1182
  0
LINE
  8
0
 10
50.6775
 20
-53.1182
 11
50.7362
 21
-53.1404
  0
LINE
  8
0
 10
50.7362
 20
-53.1404
 11
50.7943
 21
-53.1645
  0
LINE
  8
0
 10
50.7943
 20
-53.1645
 11
50.8515
 21
-53.1903
  0
LINE
  8
0
 10
50.8515
 20
-53.1903
 11
50.908
 21
-53.218
  0
LINE
  8
0
 10
50.908
 20
-53.218
 11
50.9635
 21
-53.2474
  0
LINE
  8
0
 10
50.9635
 20
-53.2474
 11
51.0181
 21
-53.2785
  0
LINE
  8
0
 10
51.0181
 20
-53.2785
 11
51.0716
 21
-53.3113
  0
LINE
  8
0
 10
51.0716
 20
-53.3113
 11
51.1242
 21
-53.3458
  0
LINE
  8
0
 10
51.1242
 20
-53.3458
 11
51.1756
 21
-53.382
  0
LINE
  8
0
 10
51.1756
 20
-53.382
 11
51.2258
 21
-53.4197
  0
LINE
  8
0
 10
51.2258
 20
-53.4197
 11
51.2748
 21
-53.459
  0
LINE
  8
0
 10
51.2748
 20
-53.459
 11
51.3226
 21
-53.4998
  0
LINE
  8
0
 10
51.3226
 20
-53.4998
 11
51.3691
 21
-53.5421
  0
LINE
  8
0
 10
51.3691
 20
-53.5421
 11
51.4142
 21
-53.5858
  0
LINE
  8
0
 10
51.4142
 20
-53.5858
 11
51.4579
 21
-53.6309
  0
LINE
  8
0
 10
51.4579
 20
-53.6309
 11
51.5002
 21
-53.6774
  0
LINE
  8
0
 10
51.5002
 20
-53.6774
 11
51.541
 21
-53.7251
  0
LINE
  8
0
 10
51.541
 20
-53.7251
 11
51.5803
 21
-53.7742
  0
LINE
  8
0
 10
51.5803
 20
-53.7742
 11
51.618
 21
-53.8244
  0
LINE
  8
0
 10
51.618
 20
-53.8244
 11
51.6542
 21
-53.8758
  0
LINE
  8
0
 10
51.6542
 20
-53.8758
 11
51.6886
 21
-53.9283
  0
LINE
  8
0
 10
51.6886
 20
-53.9283
 11
51.7215
 21
-53.9819
  0
LINE
  8
0
 10
51.7215
 20
-53.9819
 11
51.7526
 21
-54.0365
  0
LINE
  8
0
 10
51.7526
 20
-54.0365
 11
51.782
 21
-54.092
  0
LINE
  8
0
 10
51.782
 20
-54.092
 11
51.8096
 21
-54.1484
  0
LINE
  8
0
 10
51.8096
 20
-54.1484
 11
51.8355
 21
-54.2057
  0
LINE
  8
0
 10
51.8355
 20
-54.2057
 11
51.8595
 21
-54.2637
  0
LINE
  8
0
 10
51.8595
 20
-54.2637
 11
51.8818
 21
-54.3225
  0
LINE
  8
0
 10
51.8818
 20
-54.3225
 11
51.9021
 21
-54.382
  0
LINE
  8
0
 10
51.9021
 20
-54.382
 11
51.9206
 21
-54.442
  0
LINE
  8
0
 10
51.9206
 20
-54.442
 11
51.9372
 21
-54.5026
  0
LINE
  8
0
 10
51.9372
 20
-54.5026
 11
51.9518
 21
-54.5637
  0
LINE
  8
0
 10
51.9518
 20
-54.5637
 11
51.9646
 21
-54.6252
  0
LINE
  8
0
 10
51.9646
 20
-54.6252
 11
51.9754
 21
-54.6871
  0
LINE
  8
0
 10
51.9754
 20
-54.6871
 11
51.9842
 21
-54.7493
  0
LINE
  8
0
 10
51.9842
 20
-54.7493
 11
51.9911
 21
-54.8118
  0
LINE
  8
0
 10
51.9911
 20
-54.8118
 11
51.996
 21
-54.8744
  0
LINE
  8
0
 10
51.996
 20
-54.8744
 11
51.999
 21
-54.9372
  0
LINE
  8
0
 10
51.999
 20
-54.9372
 11
52
 21
-55
  0
LINE
  8
0
 10
52
 20
-55
 11
51.999
 21
-55.0628
  0
LINE
  8
0
 10
51.999
 20
-55.0628
 11
51.996
 21
-55.1256
  0
LINE
  8
0
 10
51.996
 20
-55.1256
 11
51.9911
 21
-55.1882
  0
LINE
  8
0
 10
51.9911
 20
-55.1882
 11
51.9842
 21
-55.2507
  0
LINE
  8
0
 10
51.9842
 20
-55.2507
 11
51.9754
 21
-55.3129
  0
LINE
  8
0
 10
51.9754
 20
-55.3129
 11
51.9646
 21
-55.3748
  0
LINE
  8
0
 10
51.9646
 20
-55.3748
 11
51.9518
 21
-55.4363
  0
LINE
  8
0
 10
51.9518
 20
-55.4363
 11
51.9372
 21
-55.4974
  0
LINE
  8
0
 10
51.9372
 20
-55.4974
 11
51.9206
 21
-55.558
  0
LINE
  8
0
 10
51.9206
 20
-55.558
 11
51.9021
 21
-55.618
  0
LINE
  8
0
 10
51.9021
 20
-55.618
 11
51.8818
 21
-55.6775
  0
LINE
  8
0
 10
51.8818
 20
-55.6775
 11
51.8595
 21
-55.7362
  0
LINE
  8
0
 10
51.8595
 20
-55.7362
 11
51.8355
 21
-55.7943
  0
LINE
  8
0
 10
51.8355
 20
-55.7943
 11
51.8096
 21
-55.8515
  0
LINE
  8
0
 10
51.8096
 20
-55.8515
 11
51.782
 21
-55.908
  0
LINE
  8
0
 10
51.782
 20
-55.908
 11
51.7526
 21
-55.9635
  0
LINE
  8
0
 10
51.7526
 20
-55.9635
 11
51.7215
 21
-56.0181
  0
LINE
  8
0
 10
51.7215
 20
-56.0181
 11
51.6886
 21
-56.0716
  0
LINE
  8
0
 10
51.6886
 20
-56.0716
 11
51.6542
 21
-56.1242
  0
LINE
  8
0
 10
51.6542
 20
-56.1242
 11
51.618
 21
-56.1756
  0
LINE
  8
0
 10
51.618
 20
-56.1756
 11
51.5803
 21
-56.2258
  0
LINE
  8
0
 10
51.5803
 20
-56.2258
 11
51.541
 21
-56.2748
  0
LINE
  8
0
 10
51.541
 20
-56.2748
 11
51.5002
 21
-56.3226
  0
LINE
  8
0
 10
51.5002
 20
-56.3226
 11
51.4579
 21
-56.3691
  0
LINE
  8
0
 10
51.4579
 20
-56.3691
 11
51.4142
 21
-56.4142
  0
LINE
  8
0
 10
51.4142
 20
-56.4142
 11
51.3691
 21
-56.4579
  0
LINE
  8
0
 10
51.3691
 20
-56.4579
 11
51.3226
 21
-56.5002
  0
LINE
  8
0
 10
51.3226
 20
-56.5002
 11
51.2748
 21
-56.541
  0
LINE
  8
0
 10
51.2748
 20
-56.541
 11
51.2258
 21
-56.5803
  0
LINE
  8
0
 10
51.2258
 20
-56.5803
 11
51.1756
 21
-56.618
  0
LINE
  8
0
 10
51.1756
 20
-56.618
 11
51.1242
 21
-56.6542
  0
LINE
  8
0
 10
51.1242
 20
-56.6542
 11
51.0716
 21
-56.6886
  0
LINE
  8
0
 10
51.0716
 20
-56.6886
 11
51.0181
 21
-56.7215
  0
LINE
  8
0
 10
51.0181
 20
-56.7215
 11
50.9635
 21
-56.7526
  0
LINE
  8
0
 10
50.9635
 20
-56.7526
 11
50.908
 21
-56.782
  0
LINE
  8
0
 10
50.908
 20
-56.782
 11
50.8515
 21
-56.8096
  0
LINE
  8
0
 10
50.8515
 20
-56.8096
 11
50.7943
 21
-56.8355
  0
LINE
  8
0
 10
50.7943
 20
-56.8355
 11
50.7362
 21
-56.8595
  0
LINE
  8
0
 10
50.7362
 20
-56.8595
 11
50.6775
 21
-56.8818
  0
LINE
  8
0
 10
50.6775
 20
-56.8818
 11
50.618
 21
-56.9021
  0
LINE
  8
0
 10
50.618
 20
-56.9021
 11
50.558
 21
-56.9206
  0
LINE
  8
0
 10
50.558
 20
-56.9206
 11
50.4974
 21
-56.9372
  0
LINE
  8
0
 10
50.4974
 20
-56.9372
 11
50.4363
 21
-56.9518
  0
LINE
  8
0
 10
50.4363
 20
-56.9518
 11
50.3748
 21
-56.9646
  0
LINE
  8
0
 10
50.3748
 20
-56.9646
 11
50.3129
 21
-56.9754
  0
LINE
  8
0
 10
50.3129
 20
-56.9754
 11
50.2507
 21
-56.9842
  0
LINE
  8
0
 10
50.2507
 20
-56.9842
 11
50.1882
 21
-56.9911
  0
LINE
  8
0
 10
50.1882
 20
-56.9911
 11
50.1256
 21
-56.996
  0
LINE
  8
0
 10
50.1256
 20
-56.996
 11
50.0628
 21
-56.999
  0
LINE
  8
0
 10
50.0628
 20
-56.999
 11
50
 21
-57
  0
LINE
  8
0
 10
50
 20
-57
 11
49.9372
 21
-56.999
  0
ENDSEC
  0
SECTION
  2
OBJECTS
  0
DICTIONARY
  0
ENDSEC
  0
EOF
